<svg width="388" height="156" viewBox="0 0 388 156" fill="none" xmlns="http://www.w3.org/2000/svg">
<rect width="388" height="156" rx="16" fill="#F2CABB"/>
<mask id="mask0_462_2750" style="mask-type:alpha" maskUnits="userSpaceOnUse" x="0" y="0" width="388" height="156">
<rect width="388" height="156" rx="16" fill="#F8F8F8"/>
</mask>
<g mask="url(#mask0_462_2750)">
<path d="M313.642 103.788C313.01 98.8422 312.251 93.8961 311.535 88.9499C311.493 88.6589 311.408 88.2589 311.155 88.1134C308.963 86.695 309.553 84.7674 309.385 82.8035C309.216 80.8032 307.994 78.8393 306.856 76.9845C306.434 76.2935 305.043 76.0389 303.484 75.2751C305.212 80.585 307.024 85.1311 308.162 89.8227C309.301 94.478 310.27 99.2059 309.343 104.589C306.94 102.37 305.591 100.624 306.055 98.1149C306.266 96.9874 305.549 95.7145 305.591 94.5507C305.844 89.1681 301.376 84.7674 301.502 79.4212C301.502 78.7302 300.617 77.8937 299.943 77.3118C297.624 75.3479 297.203 73.2749 298.762 70.6927C297.034 69.1652 293.072 69.0197 294.21 65.3828H299.226C298.678 64.2917 298.299 63.4552 297.919 62.6551L298.046 62.8006C298.046 62.7642 298.046 62.7279 298.046 62.6915C298.004 62.6915 297.962 62.6915 297.919 62.6915C294.168 59.091 292.524 54.072 287.676 51.1625C287.297 50.9443 287.255 50.3624 287.002 49.9623C283.756 44.3251 279.203 39.6699 273.091 36.1785C272.712 35.9603 272.29 35.5602 272.248 35.1965C271.49 30.7959 265.757 29.7776 263.986 26.0679C260.488 25.6679 260.108 23.5948 260.656 21.5218C256.399 18.8669 250.793 18.6123 248.558 13.8116C244.385 14.5026 241.435 12.1022 238.315 10.2111C235.365 8.42897 232.667 6.57415 228.325 8.42897C227.988 6.21046 227.693 4.42838 227.356 2.10077C226.47 1.80982 224.995 1.30065 223.393 0.718746C223.941 2.75541 223.773 5.04666 224.784 5.55582C228.789 7.59248 226.133 9.26545 225.079 11.6294C223.267 10.0292 222.845 7.88343 219.557 7.99254C217.492 8.06528 215.342 5.88314 213.192 4.68297C213.277 4.46475 213.403 4.28291 213.487 4.06469C214.752 4.24654 216.059 4.42838 218.461 4.7557C215.932 2.71904 214.288 1.40976 212.897 0.318689C211.337 1.04607 209.82 2.39172 208.555 2.24624C206.153 1.99166 207.417 -0.226847 206.869 -1.53613C206.743 -1.82708 206.827 -2.1544 206.785 -2.44535C206.701 -4.62749 205.183 -4.80934 203.371 -4.51838C202.78 -3.24547 202.275 -2.19077 201.685 -1.02696C200.209 -1.89982 198.27 -1.6816 198.65 -3.86374C198.987 -5.82767 197.511 -6.95511 195.151 -7.53701C192.495 -8.19165 190.008 -9.39183 187.437 -10.2647C182.083 -12.0104 176.73 -14.3016 170.913 -11.3558C170.407 -11.1012 169.564 -11.3194 168.89 -11.4285C165.391 -12.1195 161.386 -11.8285 159.237 -15.2109C158.899 -15.7564 157.803 -16.0837 156.96 -16.2292C152.703 -16.9929 148.446 -18.1931 144.146 -18.2659C139.931 -18.3022 135.926 -18.9569 131.795 -19.2842C124.882 -19.8297 117.927 -20.4844 110.887 -19.466C108.316 -19.1023 106.335 -18.9205 105.028 -15.8291C104.48 -17.5748 104.227 -18.3386 103.89 -19.4297C102.752 -18.775 101.825 -18.2659 100.855 -17.7203C99.9698 -18.2659 99.0425 -19.2842 98.073 -19.2842C93.3519 -19.4297 88.4621 -20.0116 83.9518 -19.1751C77.4603 -17.9385 70.8001 -18.4113 64.3507 -17.2475C60.9785 -16.6656 57.6906 -15.6109 54.3605 -14.7744C53.0538 -14.4471 51.747 -14.1198 50.3982 -13.8652C48.1641 -13.4652 45.7192 -13.5015 43.738 -12.7014C36.4034 -9.79189 28.0993 -8.59171 21.9029 -3.57279C21.397 -3.17273 20.7647 -2.84541 20.1325 -2.66357C14.5683 -1.17244 9.67857 1.44613 4.95745 4.31928C-0.227345 7.44701 -4.822 11.0475 -9.45881 14.8299C-23.2006 25.9952 -32.9801 39.5608 -41.9586 53.5629C-46.5954 60.7639 -49.799 68.656 -53.6349 76.2571C-53.8457 76.6572 -53.9722 77.2391 -54.3094 77.4209C-57.4708 78.9848 -57.1336 82.0398 -58.8619 84.6947C-55.4475 84.9857 -55.8269 86.8041 -56.1641 88.6953C-56.7121 91.6412 -57.3865 94.5871 -57.5551 97.5693C-57.8081 101.315 -58.5247 105.316 -57.3444 108.771C-55.7426 113.608 -57.7659 118.736 -55.026 123.319C-57.0915 125.973 -53.5928 128.265 -54.3515 130.883C-55.4053 134.557 -53.9722 138.012 -52.7076 141.43C-51.443 144.849 -50.895 148.85 -48.408 151.468C-45.373 154.705 -43.181 158.051 -41.6635 161.906C-41.0312 163.434 -40.1039 165.107 -38.7128 166.125C-36.8581 167.507 -35.8043 168.998 -35.3406 170.998C-35.1299 171.835 -34.5397 172.671 -33.9074 173.399C-29.2706 178.636 -24.5495 183.8 -19.8705 189.037C-18.6903 190.347 -17.6786 191.765 -16.6248 193.111L-16.7512 193.038L-16.7934 193.002C-16.7934 193.074 -16.7934 193.111 -16.7934 193.183C-16.7512 193.147 -16.7091 193.147 -16.6248 193.111C-14.475 194.747 -12.2409 196.384 -10.1332 198.057C-7.30901 200.312 -4.69554 202.785 -1.74484 204.894C3.86148 208.895 9.72071 212.677 15.3692 216.641C16.2544 217.26 17.1396 218.169 17.3925 219.078C18.1091 221.515 17.9827 221.406 20.2589 221.478C23.1253 221.551 26.0338 221.769 29.1953 221.951C28.0993 225.188 29.4061 226.716 32.146 227.734C35.6025 229.007 39.0591 229.589 42.7685 228.534C44.0331 228.17 45.5084 228.461 46.773 228.461C46.478 227.479 46.1407 226.497 45.677 225.079C50.8618 226.425 56.8897 225.006 59.461 230.643C58.6601 231.444 57.7749 232.171 57.1426 233.007C56.5103 233.844 56.0888 234.789 55.4143 236.026C57.7327 236.826 60.2198 237.663 63.1705 238.645C62.7911 237.335 62.5803 236.681 62.3696 236.026C65.6575 235.371 65.6575 235.371 72.7391 237.263C72.0647 235.08 72.5284 233.407 75.5212 233.044C75.6898 233.48 76.1114 234.026 75.9427 234.244C74.088 236.717 75.7741 237.772 78.1768 238.608C80.9168 239.554 83.6567 240.572 86.3123 241.518C84.9634 242.5 83.9518 243.263 82.5186 244.282C86.228 245.046 86.228 245.046 89.5581 243.082C90.1061 244.064 90.6119 245.046 91.2442 246.246C92.1716 245.809 92.8882 245.664 93.3097 245.227C95.333 243.227 97.9043 243.3 100.602 243.554C103.089 243.809 104.101 245.191 104.902 247.009C105.155 247.555 107.051 248.173 107.304 247.955C109.37 246.246 112.068 246.719 114.47 246.246C116.409 245.882 117.042 245.191 116.536 243.445C115.777 240.936 118.517 238.608 121.763 238.863C119.402 244.027 119.571 244.718 123.533 245.955C124.081 244.1 123.997 241.59 127.749 242.682C128.086 242.791 128.887 241.7 129.477 241.19H126.315C126.61 238.936 126.863 237.008 127.201 234.462C128.128 234.317 129.519 234.098 130.404 233.953C131.627 236.826 132.68 239.299 133.987 242.245C132.765 242.027 131.753 241.845 130.741 241.7C131.416 242.936 131.079 244.573 133.397 245.046C135.505 245.482 137.359 245.846 139.256 244.755C140.226 244.173 141.322 243.7 142.333 243.191C142.333 243.191 142.291 243.191 142.291 243.154C146.211 243.227 146.844 242.9 149.12 240.208C149.499 239.736 150.132 239.299 150.722 239.154C152.492 238.681 154.305 238.208 156.117 237.99C156.665 237.917 157.382 238.535 157.972 238.826C156.707 241.118 152.534 239.19 152.239 242.972C155.78 242.281 159.026 241.627 162.482 240.936C160.164 237.99 160.122 235.844 162.019 235.844C165.897 235.844 166.276 232.644 168.763 231.334C169.943 231.734 171.082 232.135 172.22 232.571C174.243 229.698 169.775 230.061 169.817 228.025C172.641 227.261 175.465 226.534 178.29 225.806C178.374 225.988 178.5 226.206 178.585 226.388C177.531 227.043 176.477 227.698 175.339 228.389C176.857 229.443 178.079 230.352 179.344 231.225C179.849 231.262 180.355 231.262 180.861 231.298C178.037 228.498 185.076 227.879 181.662 225.188C184.275 220.424 189.123 221.297 193.802 221.551C194.139 223.224 194.434 224.861 194.771 226.57C193.844 226.861 193.212 227.043 192.58 227.261C191.989 227.479 191.441 227.734 190.893 227.988C191.146 228.825 191.273 229.407 191.526 229.989C191.652 230.243 191.989 230.389 192.706 230.971C205.183 227.988 215.679 221.697 225.585 214.459C225.712 214.35 225.543 213.95 225.543 213.659C224.489 213.914 223.393 214.205 221.918 214.568C222.129 213.114 222.297 212.059 222.466 211.004C220.78 212.859 221.412 215.478 218.672 216.787C216.438 217.842 214.373 219.187 211.885 220.569C211.085 219.987 210.326 219.442 209.946 219.151C211.127 216.641 212.012 214.787 213.024 212.641C215.595 211.186 220.232 211.441 221.117 207.404C225.121 208.749 226.049 208.349 228.62 205.403C229.716 204.167 231.487 203.367 232.835 202.457C234.395 203.33 235.66 204.058 237.641 205.185C237.219 203.367 236.924 202.239 236.671 201.075C237.978 201.003 238.779 197.948 240.634 200.712C240.802 200.966 242.699 200.784 243.374 200.348C245.313 199.075 246.999 197.548 248.769 196.129C249.612 195.475 250.371 194.529 251.383 194.202C256.61 192.565 258.254 191.219 260.403 186.419C260.614 185.91 261.457 185.182 261.794 185.255C263.818 185.728 263.818 184.309 264.619 183.436C265.209 182.782 266.558 182.636 267.569 182.236C268.707 181.8 270.225 181.545 270.942 180.782C271.995 179.654 272.543 178.163 273.471 176.563C279.751 176.417 280.004 172.344 279.583 167.761C283.166 168.816 284.683 167.398 285.906 165.288C286.665 163.979 287.887 162.815 288.646 161.506C289.7 159.724 293.156 159.178 292.06 156.342C293.999 154.996 294.463 152.996 295.306 151.141H295.474C295.432 151.141 295.39 151.104 295.348 151.104L295.222 151.177C295.685 147.868 296.402 144.813 301.587 145.067C302.388 145.104 303.821 144.194 303.947 143.54C304.537 140.848 306.434 138.193 304.116 134.848C306.94 135.829 308.036 134.738 308.373 133.029C309.385 128.301 310.186 123.537 311.197 118.809C311.45 117.572 312.083 116.372 312.42 115.136C312.968 113.099 313.684 111.062 313.895 109.026C314.148 107.389 313.895 105.571 313.642 103.788ZM-35.2142 76.1844C-38.7971 74.4387 -38.7971 74.1477 -35.6357 70.6563C-31.9262 72.6929 -35.1299 74.2932 -35.2142 76.1844ZM-32.3056 63.4552C-31.1253 61.9641 -29.5235 61.7823 -27.2894 62.837C-28.3011 64.8372 -29.2706 66.7648 -30.5774 69.3106C-32.2635 67.0194 -33.9496 65.5646 -32.3056 63.4552ZM-26.4464 83.1308L-27.9639 82.7308C-27.8374 81.8943 -27.5002 81.0214 -27.5845 80.2213C-27.6688 79.4939 -28.2589 78.8029 -28.8069 77.7482H-24.423C-25.1818 79.7849 -25.8141 81.4579 -26.4464 83.1308ZM-22.0625 51.017C-23.8751 49.7441 -24.423 48.5439 -22.8212 47.1619C-22.5262 46.9073 -21.2616 47.0165 -21.0087 47.3438C-19.9127 48.5803 -19.9127 49.8532 -22.0625 51.017ZM-19.7019 43.3432C-19.7441 43.3796 -20.4185 42.9068 -20.4185 42.9068C-19.9548 42.2521 -19.4069 41.5975 -18.901 40.9428C-18.5217 41.1974 -18.1844 41.452 -17.8051 41.7066C-18.4373 42.2521 -19.0275 42.834 -19.7019 43.3432ZM9.4678 18.7214C9.25703 19.1942 8.70905 19.5215 7.82384 20.3944C6.60141 18.1031 6.89648 17.1212 9.50995 16.9757C9.50995 17.6303 9.67856 18.2486 9.4678 18.7214ZM23.7576 217.223C22.8724 216.823 21.945 216.423 21.0598 216.023C21.1863 215.805 21.3127 215.587 21.4392 215.368C22.3244 215.805 23.2096 216.205 24.0948 216.641C23.9684 216.86 23.8419 217.041 23.7576 217.223ZM70.6736 220.606C67.6808 219.187 66.1633 223.588 62.9175 221.551C64.0557 220.242 65.1095 219.005 66.4162 217.478C67.8073 218.132 69.3248 218.896 70.8423 219.624C70.8001 219.951 70.758 220.278 70.6736 220.606ZM73.245 224.752C72.4862 224.606 71.7275 224.461 70.9266 224.315C71.053 224.061 71.2216 223.624 71.3059 223.624C72.0225 223.697 72.697 223.879 73.4136 224.024L73.245 224.752ZM77.7553 223.806C76.6172 223.551 75.4791 223.26 73.8351 222.86C75.9427 221.006 77.0387 221.733 78.0925 222.788C77.9661 223.115 77.8396 223.479 77.7553 223.806ZM82.35 226.534C83.193 226.897 83.9939 227.261 84.837 227.588C84.5419 228.061 84.289 228.498 83.9939 228.97L81.6755 227.479C81.8863 227.152 82.1392 226.825 82.35 226.534ZM83.6989 239.99C83.0666 238.645 82.5607 237.99 82.5186 237.299C82.4764 236.972 83.4038 236.208 83.6146 236.244C84.289 236.462 84.9635 236.935 85.4271 237.444C85.5957 237.626 84.9213 238.281 83.6989 239.99ZM85.4693 230.098C86.5231 229.152 87.2818 228.461 88.42 227.443C89.6424 228.752 90.6541 229.88 92.3402 231.698C89.6424 231.08 87.872 230.68 85.4693 230.098ZM91.3707 224.024C91.3707 223.661 91.3707 223.297 91.4128 222.97C93.2675 223.079 95.1223 223.188 97.5671 223.333C94.5743 225.37 94.5743 225.37 91.3707 224.024ZM101.572 243.482C99.8012 242.863 98.621 242.463 96.8927 241.845C99.2111 241.081 98.1151 237.663 102.162 238.572C101.614 239.372 100.897 239.954 100.855 240.609C100.771 241.372 101.234 242.172 101.572 243.482ZM113.712 231.189C113.712 232.462 111.646 232.462 110.761 231.153C110.002 230.025 109.412 228.789 108.653 227.407C110.255 226.57 111.773 225.152 113.164 225.224C114.765 225.297 116.283 226.716 117.927 227.588C116.367 228.861 113.712 228.57 113.712 231.189ZM122.016 235.48C117.969 233.626 117.969 233.626 120.119 230.462C121.51 230.825 122.943 231.153 124.461 231.553C123.575 233.007 122.817 234.244 122.016 235.48ZM128.423 230.425C128.001 229.37 127.749 228.643 127.453 227.952C128.76 227.661 130.109 227.37 131.416 227.043C131.584 227.37 131.753 227.698 131.922 228.025C130.91 228.716 129.898 229.443 128.423 230.425ZM142.291 243.336C140.352 242.281 138.413 241.19 136.685 240.245C136.896 239.408 136.896 239.154 136.98 239.154C138.245 238.681 139.467 238.245 140.9 237.735C142.038 239.081 143.176 240.427 143.64 240.972C143.176 241.772 142.713 242.536 142.291 243.336ZM143.008 229.443C141.069 229.661 138.919 228.461 136.811 228.134C134.788 227.807 133.945 227.188 135.336 225.006C137.95 226.643 140.31 226.752 143.092 225.443C145.242 224.424 147.898 223.588 150.258 225.879C149.71 226.243 149.373 226.57 148.951 226.752C146.97 227.698 145.115 229.189 143.008 229.443ZM148.656 228.17C151.776 228.098 151.776 228.134 152.366 231.189C151.228 230.28 150.09 229.334 148.656 228.17ZM149.542 236.026C151.059 235.808 152.113 235.662 153.588 235.48C151.86 237.263 151.86 237.263 149.542 236.026ZM152.661 231.153C154.01 230.643 155.359 230.171 157.087 229.516C156.202 232.971 154.01 230.753 152.661 231.153ZM159.995 232.207C159.321 229.952 158.773 228.134 158.141 226.025C158.647 225.661 159.532 225.043 160.712 224.242C161.808 226.352 163.115 228.061 163.494 229.916C163.916 231.844 162.145 232.389 159.995 232.207ZM172.683 223.806C173.105 223.588 173.484 223.333 173.948 223.188C174.707 222.933 175.508 222.751 176.561 222.497C175.339 224.097 175.339 224.097 172.683 223.806ZM202.991 223.37C202.696 223.006 202.401 222.679 202.148 222.315C203.413 220.169 205.015 218.642 209.356 220.133C206.743 221.442 204.888 222.424 202.991 223.37ZM231.697 9.88373C233.13 10.2838 234.479 10.9748 236.418 11.8113C233.678 12.7932 231.782 12.575 230.096 11.193C230.643 10.7202 231.36 9.77462 231.697 9.88373ZM238.653 18.976C235.365 17.2303 232.372 15.5937 228.915 13.7752C229.252 13.0842 229.632 12.175 230.053 11.2657C230.643 13.0115 232.456 13.3024 234.184 13.9207C236.334 14.7208 239.622 15.0118 238.653 18.976ZM259.265 122.555C259.223 122.591 258.464 122.337 258.085 122.191C258.507 121.573 258.928 120.955 259.307 120.336C259.602 120.445 259.898 120.555 260.15 120.7C259.898 121.318 259.645 121.973 259.265 122.555ZM261.415 125.828C261.373 122.555 261.373 122.555 264.239 120.409C263.396 121.973 262.595 123.537 261.415 125.828ZM265.799 116.445C263.86 114.19 264.113 113.099 266.347 111.426C266.136 113.317 266.01 114.408 265.799 116.445ZM274.651 45.9617C271.7 43.4887 269.171 40.6519 266.431 37.9969C265.335 36.9422 262.848 35.8148 263.017 35.0511C263.649 32.3961 261.626 32.8689 260.066 32.6143C259.898 32.578 259.645 32.5416 259.602 32.4325C257.579 28.9047 252.226 28.832 250.076 26.2134C247.968 23.6676 243.711 22.6856 242.868 18.2122C246.493 19.7397 249.401 20.9763 252.9 22.431C253.954 24.2131 255.935 25.9952 258.549 27.6318C262.3 29.9594 265.462 32.9417 268.876 35.6693C269.382 36.0694 269.761 36.7604 270.351 36.9059C274.44 37.8515 274.862 41.6338 277.433 43.7796C279.204 45.2344 280.047 47.5256 281.901 50.3988C278.824 48.544 276.464 47.4892 274.651 45.9617ZM284.388 125.683C284.894 123.246 285.231 121.646 285.695 119.536C287.339 121.9 287.339 121.9 284.388 125.683ZM299.015 142.958C298.889 141.139 299.943 140.266 301.755 139.721C301.924 142.121 301.924 142.121 299.015 142.958ZM307.572 116.99C305.633 113.499 305.465 109.498 306.94 106.334C310.186 106.698 309.469 109.244 310.017 110.88C310.818 113.208 308.205 114.663 307.572 116.99ZM177.615 235.008L177.953 235.917L183.137 234.644C180.06 231.989 179.091 234.026 177.615 235.008ZM174.074 235.808C172.051 236.572 170.196 237.263 167.246 238.354C172.768 238.499 172.768 238.499 174.074 235.808ZM298.004 58.2545C297.709 58.3636 297.371 58.509 297.076 58.6182C297.287 59.2728 297.54 59.9274 297.709 60.5821C297.877 61.2731 297.961 61.9641 298.088 62.6915C298.931 62.8006 299.816 62.9097 301.418 63.1643C300.027 61.1276 299.015 59.7092 298.004 58.2545ZM3.18703 211.368C1.75384 210.35 0.910782 209.768 -0.648872 208.677C-0.353802 211.113 0.362797 211.877 3.18703 211.368ZM72.4862 241.627C74.0037 242.209 75.184 242.645 77.2073 243.409C76.1114 240.645 76.1114 240.645 72.4862 241.627ZM-5.03276 204.894C-6.80318 203.803 -7.857 203.148 -9.58526 202.094C-8.99512 204.494 -7.98346 205.221 -5.03276 204.894ZM-17.3835 196.384C-17.0885 195.438 -16.9198 195.075 -16.8355 194.674C-16.7512 194.202 -16.7512 193.729 -16.7512 193.22C-17.5943 193.62 -18.4373 193.983 -19.2804 194.384C-18.7324 194.965 -18.2266 195.511 -17.3835 196.384ZM293.156 160.633C293.409 160.779 293.662 160.924 293.915 161.033C294.758 159.978 295.643 158.96 296.486 157.905C296.022 157.687 295.601 157.433 295.137 157.214C294.505 158.378 293.831 159.506 293.156 160.633ZM300.617 150.85C298.931 151.032 297.245 151.177 295.559 151.359C297.287 151.832 298.973 152.45 300.617 150.85ZM-60 90.9502C-59.8314 90.9865 -59.6628 91.0229 -59.4942 91.0956C-59.1991 90.441 -58.904 89.7864 -58.609 89.0954C-58.904 89.0226 -59.1569 88.9499 -59.452 88.8771C-59.6206 89.5682 -59.7892 90.2592 -60 90.9502ZM300.364 70.0016L302.135 72.2565C302.388 72.111 302.64 71.9656 302.893 71.7837C302.261 71.0563 301.671 70.2926 301.039 69.5652C300.828 69.7107 300.575 69.8562 300.364 70.0016ZM293.451 52.3991C292.987 51.7444 292.524 51.1261 292.102 50.4715C291.891 50.5806 291.639 50.6897 291.428 50.8352C291.892 51.4898 292.313 52.1081 292.777 52.7627C292.987 52.6536 293.198 52.5445 293.451 52.3991ZM285.063 42.2885C284.473 41.7066 283.882 41.1247 283.292 40.5428C283.082 40.6519 282.913 40.7974 282.702 40.9065C283.208 41.5611 283.672 42.1794 284.178 42.834C284.473 42.6158 284.768 42.434 285.063 42.2885Z" fill="#FFE6DD"/>
<path d="M397.624 47.5008C396.176 46.1698 394.548 45.1835 393.445 43.4951C392.681 42.3207 392.268 40.9319 391.286 39.9031C390.114 38.6798 388.568 37.8696 387.267 36.807C384.55 34.591 383.569 31.1685 381.194 28.6659C380.273 27.6981 379.248 26.804 378.124 26.0756C376.662 25.1276 375.012 24.5128 373.7 23.3367C370.982 20.8872 369.97 16.8104 367.617 13.9971C365.706 11.6947 363.571 9.62842 360.625 8.76311C357.697 7.90114 354.533 7.90157 351.598 8.70165C351.012 8.86595 350.436 9.03192 349.886 9.22263C349.108 7.83277 348.046 6.67881 347.058 5.44615C345.779 3.83944 344.587 2.13599 342.985 0.819298C342.122 0.104873 341.263 -0.568442 340.44 -1.337C340.055 -1.69654 339.675 -2.14648 339.159 -2.33544C338.28 -2.65699 337.801 -2.22112 337.367 -1.63551C337.079 -2.02928 336.78 -2.42473 336.491 -2.80865C334.64 -5.29331 332.849 -7.76794 330.321 -9.6069C329.048 -10.533 326.703 -12.4322 325.002 -11.372C323.481 -10.423 323.107 -7.32189 323.546 -5.78673C324.288 -3.22645 327.675 -1.4244 329.557 0.213708C331.307 1.73798 332.971 3.34913 334.707 4.89145C333.002 3.76022 331.309 2.62082 329.646 1.4256C327.086 -0.408518 324.309 -1.97531 321.339 -3.05771C319.342 -3.78209 317.443 -4.30726 316.728 -1.71023C316.072 0.663391 317.691 2.41908 319.767 3.15685C322.253 4.04545 324.697 4.88625 327.12 5.90618C326.604 6.97488 326.199 8.34641 326.791 9.3395C327.629 10.7394 330.096 11.7973 331.463 12.5872C333.265 13.6233 335.088 14.5412 336.966 15.428C338.561 16.1857 340.143 17.0831 341.91 17.3728C341.213 20.2263 341.745 23.6639 342.719 26.0506C343.867 28.8521 345.713 30.5246 348.276 32.0349C349.632 32.833 351.052 33.4899 352.426 34.2403C354.19 35.1991 355.223 36.6423 356.247 38.3173C357.803 40.8636 359.331 42.8574 362.173 44.0397C365.083 45.2435 368.235 45.6163 370.893 47.4063C373.106 48.8876 374.973 50.9185 377.573 51.7351C380.743 52.7195 383.878 53.0692 386.902 54.617C389.558 55.9401 391.91 57.7999 394.924 58.2708C396.93 58.581 399.888 58.4237 401.269 56.6803C402.718 54.8368 401.465 52.3013 400.343 50.6605C399.546 49.5007 398.65 48.4459 397.624 47.5008ZM339.272 -0.967295C339.794 -0.696123 340.273 0.0648362 340.703 0.462321C341.878 1.54429 343.082 2.45865 344.084 3.72423C344.979 4.84975 345.71 6.09973 346.571 7.23994C347.2 8.07697 347.819 8.91232 348.3 9.8459C347.904 10.0223 347.526 10.2217 347.155 10.4327C346.94 9.72677 346.438 9.33728 345.842 8.72887C344.744 7.60932 343.713 6.38969 342.699 5.19312C341 3.1906 339.402 1.0733 337.824 -1.04066C338.278 -1.207 338.702 -1.25669 339.272 -0.967295ZM328.361 -2.71782C327.388 -3.50162 326.006 -4.32445 325.268 -5.35251C324.546 -6.3575 324.633 -9.203 325.695 -10.0777C327.333 -11.4226 331.281 -7.37477 332.343 -6.22081C334.131 -4.26405 335.543 -2.00592 337.143 0.101528C338.741 2.21883 340.252 4.43287 341.957 6.45679C343.307 8.06535 344.758 9.55914 346.157 11.1152C345.831 11.3642 345.511 11.6345 345.216 11.9394C344.999 11.7809 344.781 11.6323 344.564 11.4738C344.022 10.905 342.979 9.99772 342.853 9.90528C341.874 9.16091 340.911 8.37878 339.996 7.55406C338.138 5.88972 336.228 4.29757 334.387 2.59547C332.421 0.791073 330.45 -1.04458 328.361 -2.71782ZM322.511 2.52716C321.185 2.08919 319.803 1.9256 318.788 0.911516C317.956 0.0804575 317.506 -1.33472 318.674 -2.12035C319.603 -2.75381 320.468 -2.23173 321.516 -1.83075C322.756 -1.36674 324.008 -0.799111 325.193 -0.192227C327.761 1.11583 330.077 2.8884 332.436 4.52628C334.695 6.09646 336.954 7.66664 339.174 9.29096C340.707 10.4134 342.501 12.0973 344.318 12.9839C344.198 13.1562 344.066 13.3366 343.953 13.5204C343.899 13.6025 343.854 13.6862 343.81 13.7699C341.102 10.4804 336.57 8.61572 332.805 6.95228C330.474 5.92769 328.187 4.75856 325.834 3.80131C324.742 3.36239 323.632 2.91027 322.511 2.52716ZM334.432 12.7259C333.134 12.0694 331.88 11.3291 330.651 10.5626C329.633 9.92338 328.042 9.25775 327.67 7.98747C327.546 7.58103 327.652 6.83826 327.782 6.19092C327.867 6.2257 327.953 6.26047 328.046 6.30678C330.772 7.51997 333.567 8.56238 336.211 9.95451C337.811 10.8043 339.41 11.6031 340.896 12.6466C341.722 13.2228 342.443 13.9335 343.262 14.4883C342.951 14.8819 342.687 15.3037 342.477 15.765C342.446 15.7698 342.405 15.773 342.373 15.7778C339.685 14.8854 336.985 14.0011 334.432 12.7259ZM399.971 54.9486C399.494 56.5616 396.8 56.5404 395.519 56.3738C393.089 56.0525 391.161 54.6806 389.102 53.4892C391.006 52.2503 393.628 50.5451 393.938 48.1836C394.015 47.6084 393.287 47.4139 393.013 47.8948C392.451 48.8746 392.149 49.8173 391.361 50.6978C390.547 51.6045 389.645 52.4962 388.703 53.2693C388.657 53.2412 388.611 53.2131 388.565 53.1851C386.423 51.9999 384.132 51.1547 381.755 50.5787C380.528 50.2792 379.241 50.152 378.05 49.7572C376.707 49.306 375.562 48.4625 374.45 47.6043C374.217 47.4228 373.974 47.2396 373.741 47.058C377.049 45.7938 379.751 43.2603 380.898 39.7932C380.956 39.6306 380.747 39.5445 380.663 39.6824C379.526 41.5383 377.763 42.9633 376.053 44.2554C375.437 44.7188 374.711 44.9911 374.07 45.42C373.635 45.7113 373.215 46.0356 372.786 46.3483C371.512 45.4321 370.188 44.6291 368.645 44.0935C366.29 43.2678 363.713 43.0332 361.511 41.7871C360.409 41.164 359.597 40.2755 358.901 39.2952C359.724 39.4045 360.513 39.5992 361.437 39.3505C362.969 38.9309 364.66 38.1731 365.953 37.2465C368.441 35.4373 370.161 31.9966 371.054 29.1255C371.195 28.6525 370.481 28.5007 370.274 28.8815C368.87 31.4732 367.115 34.7658 364.542 36.3578C363.397 37.0662 362.036 37.7378 360.746 38.168C359.961 38.4303 359.165 38.3967 358.377 38.4963C357.497 37.1094 356.724 35.6292 355.606 34.4455C354.031 32.7885 351.747 31.9647 349.703 30.9179C350.066 30.9289 350.433 30.9201 350.826 30.8752C352.481 30.6895 354.016 30.1893 355.38 29.2037C357.934 27.3651 360.459 23.9597 360.926 20.7931C360.994 20.3281 360.28 20.0547 360.106 20.5424C359.121 23.4181 356.818 26.4658 354.313 28.201C352.957 29.1373 351.348 29.5336 349.735 29.7162C349.083 29.7883 348.332 29.671 347.629 29.6935C346.511 28.9257 345.564 28.0549 344.854 26.7984C343.974 25.229 343.489 23.5441 343.181 21.7776C343.1 21.2973 343.034 20.7891 342.988 20.2842C343.313 18.3716 344.142 16.5344 345.153 14.8803C346.664 12.4287 348.993 11.4344 351.649 10.6072C354.123 9.84026 356.701 9.70985 359.238 10.2419C358.991 10.8593 358.987 11.599 358.816 12.2496C358.42 13.8052 357.629 15.4765 356.908 16.9161C355.479 19.7773 352.146 21.4229 349.237 22.3086C349.194 22.3216 349.212 22.3956 349.255 22.3826C352.491 21.7856 356.007 20.8508 358.032 17.9996C358.846 16.8496 361.237 12.9851 360.983 10.7715C363.192 11.6839 364.887 13.3511 366.443 15.2381C367.319 16.2896 368.026 17.4441 368.689 18.6216C368.593 18.6459 368.504 18.6917 368.418 18.7786C367.302 19.857 366.947 21.9471 366.232 23.2963C365.167 25.3268 363.415 27.2812 361.648 28.7259C361.577 28.7849 361.651 28.8887 361.73 28.8413C365.47 26.707 367.593 23.6391 369.382 19.855C369.902 20.7952 370.42 21.7454 371.016 22.6579C372.438 24.8569 374.414 25.9429 376.547 27.299C376.425 27.897 376.386 28.5496 376.244 29.0835C375.983 30.0839 375.757 31.0597 375.437 32.0501C374.934 33.6384 374.097 35.1599 372.958 36.3763C371.633 37.7845 369.983 38.6608 368.359 39.6835C368.246 39.7555 368.345 39.9448 368.466 39.8942C370.523 39.006 372.56 38.4186 374.273 36.9343C375.591 35.7989 376.469 34.1526 377.046 32.5465C377.278 31.8961 377.986 29.9978 378.135 28.4611C379.834 29.8652 381.19 31.6168 382.314 33.542C383.657 35.8493 385.18 37.5685 387.376 39.0974C388.01 39.5399 388.686 39.9792 389.303 40.4693C389.252 40.5316 389.199 40.6038 389.174 40.6909C388.533 42.3773 388.288 44.1817 387.287 45.7159C385.999 47.6881 384.578 49.364 382.344 50.2731C382.28 50.2926 382.316 50.3798 382.379 50.3702C386.744 49.2143 389.297 45.8846 390.564 41.7685C390.588 41.8031 390.604 41.8262 390.629 41.8608C391.439 43.0633 391.937 44.3751 392.89 45.5106C394.664 47.6071 396.985 48.995 398.571 51.3029C399.2 52.2008 400.324 53.761 399.971 54.9486Z" fill="#FFE6DD"/>
<path d="M156.17 115.193C155.366 111.98 154.578 108.751 153.626 105.572C153.275 104.406 152.859 102.065 151.867 101.229C150.94 100.447 149.684 101.307 148.683 101.546C147.808 101.754 146.242 101.514 146.072 102.661C146.015 103.011 146.225 103.326 146.336 103.65C146.785 104.871 147.291 106.079 147.749 107.304C148.481 109.245 149.164 111.201 149.969 113.114C150.198 113.647 150.418 114.241 150.696 114.79C148.915 113.938 146.92 113.499 144.975 113.499C141.487 113.501 138.51 115.252 136.424 117.983C134.357 120.69 133.735 124.705 134.734 127.932C135.431 130.189 137.543 133.564 140.129 134.004C139.684 135.184 139.39 136.415 139.31 137.666C139.059 141.523 141.316 144.936 143.917 147.591C145.077 148.77 146.587 149.857 148.261 150.06C149.693 150.232 150.904 149.748 152.166 149.334C153.173 150.439 154.572 151.415 155.707 152.331C157.237 153.573 158.841 154.724 160.426 155.9C163.35 158.074 166.092 160.438 168.943 162.702C172.127 165.229 175.26 167.78 178.37 170.397C181.245 172.807 184.333 175.089 187.569 176.999C189.3 178.024 193.49 180.947 195.307 178.631C196.971 176.515 194.303 172.358 193.372 170.444C189.88 163.289 186.181 156.243 182.736 149.072C180.756 144.971 178.707 140.888 176.563 136.868C175.547 134.957 174.54 133.048 173.461 131.168C172.447 129.405 171.557 127.462 170.241 125.902C170.388 124.547 170.313 123.19 169.703 121.882C168.773 119.905 167.245 117.945 165.835 116.289C164.472 114.682 162.293 114.222 160.285 113.852C158.782 113.581 157.375 114.263 156.17 115.193ZM151.716 114.462C151.13 112.994 150.604 111.503 150.015 110.044C149.425 108.585 148.82 107.141 148.217 105.688C148.034 105.235 147.054 103.652 147.165 103.204C147.38 102.358 148.197 102.595 148.907 102.436C149.382 102.345 150.243 101.836 150.697 101.928C151.62 102.106 151.969 103.896 152.198 104.619C152.642 106.039 152.972 107.483 153.325 108.925C153.91 111.292 154.505 113.694 155.221 116.02C154.867 116.375 154.491 116.796 154.13 117.264C153.565 116.659 152.927 116.113 152.229 115.652C152.084 115.212 151.844 114.77 151.716 114.462ZM136.327 127.261C135.513 124.541 135.68 120.995 137.308 118.582C139.055 115.977 141.794 114.366 144.966 114.669C148.038 114.959 151.154 116.416 153.08 118.818C151.907 120.795 151.124 123.148 151.698 124.961C149.843 124.824 147.946 125.147 146.086 126.044C143.556 127.26 141.804 129.726 140.863 132.416C140.744 132.64 140.631 132.876 140.522 133.103C138.857 131.329 137.064 129.711 136.327 127.261ZM148.603 148.38C146.385 148.192 144.741 146.045 143.444 144.46C142.169 142.903 141.046 140.934 140.822 138.902C140.568 136.554 141.03 134.122 142.065 131.992C143.126 130.094 144.691 128.452 146.615 127.525C149.932 125.922 153.722 126.182 156.918 127.93C158.663 128.886 160.063 130.2 161.243 131.787C161.722 132.427 162.304 133.133 162.634 133.869C163.218 135.158 162.886 136.376 162.756 137.684C162.459 140.436 163.697 142.35 165.793 144.039C167.044 145.048 168.333 146.038 169.192 147.421C169.429 147.808 170.206 149.12 169.934 149.608C169.337 150.704 167.599 149.265 167.074 148.853C166.087 148.092 163.472 144.894 161.97 146.008C161.124 146.627 161.433 147.948 161.028 148.793C159.502 151.928 157.484 148.648 155.885 147.7C153.417 146.232 151.109 148.592 148.603 148.38ZM178.486 157.913C178.917 158.261 179.335 158.615 179.762 158.973C180.645 159.729 181.512 160.501 182.398 161.248C181.791 162.372 181.197 163.49 180.466 164.487C179.551 163.73 178.643 162.987 177.71 162.255C177.134 161.805 176.543 161.37 175.952 160.935C176.952 160.02 177.785 159.036 178.486 157.913ZM175.725 160.794C174.376 159.826 172.995 158.888 171.598 157.967C172.489 156.94 173.263 155.788 173.973 154.731C174.018 154.662 174.066 154.583 174.111 154.514C175.359 155.438 176.588 156.387 177.789 157.357C177.229 158.561 176.562 159.707 175.725 160.794ZM183.221 161.931C184.223 162.739 185.255 163.493 186.395 164.116C186.448 164.145 186.502 164.142 186.55 164.126C186.365 164.634 186.172 165.139 185.921 165.624C185.507 166.433 184.948 167.109 184.299 167.711C184.217 167.641 184.145 167.574 184.06 167.513C183.124 166.728 182.181 165.93 181.245 165.145C182.049 164.215 182.706 163.097 183.221 161.931ZM178.088 156.699C176.852 155.832 175.581 155.006 174.3 154.209C175.306 152.566 175.983 150.8 176.481 148.973C177.546 149.971 178.635 150.957 179.834 151.747C179.543 152.599 179.289 153.463 179.005 154.296C178.733 155.122 178.426 155.926 178.088 156.699ZM173.346 153.629C172.855 153.334 172.364 153.04 171.864 152.742C171.81 152.713 171.762 152.791 171.812 152.83C172.281 153.159 172.746 153.498 173.202 153.833C172.393 155.057 171.533 156.211 170.595 157.285C169.33 156.441 168.078 155.59 166.849 154.704C167.735 153.813 168.492 152.741 168.969 151.688C171.746 152.437 172.043 149.558 171.266 147.443C171.651 147.089 171.956 146.538 172.187 146.141C172.315 145.921 172.412 145.7 172.508 145.479C173.187 146.06 173.869 146.632 174.547 147.212C174.971 147.579 175.392 147.956 175.81 148.342C175.16 150.18 174.412 151.964 173.346 153.629ZM161.738 155.155C160.005 153.886 158.218 152.683 156.495 151.386C155.772 150.842 155.097 150.22 154.368 149.696C154.012 149.437 153.612 149.248 153.218 149.039C153.405 148.987 153.599 148.947 153.789 148.917C156.059 148.52 156.896 151.079 158.971 151.44C160.196 151.658 161.417 150.839 161.982 149.774C162.306 149.166 162.204 148.54 162.439 147.944C162.765 147.114 162.892 147.052 163.689 147.473C163.931 147.598 164.298 148.04 164.464 148.203C165.553 149.283 166.586 150.588 167.969 151.304C167.601 151.823 167.384 152.488 167.035 153.046C166.786 153.436 166.523 153.864 166.241 154.285C165.735 153.911 165.229 153.537 164.739 153.148C164.723 153.132 164.701 153.167 164.716 153.182C165.223 153.556 165.716 153.937 166.219 154.32C165.761 155.009 165.247 155.679 164.683 156.183C164.639 156.221 164.689 156.291 164.74 156.266C165.46 155.921 166.151 155.385 166.788 154.758C167.983 155.684 169.164 156.617 170.34 157.568C169.584 158.419 168.799 159.229 167.943 160.003C165.906 158.356 163.87 156.708 161.738 155.155ZM170.246 161.827C169.696 161.396 169.159 160.958 168.622 160.521C169.616 159.963 170.504 159.189 171.289 158.315C173.379 160.024 175.459 161.76 177.504 163.506C178.242 164.128 178.99 164.754 179.741 165.37C178.991 166.202 178.11 166.894 176.996 167.369C174.743 165.521 172.512 163.638 170.246 161.827ZM186.488 174.442C183.266 172.399 180.255 170.048 177.301 167.622C178.524 167.353 179.562 166.757 180.457 165.964C181.466 166.784 182.481 167.586 183.525 168.366C183.398 168.46 183.283 168.547 183.156 168.641C183.086 168.691 183.142 168.806 183.218 168.768C183.377 168.675 183.542 168.594 183.698 168.509C185.355 169.752 187.05 170.945 188.787 172.047C188.286 173.048 187.719 173.996 186.847 174.659C186.718 174.573 186.602 174.512 186.488 174.442ZM188.538 164.986C189.976 167.983 191.566 170.936 192.899 173.992C193.206 174.699 193.797 175.631 193.756 176.43C193.653 178.276 192.054 177.328 191.187 176.957C189.813 176.371 188.509 175.672 187.241 174.9C187.8 174.594 188.223 174.189 188.674 173.519C188.911 173.167 189.154 172.796 189.369 172.415C189.93 172.754 190.48 173.091 191.047 173.411C191.223 173.514 191.387 173.253 191.214 173.141C190.66 172.782 190.122 172.408 189.587 172.024C189.883 171.438 190.125 170.824 190.218 170.211C190.252 169.958 189.86 169.867 189.757 170.074C189.494 170.566 189.263 171.089 189.015 171.596C187.503 170.455 186.058 169.211 184.625 167.992C185.331 167.567 185.964 167.075 186.482 166.302C187.077 165.427 187.54 164.476 187.832 163.466C188.056 163.955 188.293 164.469 188.538 164.986ZM187.232 162.193C187.029 162.726 186.854 163.269 186.666 163.817C186.075 162.918 185.129 162.193 184.283 161.544C184.057 161.372 183.834 161.19 183.611 161.008C183.879 160.317 184.099 159.61 184.282 158.922C184.353 158.651 183.978 158.481 183.831 158.726C183.488 159.264 183.171 159.821 182.869 160.395C182.021 159.692 181.176 158.981 180.305 158.313C179.836 157.952 179.362 157.61 178.89 157.258C179.166 156.761 179.416 156.244 179.648 155.689C180.335 154.053 181.325 151.993 181.643 150.073C183.535 154.091 185.347 158.156 187.232 162.193ZM171.837 131.31C172.755 132.86 173.622 134.436 174.479 136.008C175.973 138.748 177.365 141.539 178.782 144.317C177.322 142.993 175.469 142.106 173.878 140.949C173.853 140.93 173.818 140.971 173.84 140.999C175.297 142.301 176.836 143.673 178.478 144.742C178.661 144.857 178.877 144.688 178.875 144.507C179.028 144.803 179.177 145.107 179.33 145.403C179.913 146.543 180.479 147.698 181.042 148.863C180.728 149.443 180.458 150.048 180.222 150.675C179.247 149.57 178.012 148.609 176.785 147.745C177.011 146.713 177.203 145.658 177.353 144.6C177.377 144.439 177.13 144.418 177.082 144.56C176.768 145.478 176.476 146.393 176.175 147.304C175.886 147.099 175.603 146.908 175.323 146.706C174.461 146.105 173.602 145.494 172.74 144.893C172.867 144.524 172.974 144.148 173.078 143.751C173.13 143.568 172.91 143.44 172.763 143.559C172.509 143.778 172.282 144.102 172.093 144.439C170.985 143.659 169.885 142.891 168.777 142.111C169.286 140.964 170.106 139.987 170.508 138.782C170.621 138.451 170.164 138.305 169.985 138.55C169.269 139.499 168.946 140.816 168.586 141.961C168.501 141.9 168.406 141.836 168.322 141.775C168.281 141.74 168.214 141.812 168.264 141.851C168.361 141.937 168.453 142.01 168.55 142.097C168.534 142.144 168.521 142.182 168.505 142.229C168.459 142.361 168.661 142.42 168.716 142.291C168.719 142.281 168.722 142.272 168.729 142.253C169.778 143.14 170.818 144.024 171.858 144.908C171.765 145.088 171.681 145.271 171.595 145.431C171.383 145.834 171.133 146.225 170.918 146.637C170.899 146.599 170.877 146.57 170.859 146.532C169.956 145.029 168.7 143.976 167.329 142.947C166.373 142.219 165.313 141.518 164.714 140.425C164.293 139.647 164.214 138.859 164.233 138.063C165.449 138.616 166.722 139.252 167.585 137.719C167.912 137.133 167.94 136.403 168.915 136.673C169.823 136.92 170.508 138.38 171.018 139.115C171.468 139.776 171.901 140.579 172.648 140.93C172.903 141.049 173.317 141.043 173.456 140.731C174.177 139.054 173.542 137.389 172.709 135.867C172.201 134.943 171.651 134.142 170.958 133.355C169.525 131.735 169.467 130.33 169.881 128.347C169.907 128.208 169.943 128.073 169.969 127.934C170.622 129.024 171.194 130.223 171.837 131.31ZM166.13 120.185C167.272 121.79 168.367 123.38 168.439 125.424C168.505 127.084 168.053 128.716 168.236 130.374C168.41 131.966 169.121 132.917 170.168 134.058C171.256 135.233 172.832 137.611 172.599 139.434C171.815 138.637 171.329 137.277 170.611 136.502C170.056 135.9 169.165 135.014 168.318 134.926C167.708 134.854 167.241 135.139 166.867 135.613C166.452 136.148 166.49 136.964 165.519 136.991C165.304 137.002 164.727 136.741 164.311 136.567C164.308 136.545 164.314 136.526 164.312 136.504C164.571 132.471 161.008 129.075 157.823 127.077C156.186 126.053 154.449 125.353 152.665 125.07C153.149 121.738 154.451 118.177 157.354 116.242C159.188 115.02 161.057 115.395 162.957 116.33C164.551 117.108 165.161 118.817 166.13 120.185Z" fill="#F2CABB"/>
<g clip-path="url(#clip0_462_2750)">
<path d="M181.231 -5.68775C179.653 -5.39939 178.114 -4.71948 176.86 -3.7232C175.416 -2.57535 174.308 -1.30894 173.36 0.286608C173.126 0.680371 172.886 1.38869 172.514 1.6713C172.081 2.00267 171.799 1.80087 171.326 1.57115C170.292 1.06235 169.266 0.533045 168.271 -0.063021C167.446 -0.565022 166.663 -1.12447 165.843 -1.63175C165.444 -1.88105 165.023 -2.23374 164.513 -2.09208C163.493 -1.80877 163.633 0.352092 163.678 1.14235C163.755 2.53407 164.601 3.29907 165.777 3.91374C166.612 4.35022 167.509 4.66311 168.389 5.00705C168.992 5.23862 169.819 5.46116 170.443 5.79613C170.261 5.99209 170.008 6.24736 169.932 6.39673C169.763 6.72652 169.671 7.07648 169.618 7.43389C169.507 7.80497 169.453 8.21734 169.407 8.68405C169.346 9.29639 169.294 9.90811 169.263 10.5186C169.243 10.7642 169.238 11.0039 169.239 11.2483C169.229 11.8873 169.243 12.5199 169.308 13.1592C169.601 16.0836 170.616 18.9877 172.216 21.4412C172.508 21.8868 173.043 22.781 173.721 22.4493C174.031 22.3002 174.147 21.9238 174.177 21.5378C175.101 22.672 176.449 23.645 177.499 24.3175C179.514 25.5978 181.9 26.1915 184.219 26.6598C189.443 27.7192 194.682 27.2714 199.676 25.4723C201.798 24.706 204.485 23.9592 205.908 22.0795C207.216 20.3417 207.173 17.7408 206.726 15.7138C205.678 10.9115 202.324 6.74235 198.752 3.53455C196.511 1.52021 194.165 -0.248196 191.53 -1.70915C189.365 -2.91524 187.045 -3.95704 184.605 -4.37282C184.816 -4.50575 185.006 -4.65731 185.169 -4.84208C185.341 -5.03742 185.236 -5.37493 185.043 -5.5075C184.119 -6.16288 182.252 -5.86642 181.231 -5.68775ZM195.307 2.36372C198.748 5.07098 202.092 8.29309 203.998 12.2836C205.014 14.4096 205.841 16.5474 205.578 18.953C205.429 20.3239 205.017 21.3871 203.819 22.1704C202.932 22.7496 201.939 23.2158 200.956 23.6066C198.863 24.4359 196.744 25.242 194.512 25.6012C192.186 25.9713 189.909 26.1588 187.544 25.9877C184.934 25.807 182.171 25.2568 179.733 24.3073C178.526 23.8342 177.434 23.2093 176.402 22.421C175.706 21.891 174.799 21.2695 174.122 20.5687C173.88 18.8631 173.579 17.236 173.644 15.4913C173.675 14.7112 173.726 13.93 173.787 13.1481C174.099 13.6772 174.45 14.1839 174.763 14.6481C175.489 15.7199 176.564 17.6825 178.031 17.7652C178.377 17.7885 178.635 17.5279 178.679 17.2009C178.903 15.6058 178.004 13.9114 177.43 12.4661C177.087 11.6097 176.749 10.758 176.436 9.88984C176.387 9.74328 176.238 9.36851 176.084 8.97914C176.77 9.48985 177.493 9.96827 178.192 10.4532C179.141 11.1219 180.107 11.9742 181.304 12.0538C181.71 12.0833 181.962 11.7234 181.924 11.3517C181.806 10.2618 180.654 9.31145 179.935 8.58338C179.599 8.2403 176.869 6.14187 176.937 5.9481C177.017 5.71862 178.628 5.71252 178.861 5.69292C179.661 5.63786 180.462 5.61261 181.259 5.59264C182.25 5.5655 183.616 5.79418 184.551 5.43636C184.921 5.29347 184.935 4.71405 184.613 4.51474C183.483 3.8274 182.207 3.44345 180.967 3.00733C180.289 2.76552 179.596 2.53955 178.918 2.29775C178.632 2.19593 178.298 2.1171 177.978 2.02243C179.055 1.53604 180.188 1.15582 181.295 0.752328C182.636 0.264343 184.143 0.120077 185.422 -0.488692C185.799 -0.671942 185.803 -1.32558 185.362 -1.44259C184.181 -1.75265 182.901 -1.80217 181.686 -1.91567C180.848 -1.99785 179.88 -1.84744 179 -1.89204C179.853 -2.60385 181.339 -3.08596 182.161 -3.42173C182.486 -3.55684 182.844 -3.66401 183.211 -3.78174C187.515 -2.51009 191.781 -0.418063 195.307 2.36372ZM182.6 -4.52659C181.827 -4.21381 181.053 -3.91096 180.302 -3.54974C179.44 -3.13664 178.223 -2.67134 177.718 -1.81177C177.578 -1.56862 177.641 -1.20346 177.945 -1.12277C178.854 -0.865462 179.936 -1.03793 180.879 -0.947381C181.597 -0.877604 182.358 -0.825532 183.116 -0.748307C182.356 -0.536132 181.59 -0.348484 180.879 -0.0745219C179.477 0.472158 178.007 0.968234 176.656 1.62638C176.337 1.78603 176.325 2.22572 176.601 2.42286C177.442 3.0236 178.731 3.29701 179.7 3.64528C180.548 3.95135 181.452 4.22387 182.312 4.56905C182.112 4.56163 181.927 4.55823 181.778 4.56757C180.893 4.61301 180.008 4.65846 179.126 4.74365C178.198 4.82667 176.219 4.75115 175.753 5.7579C175.687 5.90664 175.748 6.07245 175.835 6.19665C176.502 7.13246 177.604 7.84154 178.427 8.64287C178.894 9.09244 179.727 9.79845 180.266 10.5178C179.61 10.1649 178.984 9.64049 178.432 9.27601C177.474 8.63771 176.454 8.03823 175.606 7.24342C175.347 6.99535 174.988 7.00782 174.762 7.29631C174.498 7.62704 174.591 7.90556 174.7 8.29276C174.938 9.15069 175.311 10.0151 175.614 10.864C176.176 12.4398 177.367 14.485 177.489 16.2829C176.683 15.6651 175.833 14.212 175.466 13.6813C174.857 12.7968 173.934 11.5977 174.003 10.4761C174.046 9.80008 172.999 9.73097 172.957 10.407C172.802 12.6362 172.546 14.9166 172.691 17.157C172.759 18.1652 172.862 19.1762 173.064 20.1612C173.128 20.3965 173.183 20.6325 173.228 20.8691C173.291 21.6383 173.254 21.6805 173.127 21.0051C172.843 20.6139 172.586 20.1811 172.35 19.757C171.282 17.8387 170.663 15.5932 170.283 13.4373C170.142 12.6182 170.091 11.8034 170.075 10.9815C170.188 10.2462 170.352 9.51766 170.506 8.77986C170.697 7.86009 170.801 7.20023 171.381 6.43567C171.616 6.12668 171.722 6.06022 171.797 5.66648C171.839 5.46929 171.691 5.25413 171.545 5.1436C170.563 4.43699 169.023 4.1394 167.886 3.74674C167.096 3.47203 166.211 3.2082 165.518 2.72792C164.642 2.12439 164.532 1.47294 164.544 0.469664C164.549 -0.154162 164.363 -1.3046 165.239 -1.01034C165.906 -0.787781 166.589 -0.0823753 167.172 0.310043C168.536 1.22217 169.986 2.00418 171.431 2.77159C172.247 3.20931 172.65 3.19902 173.259 2.48755C174.369 1.18605 174.917 -0.499187 176.178 -1.70538C177.294 -2.76779 178.55 -3.65944 179.991 -4.21855C180.717 -4.49841 181.488 -4.69134 182.266 -4.76502C182.514 -4.79052 183.078 -4.8558 183.587 -4.85772C183.245 -4.74652 182.878 -4.63872 182.6 -4.52659Z" fill="#F2CABB"/>
<path d="M181.942 18.5954C181.755 18.6271 181.534 18.7706 181.435 18.9364C181.312 19.1286 181.29 19.3246 181.314 19.5525C181.344 19.8698 181.57 20.135 181.852 20.252C182.024 20.4507 182.277 20.5895 182.532 20.5985C183.047 20.6211 183.453 20.1717 183.356 19.664C183.31 19.4075 183.171 19.1719 182.98 18.9943C182.694 18.7229 182.357 18.5295 181.942 18.5954Z" fill="#F2CABB"/>
<path d="M184.65 15.3093C184.391 15.5599 184.281 15.9508 184.452 16.2893C184.651 16.6808 185.009 16.9127 185.441 16.9555C185.792 16.9934 186.267 16.8489 186.441 16.5139C186.588 16.2303 186.591 15.9608 186.39 15.6991C186.336 15.6326 186.293 15.5854 186.21 15.5308C186.168 15.5035 186.122 15.4814 186.081 15.464C186.015 15.3784 185.936 15.2986 185.857 15.2386C185.493 14.9921 184.979 14.9894 184.65 15.3093Z" fill="#F2CABB"/>
<path d="M187.703 10.6984C187.193 10.9249 187.106 11.7583 187.613 12.0458C187.633 12.0545 187.654 12.0631 187.675 12.0818C187.708 12.374 187.918 12.6152 188.243 12.6298C188.568 12.6443 188.878 12.4204 189.057 12.1648C189.317 11.7844 189.231 11.286 188.907 10.9722C188.578 10.6536 188.129 10.5021 187.703 10.6984Z" fill="#F2CABB"/>
<path d="M189.303 4.57203C189.155 4.60124 189.03 4.66895 188.916 4.76584C188.803 4.86274 188.725 4.98229 188.675 5.12514C188.581 5.39033 188.629 5.75145 188.837 5.96289C188.88 6.01008 188.932 6.04671 188.984 6.08335C189.003 6.147 189.032 6.21003 189.081 6.27182C189.446 6.6978 190.055 6.45522 190.334 6.06362C190.536 5.78165 190.596 5.38387 190.436 5.06468C190.328 4.84702 190.117 4.67068 189.883 4.59556C189.71 4.53658 189.484 4.51581 189.303 4.57203Z" fill="#F2CABB"/>
<path d="M192.488 8.81538C192.333 8.82006 192.204 8.82815 192.062 8.87195C191.803 8.96296 191.635 9.14308 191.526 9.3943C191.417 9.64552 191.494 9.99484 191.681 10.1976C191.642 10.1352 191.604 10.0827 191.565 10.0203C191.594 10.0833 191.633 10.1457 191.681 10.1976C191.761 10.2774 191.84 10.3373 191.943 10.3907C192.128 10.4888 192.298 10.4881 192.507 10.4751C192.228 10.4925 192.403 10.4965 192.533 10.4984C192.591 10.5397 192.648 10.5809 192.719 10.6064C193.227 10.829 193.807 10.4485 193.832 9.89829C193.855 9.38314 193.463 9.01865 193.005 8.86779C192.832 8.81875 192.656 8.8048 192.488 8.81538Z" fill="#F2CABB"/>
<path d="M191.322 15.1688C190.674 15.1695 189.965 15.568 190.098 16.3229C190.215 16.9988 191.151 17.4589 191.752 17.0971C191.896 17.0083 191.994 16.8974 192.061 16.7785C192.283 16.7396 192.466 16.6284 192.555 16.3785C192.653 16.108 192.57 15.8288 192.383 15.6162C192.124 15.3131 191.716 15.1691 191.322 15.1688Z" fill="#F2CABB"/>
<path d="M186.621 20.8922C186.337 21.3739 186.513 21.9514 187.04 22.1628C187.101 22.1889 187.167 22.1997 187.237 22.2053C187.469 22.2506 187.697 22.2164 187.925 22.1273C188.008 22.0971 188.079 22.0378 188.135 21.9645C188.154 21.9534 188.183 21.9316 188.23 21.8888C188.448 21.7155 188.564 21.4139 188.507 21.1382C188.426 20.7293 188.071 20.3874 187.646 20.3791C187.252 20.3689 186.828 20.5401 186.621 20.8922Z" fill="#F2CABB"/>
<path d="M193.011 19.7795C192.458 19.874 192.139 20.5125 192.39 21.0155C192.435 21.1024 192.495 21.1735 192.564 21.244C192.559 21.5585 192.767 21.7799 193.069 21.8209C193.2 21.8426 193.321 21.8649 193.455 21.8515C193.499 21.8438 193.55 21.8506 193.594 21.8428C193.628 21.8357 193.623 21.831 193.609 21.8369C193.723 21.8248 193.817 21.8139 193.933 21.7568C194.446 21.5052 194.612 20.9012 194.361 20.3982C194.116 19.8999 193.544 19.6863 193.011 19.7795Z" fill="#F2CABB"/>
<path d="M196.207 15.476C196.069 15.749 196.08 16.1523 196.313 16.3771C196.372 16.4383 196.44 16.4988 196.504 16.5547C196.514 16.564 196.524 16.5634 196.535 16.5727C196.537 16.6125 196.545 16.6569 196.553 16.7013C196.613 16.8671 196.812 17.0242 196.998 16.9627C197.066 16.9384 197.135 16.9142 197.204 16.8999C197.489 16.917 197.753 16.7458 197.854 16.4502C197.952 16.1797 197.872 15.8556 197.725 15.5854C197.68 15.4237 197.576 15.2756 197.436 15.1896C197.275 15.0949 197.154 15.0626 196.972 15.0341C196.674 14.968 196.34 15.2183 196.207 15.476Z" fill="#F2CABB"/>
<path d="M196.517 9.07448C196.178 9.39498 196.186 9.85329 196.385 10.2448C196.562 10.5879 196.956 10.7478 197.317 10.6254C197.342 10.6189 197.361 10.6077 197.38 10.5965C197.447 10.6273 197.508 10.6533 197.589 10.6682C197.847 10.7169 198.063 10.5887 198.206 10.4051C198.305 10.3141 198.388 10.2092 198.449 10.0558C198.553 9.80984 198.477 9.48039 198.301 9.28696C198.15 9.11682 197.989 9.00226 197.77 8.93118C197.612 8.87624 197.434 8.83248 197.269 8.8179C197.013 8.799 196.705 8.89312 196.517 9.07448Z" fill="#F2CABB"/>
<path d="M199.449 19.1986C199.137 19.2331 198.859 19.5796 198.844 19.8849C198.842 20.0147 198.87 20.1426 198.922 20.2541C198.896 20.3155 198.889 20.3758 198.894 20.4453C198.908 20.6739 199.095 20.8766 199.33 20.8868C199.475 20.8927 199.63 20.888 199.778 20.8688C199.803 20.8623 199.873 20.8678 199.803 20.8623C199.723 20.8573 199.813 20.8616 199.832 20.8604C199.932 20.8542 200.027 20.8532 200.119 20.8225C200.506 20.7035 200.685 20.3731 200.566 19.9964C200.566 19.9964 200.566 19.9865 200.565 19.9766C200.561 19.917 200.527 19.8393 200.503 19.781C200.462 19.6887 200.407 19.6024 200.342 19.5267C200.261 19.427 200.157 19.3537 200.039 19.2963C199.847 19.1836 199.662 19.1703 199.449 19.1986Z" fill="#F2CABB"/>
<path d="M200.81 13.538C200.513 13.6514 200.356 14.0203 200.374 14.3084C200.386 14.4972 200.479 14.7108 200.628 14.8512C200.529 15.0269 200.513 15.2474 200.609 15.4359C200.784 15.7591 201.135 15.8618 201.47 15.7261C201.918 15.5385 202.254 15.1782 202.277 14.673C202.286 14.4181 202.24 14.1616 202.112 13.9452C201.967 13.695 201.756 13.5087 201.468 13.4519C201.235 13.4066 201.034 13.4541 200.81 13.538Z" fill="#F2CABB"/>
<path d="M185.011 7.79384C185.031 8.02704 185.118 8.21613 185.292 8.36981C185.514 8.56541 185.74 8.59612 186.023 8.57342C186.102 8.56844 186.165 8.53955 186.223 8.50601C186.597 8.42275 186.916 8.01873 186.798 7.64209C186.672 7.23098 186.353 6.91181 185.907 6.88485C185.401 6.85169 184.98 7.28708 185.011 7.79384Z" fill="#F2CABB"/>
<path d="M181.215 13.9866C181.135 14.3856 181.356 14.8805 181.776 14.9888C181.878 15.0124 181.974 15.0413 182.076 15.0649C182.076 15.0649 182.076 15.0649 182.081 15.0695C182.04 15.0621 182 15.0546 181.96 15.0472C182.03 15.0627 182.097 15.0835 182.163 15.1142C182.143 15.1055 182.122 15.0968 182.107 15.0829C182.204 15.1316 182.296 15.1658 182.427 15.1775C182.452 15.181 182.472 15.1797 182.492 15.1785C182.466 15.1751 182.446 15.1664 182.421 15.1629C182.784 15.23 183.066 15.0278 183.22 14.7039C183.538 14.0456 182.762 13.2862 182.124 13.2862C181.69 13.2885 181.307 13.5419 181.215 13.9866Z" fill="#F2CABB"/>
</g>
<path d="M377.355 130.244C376.624 130.461 375.924 130.677 375.22 130.985C374.445 131.326 373.625 131.603 372.879 131.992C372.24 132.328 371.733 132.865 371.059 133.139C371.037 133.144 371.022 133.161 371 133.165C370.2 133.137 369.197 133.747 368.611 134.004C366.241 135.076 363.901 136.425 361.966 138.194C361.932 138.091 361.87 138.013 361.762 137.952C360.381 137.271 358.284 137.909 356.897 138.333C354.643 139.012 352.506 139.991 350.313 140.831C346.12 142.449 342.553 145.011 338.964 147.619C338.423 147.588 337.802 147.742 337.371 147.844C332.621 148.991 328.202 150.869 323.881 153.156C321.842 154.234 319.892 155.481 317.855 156.549C316.178 157.434 314.31 157.989 312.6 158.803C309.838 158.869 307.395 159.756 304.752 160.537C301.987 161.347 299.098 161.886 296.476 163.129C294.791 163.929 292.985 165.639 293.777 167.705C294.589 169.808 296.643 169.252 298.335 168.774C301.899 167.764 305.514 167.027 309.126 166.226C310.438 166.081 311.756 165.918 313.058 165.657C315.826 165.106 318.525 164.423 321.227 163.616C322.478 163.237 323.717 162.825 324.927 162.332C325.777 161.98 326.849 161.844 327.523 161.186C327.775 160.943 327.795 160.596 327.66 160.291C327.608 160.173 327.523 160.068 327.42 159.988C328.244 159.464 329.03 158.888 329.796 158.276C331.427 157.792 333.103 157.373 334.739 156.87C337.237 156.091 339.714 155.235 342.274 154.649C344.546 154.13 346.717 153.409 348.853 152.512C349.963 152.044 352.411 151.718 352.411 150.175C352.411 150.02 352.375 149.886 352.302 149.773C352.853 149.61 353.397 149.394 353.885 149.235C355.591 148.668 357.319 148.211 359.014 147.641C362.543 146.456 366.158 145.563 369.561 144.034C370.539 143.592 375.878 141.413 374.808 139.572C374.622 139.263 374.28 139.109 373.896 139.037C374.759 138.523 375.555 137.95 376.234 137.543C377.283 136.913 379.085 135.792 379.519 134.563C379.877 133.54 378.92 133.325 378.154 133.44C378.066 133.458 377.971 133.464 377.874 133.479C379.149 132.279 380.609 130.507 378.892 129.921C378.417 129.762 377.782 130.12 377.355 130.244ZM332.192 156.217C333.794 154.763 335.341 153.242 337.007 151.898C337.735 151.307 339.833 150.089 340.038 148.902C341.484 149.031 342.944 149.03 344.392 149.191C345.498 149.312 346.569 149.414 347.661 149.624C348.331 149.752 349.5 149.756 350.293 150.082C349.682 150.312 348.822 150.547 348.575 150.657C347.548 151.126 346.536 151.579 345.476 151.978C343.372 152.759 341.174 153.152 339.056 153.867C336.873 154.596 334.424 155.232 332.192 156.217ZM320.416 159.888C320.751 159.916 323.702 160.108 325.302 160.434C325.287 160.451 325.272 160.467 325.25 160.472C325.223 160.496 325.206 160.522 325.191 160.539C325.169 160.543 325.135 160.555 325.113 160.559C324.517 160.772 323.937 161.082 323.346 161.317C322.12 161.795 320.861 162.203 319.598 162.588C317.071 163.359 314.551 164.028 311.987 164.634C311.512 164.744 311.03 164.843 310.553 164.922C309.796 165.039 309.04 165.157 308.284 165.275C307.058 165.443 305.833 165.611 304.625 165.866C302.025 166.41 299.496 167.191 296.976 168.015C296.925 168.012 296.874 168.009 296.833 168.008C296.334 168.206 296.046 167.89 295.961 167.049C295.137 166.455 295.086 165.913 295.827 165.429C296.241 165.043 296.804 164.801 297.312 164.565C298.376 164.074 299.515 163.727 300.625 163.373C302.723 162.694 304.872 162.132 306.924 161.317C308.546 160.676 310.059 160.129 311.691 159.874C311.77 159.926 311.857 159.95 311.969 159.918C312.181 159.861 312.381 159.811 312.591 159.764C312.877 159.737 313.161 159.72 313.453 159.716C315.757 159.693 318.111 159.683 320.416 159.888ZM338.141 148.641C338.148 148.653 338.152 148.675 338.15 148.685C338.12 148.718 338.078 148.759 337.999 148.82C336.627 150.036 335.217 151.2 333.868 152.443C331.331 154.795 328.907 157.229 326.325 159.518C325.091 159.29 323.398 159.426 322.674 159.345C320.46 159.071 318.216 158.945 315.968 158.869C316.278 158.756 316.579 158.64 316.887 158.495C318.68 157.641 320.285 156.56 321.998 155.581C323.612 154.658 325.29 153.731 326.98 152.953C328.824 152.102 330.488 150.996 332.4 150.277C333.366 149.916 334.331 149.564 335.342 149.308C336.041 149.133 336.859 149.135 337.505 148.926C337.68 148.89 338.014 148.689 338.141 148.641ZM360.659 138.629C359.756 139.598 358.566 140.407 357.573 141.249C356.557 142.104 355.588 143.014 354.597 143.887C352.821 145.45 351.127 147.169 349.33 148.695C347.997 148.492 346.603 148.439 345.37 148.325C343.65 148.174 341.901 147.942 340.17 147.871C340.514 147.591 340.866 147.323 341.232 147.079C342.064 146.526 342.999 146.166 343.869 145.665C345.672 144.617 347.516 143.611 349.374 142.67C351.244 141.723 353.217 140.814 355.174 140.045C356.397 139.576 359.034 138.317 360.659 138.629ZM377.883 131.555C377.507 132.262 376.943 132.897 376.593 133.622C375.431 133.744 374.262 133.896 373.263 134.415C372.72 134.704 373.082 135.474 373.647 135.377C374.856 135.153 376.047 135.152 377.267 134.89C377.311 134.881 377.547 134.851 377.81 134.797C377.75 134.864 377.708 134.905 377.723 134.888C376.106 136.669 373.728 137.812 371.661 139.11C370.338 139.252 369.004 139.401 367.687 139.565C368.017 137.986 364.295 138.622 363.535 139.06C363.278 139.209 363.277 139.674 363.611 139.743C364.466 139.911 365.305 139.681 366.173 139.686C366.319 139.684 366.464 139.681 366.605 139.698C366.498 139.711 366.384 139.712 366.277 139.724C365.949 140.019 365.655 140.303 365.307 140.561C364.781 140.938 364.277 141.31 363.775 141.713C363.448 141.967 363.104 142.206 362.801 142.487C362.555 142.711 362.37 143.013 362.116 143.225C361.963 143.37 362.079 143.671 362.34 143.627C363.362 143.445 364.301 142.61 365.145 142.05C365.886 141.566 366.745 141.103 367.294 140.37C368.472 140.304 369.652 140.227 370.818 140.126C370.861 140.158 370.917 140.184 370.982 140.17C371.276 140.156 371.583 140.093 371.897 140.002C372.493 139.903 373.58 139.75 373.436 140.249C373.353 140.517 372.257 140.937 372.042 141.045C369.327 142.438 366.387 143.44 363.445 144.213C360.772 144.914 357.997 145.918 355.413 146.902C354.202 147.363 352.116 148.035 350.944 149.046C350.809 149.01 350.676 148.964 350.541 148.927C352.417 147.919 354.053 146.298 355.636 144.953C357.409 143.441 359.643 141.908 361.115 139.974C362.711 139.005 364.258 137.95 365.868 137.005C366.826 136.445 367.825 135.926 368.802 135.412C369.184 135.224 369.814 134.845 370.245 134.743C370.673 134.651 370.831 134.487 370.737 134.875C370.422 135.277 370.06 135.625 369.718 136.01C369.394 136.368 369.058 136.733 368.748 137.116C368.56 137.355 368.312 137.89 368.036 138.033C367.916 138.094 367.888 138.314 368.025 138.382C368.875 138.765 369.925 137.515 370.494 137.016C371.087 136.502 372.645 135.253 372.04 134.345C372.046 134.243 372.053 134.142 372.038 134.044C372.326 133.894 372.565 133.699 372.869 133.491C373.533 133.027 374.303 132.779 375.049 132.471C375.769 132.178 376.457 131.856 377.2 131.672C377.368 131.624 377.633 131.602 377.883 131.555Z" fill="#FFE6DD"/>
</g>
<defs>
<clipPath id="clip0_462_2750">
<rect width="31.1796" height="47.1671" fill="white" transform="translate(156 7.38281) rotate(-48.5834)"/>
</clipPath>
</defs>
</svg>
