<svg width="21" height="20" viewBox="0 0 21 20" fill="none" xmlns="http://www.w3.org/2000/svg">
<g clip-path="url(#clip0_0_223)">
<path d="M19.3841 8.75H11.6304V1.25C11.6304 0.559648 11.0519 0 10.3382 0C9.62447 0 9.04589 0.559648 9.04589 1.25V8.75H1.29227C0.578574 8.75 0 9.30965 0 10C0 10.6904 0.578574 11.25 1.29227 11.25H9.04589V18.75C9.04589 19.4404 9.62447 20 10.3382 20C11.0519 20 11.6304 19.4404 11.6304 18.75V11.25H19.3841C20.0978 11.25 20.6763 10.6904 20.6763 10C20.6763 9.30965 20.0978 8.75 19.3841 8.75Z" fill="white"/>
</g>
<defs>
<clipPath id="clip0_0_223">
<rect width="20.6763" height="20" fill="white"/>
</clipPath>
</defs>
</svg>
