<svg width="20" height="20" viewBox="0 0 20 20" fill="none" xmlns="http://www.w3.org/2000/svg">
<path fill-rule="evenodd" clip-rule="evenodd" d="M17.5 10.0026C17.5 10.4628 17.1492 10.8359 16.7164 10.8359L3.28358 10.8359C2.85082 10.8359 2.5 10.4628 2.5 10.0026C2.5 9.54237 2.85082 9.16927 3.28358 9.16927L16.7164 9.16927C17.1492 9.16927 17.5 9.54237 17.5 10.0026Z" fill="black"/>
<path fill-rule="evenodd" clip-rule="evenodd" d="M9.9987 2.5C10.4589 2.5 10.832 2.85082 10.832 3.28358V16.7164C10.832 17.1492 10.4589 17.5 9.9987 17.5C9.53846 17.5 9.16537 17.1492 9.16537 16.7164V3.28358C9.16537 2.85082 9.53846 2.5 9.9987 2.5Z" fill="black"/>
</svg>
