<svg width="24" height="24" viewBox="0 0 24 24" fill="none" xmlns="http://www.w3.org/2000/svg">
<path d="M12.25 12C13.3378 12 14.4012 11.6774 15.3056 11.0731C16.2101 10.4687 16.9151 9.60976 17.3313 8.60476C17.7476 7.59977 17.8565 6.4939 17.6443 5.42701C17.4321 4.36011 16.9083 3.3801 16.1391 2.61092C15.3699 1.84173 14.3899 1.3179 13.323 1.10568C12.2561 0.893465 11.1502 1.00238 10.1452 1.41867C9.14025 1.83495 8.28126 2.5399 7.67692 3.44437C7.07257 4.34884 6.75 5.41221 6.75 6.5C6.75146 7.95825 7.33139 9.35635 8.36252 10.3875C9.39366 11.4186 10.7918 11.9985 12.25 12ZM12.25 2.83334C12.9752 2.83334 13.6841 3.04838 14.2871 3.45128C14.8901 3.85418 15.36 4.42683 15.6376 5.09683C15.9151 5.76683 15.9877 6.50407 15.8462 7.21533C15.7047 7.9266 15.3555 8.57994 14.8427 9.09273C14.3299 9.60552 13.6766 9.95474 12.9653 10.0962C12.2541 10.2377 11.5168 10.1651 10.8468 9.88756C10.1768 9.61004 9.60418 9.14007 9.20128 8.53709C8.79838 7.93411 8.58333 7.2252 8.58333 6.5C8.58333 5.52754 8.96964 4.59491 9.65727 3.90728C10.3449 3.21964 11.2775 2.83334 12.25 2.83334Z" fill="black"/>
<path d="M12.25 13.8359C10.0627 13.8384 7.9657 14.7083 6.41905 16.255C4.8724 17.8016 4.00243 19.8986 4 22.0859C4 22.3291 4.09658 22.5622 4.26849 22.7341C4.44039 22.906 4.67355 23.0026 4.91667 23.0026C5.15978 23.0026 5.39294 22.906 5.56485 22.7341C5.73676 22.5622 5.83333 22.3291 5.83333 22.0859C5.83333 20.3841 6.50937 18.752 7.71273 17.5487C8.91609 16.3453 10.5482 15.6693 12.25 15.6693C13.9518 15.6693 15.5839 16.3453 16.7873 17.5487C17.9906 18.752 18.6667 20.3841 18.6667 22.0859C18.6667 22.3291 18.7632 22.5622 18.9352 22.7341C19.1071 22.906 19.3402 23.0026 19.5833 23.0026C19.8264 23.0026 20.0596 22.906 20.2315 22.7341C20.4034 22.5622 20.5 22.3291 20.5 22.0859C20.4976 19.8986 19.6276 17.8016 18.081 16.255C16.5343 14.7083 14.4373 13.8384 12.25 13.8359Z" fill="black"/>
</svg>
