<svg width="24" height="24" viewBox="0 0 24 24" fill="none" xmlns="http://www.w3.org/2000/svg">
<path d="M11.9985 2C14.3344 2 15.0536 3.34721 15.2051 4.64302C15.2775 5.26214 16.3974 5.93158 16.9775 5.70341C18.1296 5.25025 19.5657 5.22903 20.6587 7C21.7231 9.02485 20.6656 10.3803 19.585 11.1632C19.1181 11.5015 19.1181 12.4985 19.585 12.8368C20.6656 13.6197 21.7231 14.9751 20.6587 17C19.5657 18.771 18.1296 18.7497 16.9775 18.2966C16.3974 18.0684 15.2775 18.7379 15.2051 19.357C15.0536 20.6528 14.3344 22 11.9985 22C9.66265 22 8.94345 20.6528 8.79195 19.357C8.71956 18.7379 7.5996 18.0684 7.01952 18.2966C5.8674 18.7497 4.43132 18.771 3.33824 17C2.39339 15.2025 3.12073 13.9325 4.05188 13.1223C4.51604 12.7184 4.43841 11.4663 3.93731 11.1093C2.9049 10.3737 2.1096 9.10049 3.33824 7C4.39054 5.20101 5.70699 5.09638 6.80544 5.48925C7.40901 5.70512 8.71842 4.97007 8.8381 4.34033C9.06513 3.14576 9.84436 2 11.9985 2Z" stroke="black" stroke-width="1.4"/>
<circle cx="12" cy="12" r="2.3" stroke="black" stroke-width="1.4"/>
</svg>
