<svg width="24" height="24" viewBox="0 0 24 24" fill="none" xmlns="http://www.w3.org/2000/svg">
<path d="M20.4791 23H3.52089C2.13028 23 1 21.8697 1 20.4791V3.52089C1 2.13028 2.13028 1 3.52089 1H20.4791C21.8697 1 23 2.13028 23 3.52089V20.4791C23 21.8697 21.8697 23 20.4791 23ZM3.52089 2.375C2.88928 2.375 2.375 2.88928 2.375 3.52089V20.4791C2.375 21.1107 2.88928 21.625 3.52089 21.625H20.4791C21.1107 21.625 21.625 21.1107 21.625 20.4791V3.52089C21.625 2.88928 21.1107 2.375 20.4791 2.375H3.52089Z" fill="black"/>
<path d="M14.2916 20C13.5868 20 12.9708 19.519 12.7563 18.8043L9.01266 5.62518C8.98967 5.54563 8.90994 5.45455 8.79161 5.45455C8.67345 5.45455 8.59372 5.54563 8.56703 5.63583L7.09485 10.8326C6.76218 11.968 5.79135 12.7273 4.67584 12.7273H1.6875C1.308 12.7273 1 12.4015 1 12C1 11.5985 1.308 11.2727 1.6875 11.2727H4.67584C5.18459 11.2727 5.62737 10.9256 5.77859 10.4077L7.25262 5.20632C7.47083 4.481 8.08682 4 8.79161 4C9.49657 4 10.1126 4.481 10.3271 5.19567L14.0707 18.3748C14.0937 18.4544 14.1734 18.5455 14.2916 18.5455C14.4017 18.5455 14.4677 18.4776 14.4952 18.4135L16.8446 12.8485C17.246 11.8924 18.1517 11.2727 19.1499 11.2727H22.3125C22.692 11.2727 23 11.5985 23 12C23 12.4015 22.692 12.7273 22.3125 12.7273H19.1499C18.6944 12.7273 18.2828 13.0075 18.1004 13.44L15.7529 18.9973C15.5072 19.6025 14.9324 20 14.2916 20Z" fill="black"/>
</svg>
