<svg width="24" height="24" viewBox="0 0 24 24" fill="none" xmlns="http://www.w3.org/2000/svg">
<path d="M5.5 6H15.6C17.8498 6 18.9748 6 19.7634 6.57295C20.018 6.75799 20.242 6.98196 20.4271 7.23664C21 8.02524 21 9.15016 21 11.4V11.6C21 13.8498 21 14.9748 20.4271 15.7634C20.242 16.018 20.018 16.242 19.7634 16.4271C18.9748 17 17.8498 17 15.6 17H11.6462C9.63971 17 8.63646 17 7.88911 16.5122C7.64655 16.3538 7.4282 16.1612 7.24086 15.9403C6.66364 15.2596 6.53854 14.2642 6.28836 12.2733L5.5 6Z" stroke="white" stroke-width="1.4"/>
<path d="M2 3.3C1.6134 3.3 1.3 3.6134 1.3 4C1.3 4.3866 1.6134 4.7 2 4.7V3.3ZM6.60024 6.13985L5.39155 4.12536L4.19106 4.84565L5.39976 6.86015L6.60024 6.13985ZM3.93381 3.3H2V4.7H3.93381V3.3ZM5.39155 4.12536C5.08432 3.61331 4.53096 3.3 3.93381 3.3V4.7C4.03919 4.7 4.13684 4.75529 4.19106 4.84565L5.39155 4.12536Z" fill="white"/>
<circle cx="17.5" cy="19.5" r="1" fill="white"/>
<circle cx="10.5" cy="19.5" r="1" fill="white"/>
<line x1="17.3" y1="10.7" x2="14.7" y2="10.7" stroke="white" stroke-width="1.4" stroke-linecap="round" stroke-linejoin="round"/>
<circle cx="18" cy="18" r="4" fill="white"/>
<path d="M20 18H18.2667H16" stroke="black" stroke-width="0.4" stroke-linecap="round"/>
<path d="M18 16L18 18L18 20" stroke="black" stroke-width="0.4" stroke-linecap="round"/>
</svg>
