<svg width="40" height="40" viewBox="0 0 40 40" fill="none" xmlns="http://www.w3.org/2000/svg">
<g clip-path="url(#clip0_540_13768)">
<path fill-rule="evenodd" clip-rule="evenodd" d="M19.9587 28.9477C22.0728 30.8481 24.9119 32.0009 28 32.0009C34.6321 32.0009 40 26.7237 40 20.2331C40 13.7227 34.6321 8.44531 28 8.44531C24.9119 8.44531 22.0728 9.59779 19.9587 11.4984C17.5338 13.6618 16 16.7756 16 20.2331C16.0002 23.6905 17.5338 26.8046 19.9587 28.9477Z" fill="#E9B040"/>
<path fill-rule="evenodd" clip-rule="evenodd" d="M38.2227 27.0963C38.2227 26.856 38.415 26.6641 38.6552 26.6641C38.9195 26.6641 39.1115 26.8563 39.1115 27.0963C39.1115 27.361 38.9192 27.553 38.6552 27.553C38.415 27.553 38.2227 27.361 38.2227 27.0963ZM38.6552 27.4571C38.8476 27.4571 39.0154 27.2886 39.0154 27.0966C39.0154 26.9047 38.8473 26.7605 38.6552 26.7605C38.4866 26.7605 38.3188 26.9047 38.3188 27.0966C38.3188 27.2886 38.4869 27.4571 38.6552 27.4571ZM38.6071 27.3129H38.5109V26.9044H38.679C38.7033 26.9044 38.7514 26.9044 38.7752 26.9287C38.8233 26.9524 38.8233 26.9768 38.8233 27.0248C38.8233 27.0729 38.7995 27.1209 38.7514 27.1209L38.8476 27.3132H38.7271L38.679 27.1447H38.6071V27.3129V27.0726H38.7033C38.7271 27.0726 38.7271 27.0483 38.7271 27.0245C38.7271 27.0002 38.7271 27.0002 38.7033 26.9765H38.6071V27.3129Z" fill="#E9B040"/>
<path fill-rule="evenodd" clip-rule="evenodd" d="M23.9378 18.9797C23.8963 18.5552 23.8134 18.1509 23.7304 17.7261H16.3936C16.4765 17.3015 16.6009 16.8972 16.7251 16.4927H23.3782C23.2338 16.067 23.0678 15.6487 22.8808 15.2391H17.2434C17.4508 14.8108 17.6791 14.3924 17.9274 13.9855H22.1764C21.903 13.5536 21.5983 13.1415 21.2646 12.7521H18.8395C19.2146 12.3051 19.6233 11.8861 20.0623 11.4984C17.9277 9.61802 15.1088 8.44531 12 8.44531C5.38859 8.44531 0 13.7227 0 20.2331C0 26.7237 5.38859 32.0009 12 32.0009C15.1088 32.0009 17.9274 30.8481 20.0623 28.9477C20.4945 28.5668 20.8964 28.1544 21.2646 27.7141H18.8395C18.5077 27.3098 18.2177 26.9055 17.9274 26.4605H22.1764C22.4436 26.0607 22.6791 25.6416 22.8811 25.2069H17.2434C17.0568 24.8026 16.8705 24.3982 16.7251 23.9732H23.3782C23.5231 23.5689 23.627 23.1446 23.7302 22.7196C23.8131 22.3153 23.8961 21.891 23.9375 21.466C23.9796 21.0561 24.0004 20.6443 24 20.2324C24 19.8085 23.9793 19.384 23.9378 18.9797Z" fill="#CC2131"/>
<path fill-rule="evenodd" clip-rule="evenodd" d="M38.2227 23.1082C38.2227 22.851 38.415 22.6641 38.6552 22.6641C38.9195 22.6641 39.1115 22.8513 39.1115 23.1082C39.1115 23.3423 38.9192 23.5529 38.6552 23.5529C38.415 23.5529 38.2227 23.342 38.2227 23.1082ZM38.6552 23.4356C38.8476 23.4356 39.0154 23.2952 39.0154 23.1082C39.0154 22.9213 38.8473 22.7808 38.6552 22.7808C38.4866 22.7808 38.3188 22.9213 38.3188 23.1082C38.3188 23.2952 38.4869 23.4356 38.6552 23.4356ZM38.6071 23.2952H38.5109V22.921H38.7752C38.8233 22.9447 38.8233 22.9915 38.8233 23.0383C38.8233 23.0614 38.7995 23.1082 38.7514 23.1319L38.8476 23.2955H38.7271L38.679 23.155H38.6071V23.2952V23.0848H38.6552C38.679 23.0848 38.7033 23.0848 38.7033 23.0611C38.7271 23.0611 38.7271 23.038 38.7271 23.0143C38.7271 23.0143 38.7271 22.9912 38.7033 22.9912C38.7033 22.9675 38.679 22.9912 38.6552 22.9912H38.6071V23.2952Z" fill="white"/>
<path fill-rule="evenodd" clip-rule="evenodd" d="M15.9058 23.8288C15.5172 23.9372 15.2307 24.0026 14.9444 24.0026C14.3307 24.0026 13.9623 23.5899 13.9623 22.8515C13.9623 22.6997 13.9828 22.5477 14.0033 22.3739L14.0851 21.8748L14.1465 21.462L14.6988 17.901H15.9262L15.783 18.6828H16.5604L16.3762 19.9856H15.5988L15.2716 22.1135C15.2511 22.2223 15.2511 22.2872 15.2511 22.3307C15.2511 22.6131 15.3739 22.7215 15.6807 22.7215C15.8239 22.7215 15.9465 22.7 16.0692 22.678L15.9058 23.8288ZM19.8745 23.7854C19.4245 23.9157 19.0155 23.9806 18.5652 23.9806C17.1741 23.9806 16.3762 23.1988 16.3762 21.6575C16.3762 19.855 17.3174 18.5522 18.6264 18.5522C19.6696 18.5522 20.3447 19.2905 20.3447 20.4411C20.3447 20.8323 20.3038 21.2014 20.2017 21.7225H17.6446C17.6241 21.8093 17.6241 21.8528 17.6241 21.8962C17.6241 22.5042 18.0127 22.8081 18.7492 22.8081C19.2196 22.8081 19.6287 22.6997 20.0789 22.4828L19.8745 23.7854ZM19.1175 20.6803V20.4196C19.1175 19.9854 18.8924 19.7464 18.5038 19.7464C18.0945 19.7464 17.8083 20.072 17.6855 20.68H19.1175V20.6803ZM6.08652 23.8937H4.81818L5.55467 18.9649L3.89775 23.8937H3.01824L2.91592 18.9866L2.1385 23.8937H0.890625L1.89292 17.4883H3.75449L3.79542 21.4406L5.04329 17.4883H7.08905L6.08652 23.8937ZM9.17574 21.5706C9.05295 21.5487 9.01202 21.5487 8.93016 21.5487C8.19367 21.5487 7.82554 21.8525 7.82554 22.3304C7.82554 22.6563 8.00973 22.8735 8.29599 22.8735C8.9097 22.8735 9.15504 22.3304 9.17574 21.5706ZM10.1985 23.8937H9.09388L9.11434 23.3512C8.82784 23.7634 8.43925 23.9806 7.76415 23.9806C7.15045 23.9806 6.6186 23.3946 6.6186 22.5477C6.6186 22.309 6.65953 22.092 6.72093 21.8748C6.92533 21.071 7.68229 20.5719 8.8483 20.5499C8.99156 20.5499 9.21643 20.5499 9.42108 20.5719C9.46177 20.3981 9.46177 20.3327 9.46177 20.2243C9.46177 19.8768 9.19596 19.7681 8.60272 19.7681C8.2346 19.7681 7.8253 19.8333 7.53904 19.9419L7.35485 19.9854L7.27299 20.0068L7.45718 18.8343C8.05042 18.6388 8.47994 18.5522 8.95063 18.5522C10.0552 18.5522 10.6485 19.095 10.6485 20.0937C10.6485 20.3544 10.6689 20.5499 10.5871 21.1145L10.3008 22.9819L10.2599 23.3077L10.2394 23.5684L10.219 23.7422L10.1985 23.8937ZM26.0525 18.726C26.4206 18.726 26.748 18.8346 27.198 19.0733L27.4229 17.6835C27.3001 17.6183 27.2592 17.6183 27.0957 17.5532L26.5845 17.4011C26.4208 17.3577 26.2164 17.3359 25.9911 17.3359C25.3567 17.3359 24.9885 17.3577 24.6002 17.5966C24.3955 17.7487 24.1295 17.9442 23.843 18.2915L23.6793 18.248L22.37 19.2251L22.4316 18.6823H21.0812L20.2838 23.8935H21.5728L22.043 21.0927C22.043 21.0927 22.2275 20.7015 22.3091 20.5716C22.5547 20.2458 22.7591 20.2458 23.0249 20.2458H23.1274C23.0845 20.5767 23.0639 20.9105 23.0658 21.2445C23.0658 22.9382 23.9658 24.0023 25.3569 24.0023C25.7048 24.0023 26.012 23.9589 26.4822 23.8286L26.7076 22.3522C26.2985 22.5909 25.9302 22.6995 25.6232 22.6995C24.8665 22.6995 24.416 22.0915 24.416 21.1362C24.4155 19.7247 25.0909 18.726 26.0525 18.726ZM36.9145 17.4883L36.6284 19.3122C36.3215 18.8128 35.9531 18.5739 35.4622 18.5739C34.7868 18.5739 34.1529 18.9864 33.7641 19.7681V19.7467L32.946 19.2253L33.0278 18.6825H31.6572L30.8797 23.8937H32.1481L32.5778 21.093C32.5778 21.093 32.905 20.7017 32.9869 20.5719C33.1915 20.3112 33.396 20.2675 33.5597 20.2461C33.4167 20.6803 33.3348 21.2014 33.3348 21.7879C33.3348 23.0907 33.9687 23.9592 34.9096 23.9592C35.3803 23.9592 35.7484 23.7854 36.0961 23.3726L36.0349 23.8937H37.2421L38.224 17.4883H36.9145ZM35.3396 22.6563C34.9099 22.6563 34.685 22.309 34.685 21.6356C34.685 20.6148 35.0941 19.8768 35.687 19.8768C36.137 19.8768 36.3624 20.2461 36.3624 20.8975C36.3624 21.9397 35.9533 22.6563 35.3396 22.6563ZM29.4279 21.5706C29.3052 21.5487 29.2642 21.5487 29.1824 21.5487C28.4454 21.5487 28.0773 21.8525 28.0773 22.3304C28.0773 22.6563 28.2617 22.8735 28.548 22.8735C29.1617 22.8735 29.4072 22.3304 29.4279 21.5706ZM30.4507 23.8937H29.3254L29.3663 23.3512C29.08 23.7634 28.691 23.9806 28.0164 23.9806C27.3819 23.9806 26.8299 23.4161 26.8299 22.5477C26.8299 21.3102 27.7091 20.5502 29.1003 20.5502C29.2438 20.5502 29.4684 20.5502 29.6528 20.5722C29.6937 20.3984 29.7145 20.3329 29.7145 20.2246C29.7145 19.877 29.4484 19.7684 28.8347 19.7684C28.4868 19.7684 28.0573 19.8336 27.771 19.9422L27.6073 19.9856L27.5254 20.0071L27.7094 18.8346C28.3029 18.6391 28.7326 18.5524 29.2028 18.5524C30.3075 18.5524 30.8802 19.0952 30.8802 20.094C30.8802 20.3547 30.9212 20.5502 30.8191 21.1147L30.553 22.9821L30.5121 23.308L30.4712 23.5687L30.4509 23.7424V23.8937H30.4507ZM12.8782 19.7899C13.1238 19.7899 13.4714 19.8116 13.8398 19.8768L14.024 18.6608C13.6556 18.6173 13.1647 18.5522 12.8782 18.5522C11.4464 18.5522 10.9759 19.3774 10.9759 20.3327C10.9759 20.9627 11.2417 21.4183 11.9373 21.7656C12.4487 22.0263 12.5305 22.0695 12.5305 22.3087C12.5305 22.6341 12.2647 22.8298 11.7736 22.8298C11.385 22.8298 11.0166 22.7644 10.6076 22.6126L10.4643 23.8066L10.4845 23.8286L10.7301 23.872C10.812 23.8935 10.9143 23.9155 11.0575 23.9369C11.3643 23.9589 11.6303 23.9804 11.794 23.9804C13.2261 23.9804 13.8193 23.3944 13.8193 22.2433C13.8193 21.5269 13.4919 21.0927 12.8577 20.7889C12.3054 20.5279 12.244 20.485 12.244 20.2458C12.244 20.0071 12.4896 19.7899 12.8782 19.7899Z" fill="#1B3771"/>
<path fill-rule="evenodd" clip-rule="evenodd" d="M27.867 17.2162L27.6413 18.606C27.1905 18.3671 26.8626 18.2587 26.4938 18.2587C25.5306 18.2587 24.8547 19.2575 24.8547 20.669C24.8547 21.6464 25.3054 22.2324 26.0638 22.2324C26.3708 22.2324 26.7398 22.124 27.1495 21.907L26.9243 23.3615C26.4528 23.4919 26.1456 23.5573 25.7971 23.5573C24.4039 23.5573 23.5432 22.4931 23.5432 20.7779C23.5432 18.4977 24.7317 16.8906 26.4323 16.8906C26.6576 16.8906 26.8623 16.9123 27.0263 16.9558L27.5388 17.0861C27.703 17.1513 27.744 17.173 27.867 17.2162ZM23.7277 18.1718H23.6047C23.1748 18.1718 22.9288 18.3891 22.5393 19.0185L22.6623 18.215H21.4941L20.6954 23.4267H21.9866C22.4576 20.2346 22.5805 19.6917 23.1953 19.6917H23.2773C23.4002 19.062 23.564 18.6058 23.769 18.1933L23.7277 18.1718ZM16.3104 23.3615C15.9622 23.4919 15.6752 23.5353 15.3885 23.5353C14.7328 23.5353 14.3638 23.1445 14.3638 22.3847C14.3638 22.2544 14.3843 22.0808 14.4048 21.9285L14.4868 21.4074L14.5483 20.9952L15.1015 17.4335H16.3719L16.2284 18.2153H16.8841L16.7201 19.4965H16.0644L15.7162 21.6681C15.6957 21.755 15.6957 21.8204 15.6957 21.8853C15.6957 22.146 15.8187 22.2546 16.1259 22.2546C16.2694 22.2546 16.3922 22.2546 16.4742 22.2112L16.3104 23.3615ZM11.3722 19.8655C11.3722 20.5172 11.6589 20.9729 12.3351 21.3205C12.8679 21.5812 12.9499 21.6678 12.9499 21.8851C12.9499 22.2109 12.7244 22.3627 12.2122 22.3627C11.8229 22.3627 11.4745 22.2978 11.0647 22.1675L10.8802 23.3615L10.9417 23.3835L11.1672 23.4269C11.249 23.4484 11.3517 23.4704 11.5154 23.4704C11.8022 23.5138 12.0482 23.5138 12.2122 23.5138C13.5643 23.5138 14.1998 22.9707 14.1998 21.7767C14.1998 21.0598 13.9335 20.6471 13.2983 20.3217C12.7451 20.061 12.6836 19.9961 12.6836 19.7571C12.6836 19.475 12.9091 19.3447 13.3188 19.3447C13.5648 19.3447 13.9131 19.3664 14.241 19.4098L14.4253 18.2155C14.0975 18.1504 13.5853 18.1069 13.2983 18.1069C11.8639 18.1066 11.3517 18.9102 11.3722 19.8655ZM37.6819 23.4269H36.4727L36.5345 22.9273C36.186 23.3181 35.817 23.4919 35.3456 23.4919C34.4031 23.4919 33.7884 22.6454 33.7884 21.3425C33.7884 19.6051 34.7516 18.1284 35.8783 18.1284C36.3908 18.1284 36.7595 18.3673 37.1082 18.845L37.3949 17.021H38.6654L37.6819 23.4269ZM35.7965 22.2109C36.391 22.2109 36.8007 21.4726 36.8007 20.4518C36.8007 19.7786 36.575 19.431 36.1243 19.431C35.5506 19.431 35.1206 20.1477 35.1206 21.1684C35.1206 21.8636 35.3458 22.2109 35.7965 22.2109ZM20.2444 23.3181C19.7935 23.4704 19.3837 23.5353 18.9125 23.5353C17.4781 23.5353 16.7404 22.732 16.7404 21.1902C16.7404 19.4096 17.6831 18.0849 18.974 18.0849C20.0395 18.0849 20.7154 18.8233 20.7154 19.9741C20.7154 20.3652 20.6744 20.7345 20.5514 21.2771H18.0111C17.9906 21.3425 17.9906 21.3859 17.9906 21.4294C17.9906 22.0374 18.38 22.3413 19.1175 22.3413C19.5887 22.3413 19.9985 22.2544 20.4494 22.0154L20.2444 23.3181ZM19.5272 20.2128V19.9524C19.5272 19.5182 19.3017 19.2792 18.9125 19.2792C18.5028 19.2792 18.2158 19.6051 18.0928 20.2128H19.5272ZM6.47499 23.4269H5.20456L5.94227 18.4974L4.28261 23.4269H3.40142L3.29892 18.5409L2.52046 23.4269H1.33203L2.33598 17.021H4.18012L4.24161 20.9949L5.4708 17.021H7.47893L6.47499 23.4269ZM9.65105 21.1033C9.52806 21.1033 9.46656 21.0818 9.36407 21.0818C8.64686 21.0818 8.27813 21.3639 8.27813 21.8851C8.27813 22.2109 8.44212 22.4062 8.72886 22.4062C9.26158 22.4062 9.63055 21.8851 9.65105 21.1033ZM10.5935 23.4269H9.52782L9.54832 22.8839C9.22034 23.3181 8.79011 23.5138 8.1959 23.5138C7.49919 23.5138 7.02796 22.9493 7.02796 22.1023C7.02796 20.8214 7.84742 20.083 9.28184 20.083C9.42532 20.083 9.60981 20.1047 9.81456 20.1262C9.85555 19.9527 9.85555 19.8875 9.85555 19.8006C9.85555 19.4533 9.63007 19.3229 9.03585 19.3229C8.66712 19.3229 8.25715 19.3664 7.97041 19.4533L7.78593 19.5184L7.66293 19.5402L7.84742 18.3676C8.48264 18.1721 8.91286 18.1069 9.38433 18.1069C10.4908 18.1069 11.085 18.628 11.085 19.6268C11.085 19.8875 11.0645 20.083 10.9825 20.6693L10.6955 22.5153L10.6545 22.8407L10.634 23.1013L10.6135 23.2971L10.5935 23.4269ZM29.9366 21.1033C29.7929 21.1033 29.7316 21.0818 29.6499 21.0818C28.9122 21.0818 28.543 21.3639 28.543 21.8851C28.543 22.2109 28.7277 22.4062 29.0144 22.4062C29.5269 22.4062 29.9159 21.8851 29.9366 21.1033ZM30.8791 23.4269H29.8136L29.8339 22.8839C29.5061 23.3181 29.0759 23.5138 28.4817 23.5138C27.785 23.5138 27.3135 22.9493 27.3135 22.1023C27.3135 20.8214 28.133 20.083 29.5674 20.083C29.7111 20.083 29.8956 20.1047 30.0799 20.1262C30.1209 19.9527 30.1416 19.8875 30.1416 19.8006C30.1416 19.4533 29.9159 19.3229 29.3221 19.3229C28.9529 19.3229 28.5229 19.3664 28.236 19.4533L28.072 19.5184L27.949 19.5402L28.1332 18.3676C28.7687 18.1721 29.1987 18.1069 29.6701 18.1069C30.7766 18.1069 31.3503 18.628 31.3503 19.6268C31.3503 19.8875 31.3503 20.083 31.248 20.6693L30.9816 22.5153L30.9406 22.8407L30.8996 23.1013L30.8793 23.2971V23.4269H30.8791ZM34.3214 18.1718H34.1984C33.7684 18.1718 33.5224 18.3891 33.1329 19.0185L33.2559 18.215H32.0878L31.309 23.4267H32.5795C33.0509 20.2346 33.1739 19.6917 33.7886 19.6917H33.8706C33.9936 19.062 34.1574 18.6058 34.3624 18.1933L34.3214 18.1718Z" fill="white"/>
</g>
<defs>
<clipPath id="clip0_540_13768">
<rect width="40" height="40" fill="white"/>
</clipPath>
</defs>
</svg>
