<svg width="24" height="24" viewBox="0 0 24 24" fill="none" xmlns="http://www.w3.org/2000/svg">
<path d="M15.4415 3.37663C15.8384 2.90429 16.4866 2.79195 16.9783 3.08539C17.6282 3.47331 18.3417 3.93461 18.8314 4.34605C19.3122 4.75007 19.8644 5.34741 20.3372 5.89953C20.7049 6.32891 20.7047 6.97982 20.31 7.44964L10.1551 19.5355C9.81407 19.9414 9.35152 20.2114 8.84448 20.2955C8.12252 20.4153 7.15442 20.5603 6.32231 20.6326C5.90397 20.6689 5.54024 20.685 5.26736 20.6743C5.18527 20.6711 5.11842 20.6657 5.06553 20.6593C5.05008 20.6083 5.03323 20.5434 5.01592 20.4631C4.95838 20.1961 4.91152 19.8351 4.87521 19.4167C4.80298 18.5846 4.77899 17.606 4.77257 16.8742C4.76806 16.3602 4.95426 15.8581 5.29529 15.4522L15.4415 3.37663ZM4.9398 20.6354C4.93991 20.6353 4.94203 20.636 4.94584 20.6375C4.94159 20.6362 4.93968 20.6354 4.9398 20.6354ZM5.10762 20.7734C5.10979 20.7769 5.11079 20.7789 5.11074 20.779C5.1107 20.7791 5.10962 20.7774 5.10762 20.7734Z" stroke="black" stroke-width="1.4"/>
<path d="M14.0117 5.73438C14.0117 5.73438 15.1828 7.41599 16.2049 8.08892C17.227 8.76186 18.4993 9.50159 18.4993 9.50159" stroke="black" stroke-width="1.4" stroke-linecap="round"/>
</svg>
