<svg width="232" height="117" viewBox="0 0 232 117" fill="none" xmlns="http://www.w3.org/2000/svg">
<mask id="mask0_540_10331" style="mask-type:alpha" maskUnits="userSpaceOnUse" x="-156" y="0" width="388" height="117">
<rect x="-156" width="388" height="117" rx="16" fill="#E6F1DB"/>
</mask>
<g mask="url(#mask0_540_10331)">
<g opacity="0.2">
<path d="M40.9623 5.26318C39.9592 5.10206 38.9458 4.96693 37.9427 4.80581C37.5373 4.74344 37.0799 4.64469 36.633 4.63429C36.6641 4.44719 36.6018 4.24968 36.3939 4.17172C35.2557 3.74555 33.9148 3.64162 32.7194 3.41294C31.3265 3.14788 29.9232 2.98676 28.5304 2.72689C25.7706 2.20716 22.9848 1.79658 20.2095 1.3652C15.1889 0.585605 10.1631 -0.0848483 5.11652 -0.682538C3.89515 -0.828063 2.62183 -0.978808 1.39526 -0.999598C0.766392 -1.00999 0.0907516 -0.82289 0.00759502 -0.0900702C-0.0859566 0.705117 0.781994 1.43794 1.27574 1.93169C2.03454 2.69049 2.90249 3.257 3.74446 3.91706C7.48651 6.84834 11.187 9.8316 15.007 12.6693C16.3895 13.6984 17.7823 14.7118 19.1752 15.7305C19.3208 15.8864 19.4715 16.0372 19.6222 16.1931C20.3706 16.9519 21.197 17.6015 21.9974 18.298C23.7956 19.8572 25.8642 21.0058 27.5637 22.6689C27.6832 22.7885 27.8599 22.8145 28.021 22.7729C28.2445 23.1107 28.5512 23.4121 28.8058 23.7188C29.3515 24.3788 29.8297 25.174 30.443 25.7717C31.0614 26.3746 31.9294 26.0784 32.2932 25.3975C32.4439 25.5326 32.5895 25.673 32.7402 25.8133C33.2599 26.3122 34.0811 27.3621 34.8555 26.8735C35.3284 26.5721 35.713 26.0887 36.1236 25.7041C36.4511 25.3975 37.0072 25.0597 37.1787 24.6231C37.2462 24.4516 37.2255 24.3217 37.1059 24.1761C36.8097 23.8175 36.3263 23.6408 35.9573 23.3498C36.2328 23.012 36.477 22.6221 36.6953 22.2895C36.8876 22.5338 37.1787 22.7001 37.4333 22.8924C37.7608 23.1471 38.1194 23.4901 38.556 23.5213C38.821 23.5369 39.0289 23.4433 39.1848 23.2354C39.4863 22.8352 39.6838 22.3467 39.9852 21.9361C40.3386 21.4631 41.2014 20.4549 40.9103 19.8208C40.7388 19.4518 40.1567 19.3323 39.8345 19.1815C39.4343 18.9944 38.873 18.8125 38.5248 18.5111C38.7067 18.1421 38.8626 17.7627 39.1537 17.4248C39.2056 17.3625 39.2524 17.3053 39.2992 17.2482C39.2992 17.2482 39.3044 17.2482 39.3044 17.2534C39.5746 17.3157 39.9488 17.7107 40.2087 17.8458C40.4738 17.981 40.8532 18.3136 41.165 18.3344C41.4509 18.3552 41.5912 18.1785 41.7211 17.9602C41.981 17.5288 42.2045 17.0974 42.4955 16.6868C42.8125 16.2295 43.2543 15.585 42.6047 15.2108C42.2097 14.9821 41.7211 14.8834 41.3053 14.6807C40.8272 14.4468 40.3542 14.2077 39.8865 13.953C40.0684 13.7815 40.3179 13.5737 40.5257 13.345C40.9935 13.5425 41.4664 13.7348 41.9238 13.953C42.3604 14.1609 42.8178 14.4988 43.3167 14.5144C44.1223 14.5404 44.4289 13.3762 44.7563 12.7941C45.0058 12.3471 45.9985 11.1985 45.4268 10.6476C45.2345 10.4605 44.9175 10.4761 44.668 10.4137C44.2418 10.3149 43.8 10.1798 43.3739 10.0343C43.5246 9.66009 43.7273 9.32227 43.8884 8.93247C43.9768 8.72458 44.0339 8.57383 43.9456 8.35555C43.7585 7.90338 43.0101 7.72668 42.3864 7.61234C42.6151 7.07701 42.9737 6.34422 42.6254 5.85047C42.298 5.35153 41.4613 5.34114 40.9623 5.26318ZM42.6047 9.94075C42.4643 10.0447 42.3968 10.2214 42.5111 10.3721C42.5059 10.3929 42.5007 10.4085 42.4955 10.4293C42.4124 10.6944 42.6047 10.606 42.3604 10.6684C42.2513 10.6943 41.9186 10.5592 41.7991 10.5332C41.3885 10.4449 40.9831 10.3409 40.5777 10.2214C39.6838 9.95113 38.8106 9.65487 37.9323 9.33264C36.1392 8.67258 34.2578 8.31397 32.4387 7.73707C32.4335 7.73187 32.4284 7.73189 32.418 7.72669L32.4231 7.72149C33.0624 7.16018 33.7433 6.70282 34.4345 6.26105C36.4615 6.79117 38.5456 7.08222 40.5153 7.82024C41.2274 8.0853 42.2253 8.17885 42.8697 8.55825C43.192 8.74535 43.1192 8.53227 42.9997 8.92727C42.9425 9.12477 42.8022 9.30666 42.7242 9.49896C42.6618 9.63929 42.6307 9.79003 42.6047 9.94075ZM41.981 13.163C41.6328 13.0019 41.2326 12.872 40.8428 12.872C40.9259 12.6901 40.9519 12.5082 40.8792 12.3263C40.5985 11.6558 39.242 11.3544 38.6495 11.0841C37.1319 10.3981 35.713 9.58733 34.2838 8.77136C35.9625 9.37944 37.6308 10.0187 39.3252 10.5904C40.2867 10.9178 41.4041 11.344 42.4176 11.4376C42.9685 11.4895 43.088 11.2037 43.1712 10.7671C43.6285 10.949 44.1535 11.0582 44.59 11.1465C44.6212 11.1517 44.7667 11.1621 44.8707 11.1777C44.8031 11.2141 44.7355 11.3284 44.72 11.3544C44.4653 11.739 44.2834 12.1808 44.0807 12.5914C43.9716 12.8096 43.6233 13.8075 43.4102 13.8699C43.0776 13.9739 42.2668 13.2982 41.981 13.163ZM38.9354 13.9167C38.8314 14.0466 38.5456 14.6131 38.4364 14.6443C38.2077 14.7119 37.5269 13.9271 37.3138 13.7555C36.6589 13.2358 35.9781 12.7369 35.2713 12.2847C34.3981 11.7286 33.499 11.2089 32.6103 10.6788C32.418 10.5644 30.9783 9.76923 30.5261 9.60811C30.9523 9.11957 31.4045 8.65181 31.867 8.21524C33.6289 9.13516 35.2817 10.211 37.0851 11.0686C37.9479 11.4791 38.8418 11.8534 39.6786 12.3107C40.2191 12.607 40.084 12.6693 39.6786 13.1059C39.4343 13.3813 39.164 13.6256 38.9354 13.9167ZM36.2692 14.8106C34.9179 14.2337 33.551 13.6672 32.236 13.0123C31.5344 12.6641 30.8328 12.3419 30.1259 12.0041C29.9025 11.8949 29.4243 11.7442 29.0865 11.5675C29.4243 11.0062 29.8245 10.4605 30.2507 9.93555C32.0074 11.4947 34.237 12.4926 36.1288 13.8751C36.5862 14.2129 37.028 14.5612 37.4697 14.9146C37.714 15.1069 38.031 15.3979 38.3533 15.4291C38.9042 15.4759 39.1588 14.9665 39.4291 14.5092C40.1204 14.873 40.8272 15.2316 41.56 15.4967C41.7159 15.5538 41.8926 15.5798 42.0434 15.6474C42.4591 15.8241 42.272 15.6734 42.2097 15.9124C42.1473 16.1515 41.8147 16.4478 41.6691 16.6609C41.6068 16.7492 41.2378 17.482 41.113 17.6068C41.1702 17.5236 40.5777 17.2949 40.505 17.2637C40.1983 17.1442 39.8345 16.9259 39.4811 16.9259C39.6006 16.6505 39.5642 16.3906 39.1952 16.1047C38.4052 15.4759 37.1891 15.2056 36.2692 14.8106ZM33.92 16.6297C32.7922 16.1775 31.6903 15.7357 30.6093 15.1848C30.1571 14.9561 29.6946 14.7482 29.2268 14.5611C28.8578 14.4156 28.416 14.348 28.0418 14.1817C28.1925 13.5009 28.4212 12.8304 28.7487 12.1808C29.2372 12.4926 29.8817 12.7005 30.3026 12.8824C31.4668 13.3917 32.5947 13.9687 33.7537 14.4832C34.8399 14.9665 35.9313 15.4395 37.028 15.902C37.4333 16.0683 37.8387 16.2295 38.2389 16.401C38.7015 16.5985 38.8262 16.6764 38.4988 17.0974C38.2597 17.3989 38.057 17.6847 37.8855 18.0277C37.9895 17.8147 37.6256 18.4747 37.7244 18.5423C37.5737 18.5111 37.241 18.246 37.1423 18.1889C36.0872 17.6172 35.0322 17.0766 33.92 16.6297ZM37.4645 21.9101C37.319 21.8425 37.1839 21.7906 37.0435 21.7698C37.3398 21.3696 37.5529 21.0214 37.1215 20.5692C36.3159 19.7272 35.131 19.1244 34.1435 18.5319C32.8649 17.7679 31.6799 16.874 30.4897 15.9852C30.6145 16.0528 30.7392 16.1203 30.864 16.1827C32.0905 16.8116 33.4366 17.1962 34.6892 17.7627C35.3492 18.0641 35.9937 18.402 36.6382 18.7398C36.9396 18.8957 37.4178 19.2855 37.7764 19.2803C37.9791 19.2751 38.0726 19.2179 38.1506 19.114C38.1714 19.1244 38.187 19.14 38.2026 19.1504C38.6027 19.3998 39.0757 19.5713 39.5071 19.7584C40.0268 19.9819 40.4426 20.0183 40.0996 20.6316C39.8241 21.1201 39.5019 21.5359 39.164 21.9777C39.0497 22.1284 38.8314 22.6845 38.6859 22.7261C38.5352 22.7729 37.6724 22.0089 37.4645 21.9101ZM32.2412 21.1929C31.4876 20.4861 30.6665 19.8468 29.8505 19.2127C29.4243 18.8801 29.0137 18.5319 28.5823 18.1992C28.5668 18.1836 28.1354 17.8822 27.7975 17.6691C27.7508 16.77 27.7664 15.8709 27.8859 14.9925C29.4139 16.006 30.8224 17.191 32.366 18.1733C33.3015 18.7709 34.2994 19.2699 35.2193 19.8936C35.5935 20.1482 36.238 20.5328 36.5342 20.8966C36.7109 21.1097 36.7421 20.9226 36.4926 21.2449C36.0924 21.7594 35.6507 22.7053 35.0842 23.0639C34.2994 23.5681 32.7766 21.697 32.2412 21.1929ZM34.1539 26.0056C33.7381 25.7977 33.3431 25.3507 33.0156 25.0285C32.1009 24.1346 31.0667 23.4121 30.1259 22.5546C29.6426 22.1128 29.206 21.6295 28.7435 21.1669C28.5512 20.9746 28.3329 20.8135 28.1198 20.6524C28.0106 19.9092 27.9119 19.1556 27.8495 18.4071C28.6655 19.2335 29.5906 19.9611 30.4638 20.7095C31.4564 21.5671 32.3712 22.5026 33.3898 23.329C33.9408 23.7759 34.58 24.332 35.3025 23.9163C35.3492 23.8903 35.396 23.8539 35.4376 23.8227C35.7078 24.041 36.3731 24.3061 36.3991 24.5192C36.3835 24.3996 35.6507 25.0753 35.5623 25.1584C35.3128 25.3923 35.0894 25.6626 34.8191 25.8809C34.4293 26.1979 34.5385 26.1979 34.1539 26.0056ZM29.8661 23.9423C29.4295 23.4329 28.9358 22.6845 28.3589 22.2323C28.3277 21.9985 28.2913 21.7646 28.2549 21.5307C28.6343 21.9569 29.0085 22.3883 29.4139 22.7937C30.1415 23.5317 30.9471 24.1969 31.7319 24.883C31.3941 25.33 31.1862 25.5379 30.6509 24.9506C30.365 24.6439 30.1415 24.2645 29.8661 23.9423ZM17.4861 1.83294C17.6056 2.58135 17.6992 3.31939 17.8603 4.0626C18.0474 4.91496 18.2605 5.7621 18.4632 6.60926C18.905 8.47509 19.9028 10.1694 20.8436 11.8222C21.9402 13.7452 23.1979 15.5071 24.5077 17.2845C25.0014 17.9498 25.4536 18.6046 26.0201 19.2179C26.3683 19.5921 26.7425 19.9404 27.1011 20.299C27.1427 20.5744 27.1843 20.8551 27.2258 21.1305C26.545 20.5952 25.8278 20.1015 25.1053 19.6129C22.8393 17.7627 20.5421 15.954 18.2293 14.1662C17.9487 13.9115 17.6576 13.662 17.3562 13.4177C17.3094 13.3814 17.2574 13.371 17.2106 13.3814C16.5662 12.8824 15.9217 12.3886 15.2773 11.8949C11.8314 9.24948 8.38563 6.53131 5.12172 3.6676C4.35772 2.99715 3.51056 2.43062 2.75175 1.76537C2.34117 1.40676 1.93057 1.00139 1.57196 0.585604C1.23413 0.195807 1.00027 0.065868 1.61874 0.0918546C3.95233 0.195801 6.27032 0.538821 8.59351 0.7727C11.5664 1.07414 14.5288 1.42755 17.4861 1.83294ZM35.0738 4.73824C33.8784 5.50225 32.7142 6.23506 31.6124 7.19656C30.2871 8.35555 29.0137 9.75365 28.1094 11.2765C26.5606 13.8959 26.623 16.7596 26.9972 19.6129C26.9452 19.5557 26.8932 19.4934 26.836 19.431C26.2124 18.7138 25.6563 17.9758 25.1573 17.1754C24.0659 15.4343 22.8653 13.7867 21.8674 11.9833C20.8799 10.2006 19.7157 8.37634 19.1233 6.41176C18.6711 4.92013 18.4424 3.45451 18.2293 1.94209C19.6742 2.14479 21.119 2.36307 22.5587 2.59176C24.8507 2.96076 27.1271 3.34538 29.4139 3.74037C30.5729 3.93787 31.7319 4.11977 32.8805 4.35365C33.5717 4.49398 34.3513 4.57713 35.0738 4.73824ZM41.6743 6.14669C42.1369 6.41175 41.9446 6.65085 41.9082 7.11341C41.8978 7.26933 41.903 7.38887 41.9238 7.50321C41.8458 7.48762 41.7731 7.47202 41.7107 7.45642C40.5257 7.12899 39.3771 6.7132 38.1818 6.41176C37.2099 6.16749 36.2276 5.97 35.2557 5.74132C35.4948 5.5906 35.7286 5.43988 35.9677 5.28916C36.1652 5.40869 36.3887 5.41388 36.6538 5.43987C37.5581 5.53342 38.4468 5.66336 39.346 5.7777C40.006 5.86086 41.0922 5.81407 41.6743 6.14669Z" fill="#5E9920"/>
</g>
<path opacity="0.2" d="M146.631 111.731C147.741 108.928 147.968 105.7 147.439 102.788C147.169 101.28 146.63 99.7915 145.971 98.4098C145.814 98.0793 145.628 97.7747 145.429 97.4778C145.492 97.3795 145.533 97.2603 145.543 97.1178C145.761 90.1743 141.119 82.5959 135.522 78.7399C132.626 76.744 129.514 75.289 125.917 75.0097C121.854 74.6896 118.165 75.5417 114.433 77.1879C112.861 77.8823 111.364 78.6683 110.006 79.7272C108.494 80.9063 106.726 82.0705 105.446 83.5169C104.517 84.5709 104.039 85.6899 103.921 86.8204C103.842 87.167 103.778 87.5222 103.74 87.878C103.603 89.2508 103.825 90.6514 104.276 91.9379C105.257 94.727 107.121 97.3785 108.82 99.7727C112.297 104.692 116.381 109.282 120.68 113.503C124.518 117.272 128.83 121.126 134.689 121.093C140.093 121.063 144.769 116.442 146.631 111.731ZM110.131 80.5216C115.903 75.8384 125.359 74.0957 131.876 77.7478C135.487 79.7769 138.317 82.4112 140.583 85.8503C142.488 88.7415 143.999 92.3419 144.175 95.913C143.972 95.6956 143.763 95.482 143.549 95.2622C142.793 94.2817 141.945 93.3823 141.009 92.5968C141.332 91.9896 140.848 91.3548 140.545 90.7289C140.231 90.0843 140.673 89.4395 140.548 88.7307C140.434 88.0833 140.08 87.5906 139.532 87.2253C138.91 86.8111 138.101 86.81 137.623 86.1713C137.182 85.5784 136.964 85.0036 136.312 84.5561C135.767 84.1806 134.976 83.8354 134.349 83.9879C134.361 83.8781 134.373 83.7684 134.385 83.6586C134.468 82.9593 134.418 82.3585 133.788 81.9319C133.412 81.6751 132.306 81.5479 131.647 81.8219C131.642 81.7994 131.637 81.7768 131.63 81.7644C131.352 81.0208 130.494 80.8104 129.784 81.0301C129.303 81.1784 128.908 81.4371 128.587 81.7609C128.607 81.5779 128.614 81.4028 128.6 81.2495C128.502 80.3701 127.812 79.6992 127.02 79.3804C125.698 78.8558 124.392 79.6102 123.998 80.8232C122.452 78.0456 118.639 79.2125 117.204 81.5988C117.183 81.637 117.172 81.6775 117.172 81.7203C116.594 81.5357 116.238 81.2836 115.656 81.0071C114.644 80.5153 113.321 80.6228 112.316 81.1507C111.811 81.4166 111.281 81.8165 110.94 82.2805C110.984 82.2368 110.54 82.9774 110.566 83.021C110.47 83.0368 110.011 82.8736 109.786 82.8228C108.797 82.5987 107.918 82.7425 107.163 83.118C108.073 82.1614 109.177 81.2915 110.131 80.5216ZM120.656 80.2429C121.745 79.9537 123.073 80.244 123.629 81.2702C124.166 82.2653 123.463 83.2151 123.299 84.1855C122.943 86.2375 122.981 89.0648 124.023 90.9297C123.397 91.2006 122.773 91.4878 122.155 91.7711C122.443 91.322 122.645 90.8319 122.679 90.4698C122.733 89.882 122.504 89.2621 122.302 88.7286C121.95 87.7914 120.985 86.9461 120.813 86.0015C120.578 84.6942 120.672 83.5528 119.468 82.6745C118.992 82.3254 118.426 82.0902 117.855 81.918C118.863 81.5247 119.554 80.5398 120.656 80.2429ZM123.816 84.9027C123.858 83.7762 124.409 82.7061 124.255 81.6477C124.262 81.6438 124.262 81.6438 124.264 81.6337C124.469 81.2354 124.578 80.8366 124.907 80.4987C125.535 79.8425 126.355 79.7603 127.09 80.2162C127.476 80.4589 127.858 80.8831 127.865 81.3563C127.871 81.6257 127.688 81.9593 127.62 82.2225C127.554 82.4593 127.488 82.6962 127.448 82.9337C127.167 82.7468 126.797 82.6309 126.318 82.608C125.051 82.562 124.214 83.7979 123.816 84.9027ZM124.352 89.1502C124.329 88.3788 124.29 87.609 124.338 86.8375C124.387 85.9966 124.615 84.7139 125.285 84.0833C125.663 83.7243 126.479 83.4911 126.996 83.7475C127.495 83.9892 127.513 84.9847 127.501 85.4106C127.459 86.7247 127.064 87.9642 126.884 89.2522C126.848 89.4959 126.847 89.71 126.886 89.8905C126.369 90.0358 125.85 90.2075 125.352 90.4002C125.173 90.4668 124.998 90.5397 124.822 90.6125C124.627 90.1342 124.478 89.6449 124.352 89.1502ZM128.023 83.6158C128.032 83.6017 128.047 83.5838 128.052 83.5635C128.112 83.4163 128.179 83.2386 128.243 83.0548C128.508 82.654 128.863 82.2577 129.278 82.0301C129.794 81.5361 130.368 81.6982 131.004 82.4961C130.957 82.7212 130.875 82.9331 130.763 83.1381C130.407 83.9524 129.869 84.6396 129.596 85.4888C129.176 86.7867 129.053 88.0986 129.492 89.3501C128.945 89.4191 128.393 89.5085 127.854 89.6328C127.785 87.9936 128.731 85.1375 128.023 83.6158ZM130.049 87.44C130.041 86.6935 130.201 85.9045 130.446 85.2259C130.695 84.5535 131.431 83.5413 131.632 82.6331C132.111 82.5541 132.63 82.468 133.097 82.5844C133.771 82.7532 133.65 83.3474 133.551 83.9198C133.471 83.8749 133.385 83.8338 133.285 83.8006C131.518 83.2662 130.503 85.5496 130.049 87.44ZM130.266 88.8609C130.486 87.9838 130.81 87.1034 131.192 86.2897C131.34 85.9694 131.51 85.6436 131.709 85.3512C132.058 84.6264 132.655 84.5098 133.51 85.0035C133.59 85.4237 133.574 85.8433 133.45 86.2601C133.238 87.1068 132.735 87.9254 132.313 88.687C132.203 88.8819 132.109 89.0588 132.042 89.2364C131.479 89.2214 130.904 89.2306 130.342 89.2748C130.319 89.1356 130.296 88.9963 130.266 88.8609ZM133.57 87.9965C133.825 87.363 134.035 86.7569 134.12 86.0903C134.174 85.6737 134.204 85.177 134.103 84.7522C134.895 84.4226 135.925 85.3043 136.32 85.8063C136.64 86.2165 136.714 86.7262 136.998 87.1334C137.379 87.6859 137.866 87.7642 138.435 88.0913C139.398 88.6471 138.984 89.5822 139.129 90.4669C139.213 90.9789 139.733 91.37 139.979 91.817C138.296 90.6426 136.339 89.7973 134.075 89.4292C133.713 89.3686 133.339 89.3321 132.965 89.2957C133.126 88.8391 133.422 88.3596 133.57 87.9965ZM105.756 89.251C105.16 88.2319 105.034 87.2762 105.213 86.3736C105.541 85.7889 105.842 85.1872 106.317 84.684C106.916 84.0535 107.618 83.6338 108.498 83.5491C109.195 83.482 109.776 83.8278 110.424 83.8246C111.006 83.8279 111.019 83.6916 111.401 83.3225C112.355 82.3813 113.596 81.5049 114.955 82.2629C115.648 82.6504 115.974 83.0404 116.794 83.1886C117.469 83.3146 118.213 83.3385 118.791 83.7536C119.542 84.2935 119.639 84.9853 119.819 85.7976C119.918 86.2489 120.038 86.7475 120.291 87.1478C120.732 87.8263 121.289 88.1348 121.504 88.9765C121.75 89.9272 121.406 91.1782 120.507 91.7783C120.169 92.0017 120.168 92.3606 120.349 92.5999C118.648 93.3397 116.914 93.9542 114.983 94.1598C111.05 94.5711 107.663 92.5337 105.756 89.251ZM134.267 119.438C128.782 119.278 124.856 115.435 121.268 111.89C117.508 108.177 113.984 104.217 110.793 100.011C109.008 97.6611 107.218 95.1176 105.903 92.4726C105.727 92.1274 105.567 91.7642 105.426 91.3894C105.463 91.4352 105.493 91.485 105.53 91.5308C107.693 94.2392 110.872 95.9774 114.469 95.6938C116.171 95.5597 117.958 95.2198 119.552 94.5628C121.565 93.7272 123.462 92.646 125.474 91.8105C129.539 90.1323 133.838 90.2222 137.776 91.9073C140.153 92.9228 142.103 94.6773 143.677 96.7379C145.933 100.55 146.816 105.251 145.67 109.637C144.386 114.475 139.639 119.599 134.267 119.438Z" fill="#5E9920"/>
<path opacity="0.2" d="M127.354 8.58429C126.331 9.77419 125.336 10.9964 124.921 12.5371C124.742 13.2009 124.634 13.8833 124.45 14.5477C124.221 15.3734 123.661 16.0035 123.093 16.6166C122.556 17.1909 121.994 17.7296 121.45 18.2928C121.164 18.5848 120.735 18.8842 120.49 19.2248C120.009 19.096 119.507 19.0728 119.046 19.2517C118.214 19.5699 117.725 20.4311 117.728 21.2928C117.729 22.63 118.535 23.6964 119.331 24.6961C119.7 25.1594 120.081 25.5799 120.488 25.968C121.031 26.6124 121.639 27.1874 122.305 27.6437C123.244 28.2907 124.246 28.7179 125.395 28.3552C126.367 28.0478 126.692 27.273 126.522 26.3209C126.515 26.2833 126.508 26.2516 126.501 26.2141C126.947 25.9069 127.305 25.4443 127.73 25.1041C128.325 24.6237 128.883 24.0501 129.548 23.6622C130.838 22.9086 132.313 22.9547 133.744 22.7373C136.432 22.328 138.477 20.1873 140.518 18.5577C141.628 17.6709 142.592 16.6146 143.654 15.674C144.778 14.6764 145.915 13.6949 147.012 12.6708C148.091 11.6635 149.109 10.598 150.175 9.58036C151.203 8.59648 152.256 7.70716 152.784 6.35156C153.705 3.97749 152.147 1.28355 150.786 -0.606058C149.991 -1.712 149.127 -2.87225 147.945 -3.5804C147.014 -4.13671 145.927 -4.76403 144.808 -4.67927C143.61 -4.59439 142.52 -3.7983 141.54 -3.17408C140.317 -2.3985 139.154 -1.53232 138.019 -0.639622C135.6 1.25681 133.291 3.27681 130.926 5.23212C129.653 6.26434 128.42 7.34508 127.354 8.58429ZM124.478 27.8209C123.818 27.8038 123.293 27.5028 122.758 27.1557C121.854 26.5786 121.02 25.8401 120.282 25.0081C120.2 24.9111 120.121 24.8108 120.041 24.7105C119.292 23.7321 118.432 22.6276 118.409 21.337C118.401 20.7948 118.677 20.241 119.149 19.9487C119.574 19.6882 120.095 19.7269 120.574 19.8647C120.612 19.8841 120.655 19.897 120.694 19.9015C120.798 19.9369 120.897 19.9731 120.995 20.0092C122.252 20.517 123.269 21.6511 124.117 22.6656C124.969 23.6943 125.952 24.9917 126.001 26.3827C126.04 27.3525 125.416 27.842 124.478 27.8209ZM129.225 23.0077C128.674 23.3533 128.205 23.8225 127.729 24.26C127.429 24.5358 127.111 24.7961 126.831 25.0875C126.659 25.2692 126.521 25.4825 126.35 25.6642C126.033 24.6372 125.429 23.6631 124.808 22.8238C124.015 21.747 123.119 20.7411 122.018 19.9706C121.778 19.7999 121.499 19.6365 121.205 19.4925C121.407 19.2926 121.675 19.103 121.847 18.9329C122.307 18.4825 122.79 18.0827 123.219 17.5973C123.986 16.7344 124.877 15.949 125.195 14.7972C125.254 14.5898 125.304 14.3804 125.354 14.171C125.748 14.3039 126.137 14.4283 126.491 14.6895C127.048 15.0961 127.546 15.5831 127.952 16.1396C128.358 16.702 128.676 17.3422 128.994 17.9559C129.263 18.4777 129.396 19.056 129.681 19.5641C130.201 20.5033 131.102 21.1517 132.035 21.6458C132.198 21.7337 132.495 21.901 132.821 22.0443C131.557 22.1928 130.35 22.3081 129.225 23.0077ZM132.672 21.4588C132.118 21.1818 131.579 20.8795 131.103 20.4844C130.141 19.6865 129.79 18.7016 129.268 17.6179C128.785 16.6125 128.214 15.5639 127.402 14.7845C126.846 14.2509 126.357 13.9517 125.745 13.7344C125.997 13.6439 126.252 13.5709 126.542 13.6061C127.035 13.6597 127.519 13.806 127.984 13.9808C129.051 14.3743 130.196 14.9153 130.945 15.7933C131.789 16.7786 132.629 17.729 133.192 18.9144C133.468 19.4944 133.727 20.0674 133.792 20.7126C133.829 21.1187 133.75 21.5173 133.783 21.9092C133.734 21.9177 133.685 21.9321 133.633 21.938C133.294 21.8167 132.897 21.5693 132.672 21.4588ZM132.165 5.24887C133.234 4.36082 134.251 3.41649 135.339 2.54395C137.579 0.744347 139.779 -1.15108 142.233 -2.65884C143.251 -3.28442 144.387 -4.12399 145.643 -3.77554C146.945 -3.41744 148.129 -2.559 148.99 -1.54906C149.91 -0.471828 150.628 0.672474 151.328 1.89843C151.937 2.97228 152.513 4.40704 152.214 5.64824C151.845 7.20442 150.617 8.22556 149.54 9.31836C148.608 10.2619 147.657 11.1958 146.692 12.1076C144.736 13.9489 142.702 15.743 140.673 17.504C139.566 18.4673 138.35 19.3277 137.185 20.2237C136.232 20.96 135.297 21.5141 134.194 21.8127C134.527 20.8688 134.093 19.6159 133.736 18.791C133.154 17.4366 132.183 16.2442 131.195 15.1599C130.379 14.2659 129.084 13.7063 127.974 13.2882C127.468 13.0973 126.817 12.902 126.276 12.9483C126.042 12.9688 125.818 13.0559 125.601 13.1425C125.763 12.4865 125.964 11.8409 126.327 11.2449C127.073 10.0153 128.103 8.86296 129.133 7.87001C130.09 6.94132 131.137 6.09993 132.165 5.24887Z" fill="#5E9920"/>
<g opacity="0.2">
<path d="M23.3073 117.394C23.9396 117.779 24.6707 117.701 25.3413 117.479C25.4758 118.017 25.5775 118.567 25.9186 119.032C26.293 119.541 26.8781 119.933 27.4528 120.171C27.6927 120.269 27.9404 120.349 28.1816 120.406C27.7276 121.772 28.2177 123.01 29.2363 124.119C29.7642 124.697 30.4765 125.318 31.233 125.58C31.9424 125.824 32.8219 125.726 33.5548 125.661C37.1068 125.342 40.4816 123.763 43.5724 122.065C45.2125 121.167 46.8127 120.202 48.4082 119.227C49.965 118.272 51.3296 117.14 52.815 116.087C54.2819 115.051 55.7421 114.016 57.1299 112.877C58.3143 111.91 59.7126 110.798 60.5769 109.52C61.3448 108.393 60.9844 106.921 60.4966 105.751C60.2773 105.221 59.8479 104.609 59.3293 104.329C59.1663 104.241 58.9534 104.139 58.756 104.152C58.6106 103.406 57.8889 102.742 57.1558 102.449C57.3902 101.999 57.4336 101.481 57.1603 100.958C56.8691 100.404 55.9531 99.597 55.2109 99.4913C55.5871 99.1246 56.1157 98.9707 56.548 98.6891C57.0278 98.377 57.9344 97.8699 58.0565 97.2491C58.1606 96.7234 57.7371 96.3343 57.251 96.218C56.4353 96.0261 55.334 96.3122 54.5141 96.4196C54.281 96.4477 53.993 96.4763 53.7393 96.5553C53.7911 96.0744 53.6735 95.5855 53.2489 95.0867C52.4296 94.1055 50.9947 93.702 49.7955 93.4417C48.3666 93.1335 46.8981 93.1157 45.453 93.2972C42.0705 93.7269 39.0575 95.0612 36.0697 96.6325C33.0654 98.2094 30.2878 100.116 27.7576 102.381C26.5202 103.489 25.3852 104.669 24.4709 106.06C24.1116 106.603 23.8284 107.149 23.6057 107.712C23.183 108.497 22.8744 109.338 22.8234 110.231C22.7855 110.916 22.6408 111.599 22.9014 112.257C23.1054 112.775 23.4382 113.307 23.8792 113.673C22.9507 114.781 21.6412 116.373 23.3073 117.394ZM52.7958 96.7137C52.6526 97.3305 52.103 97.9645 51.7478 98.4863C51.306 99.1298 50.7945 99.6899 50.2131 100.215C49.1665 101.16 48.0457 101.988 46.8618 102.755C44.4177 104.336 41.8795 105.753 39.4011 107.283C36.9866 108.777 34.5235 110.192 31.9532 111.397C30.6773 111.992 29.3945 112.612 28.044 113.011C27.3109 113.227 26.5207 113.351 25.7499 113.338C24.8895 113.324 24.3604 113.042 23.9417 112.281C23.578 111.623 23.693 110.924 23.7264 110.205C23.7586 109.504 23.9879 108.838 24.291 108.21C24.8737 107.008 25.7135 105.93 26.5213 104.869C26.9879 104.257 27.4946 103.687 28.0261 103.148C28.3139 102.89 28.6161 102.636 28.9183 102.382C31.4674 100.283 34.1728 98.5267 37.1196 97.0331C39.8287 95.6609 42.5891 94.5153 45.6369 94.1754C47.0038 94.025 48.3818 94.0585 49.7183 94.3689C50.7962 94.6216 53.1372 95.2254 52.7958 96.7137ZM55.8617 103.671C56.062 103.528 56.2958 103.403 56.4973 103.242C56.6028 103.159 56.7007 103.07 56.7909 102.976C56.9794 103.126 57.1804 103.267 57.3786 103.411C58.0716 103.915 58.1655 104.61 57.8336 105.355C57.4233 106.283 56.4791 106.792 55.6913 107.365C54.8222 107.998 53.7813 108.578 52.7192 108.773C52.0927 108.888 51.4713 108.839 50.8472 108.768C50.8723 108.751 50.9004 108.73 50.9217 108.71C51.3488 108.364 51.639 108.047 51.8283 107.695C52.2669 107.739 52.6843 107.651 53.202 107.544C54.2036 107.333 55.2615 107.056 56.0682 106.394C57.1529 105.502 57.021 104.246 55.8617 103.671ZM54.3246 106.602C53.7169 106.78 53.1028 106.911 52.4831 107.026C52.3356 107.053 52.1931 107.065 52.0534 107.074C52.0884 106.901 52.1081 106.716 52.1154 106.516C52.3514 106.484 52.681 106.56 52.8737 106.537C53.1444 106.508 53.4202 106.439 53.6844 106.362C54.1899 106.215 54.6644 105.966 54.9881 105.541C55.2885 105.146 55.244 104.792 55.3552 104.344C55.4157 104.106 55.544 103.938 55.7067 103.795C57.4147 104.873 55.5708 106.245 54.3246 106.602ZM29.0842 122.079C28.9448 121.683 28.9515 121.301 28.9987 120.913C29.5711 121.845 30.6212 121.714 31.6044 121.392C32.8539 120.983 33.2993 120.239 33.7843 119.229C34.2123 119.652 34.9139 119.915 35.4128 119.998C36.375 120.157 37.4525 119.973 38.3143 119.541C40.0408 118.672 41.9309 117.16 41.9078 115.134C43.2606 116.074 45.7979 115.158 46.9841 114.458C48.5716 113.526 50.642 111.34 50.1009 109.319C52.5464 110.111 55.3313 108.513 57.2603 107.084C57.994 106.542 58.6545 105.739 58.7752 104.802C60.0918 105.194 60.5506 108.157 60.0361 109.127C59.6905 109.771 59.062 110.278 58.5433 110.784C57.9372 111.381 57.3448 111.952 56.6748 112.482C55.6174 113.322 54.5076 114.104 53.3864 114.853C52.2053 115.641 51.1424 116.568 49.9813 117.377C47.7037 118.969 45.2045 120.32 42.7586 121.632C40.1754 123.022 37.2923 124.352 34.354 124.715C33.6816 124.796 33.0067 124.832 32.3303 124.807C31.5508 124.781 31.0459 124.475 30.4714 123.959C29.8948 123.453 29.3414 122.814 29.0842 122.079ZM47.3404 110.87C47.6434 110.52 47.7771 110.138 48.0006 109.733C48.1909 109.388 48.2858 109.43 48.6555 109.422C48.926 109.416 49.1549 109.433 49.4296 109.382C49.5935 109.35 49.7526 109.308 49.9137 109.255C49.9137 109.255 49.9137 109.255 49.9176 109.258C49.7229 110.943 48.3785 112.707 46.9819 113.603C46.214 114.095 45.3965 114.398 44.517 114.623C44.0792 114.737 43.6427 114.81 43.1913 114.799C42.6881 114.785 42.3687 114.632 41.9972 114.373C42.4198 114.248 42.816 114.029 43.1598 113.753C43.9808 114.136 45.0742 113.868 45.8713 113.465C46.4752 113.157 46.9083 112.652 47.193 112.04C47.3847 111.63 47.3144 111.261 47.3404 110.87ZM46.6482 112.048C46.4427 112.358 46.1989 112.662 45.8835 112.869C45.3602 113.215 44.5407 113.401 43.923 113.378C43.8056 113.373 43.6922 113.348 43.5847 113.314C43.7782 113.044 43.9084 112.762 44.1244 112.455C44.4756 111.954 45.13 112.096 45.6837 111.925C46.1449 111.78 46.5865 111.542 46.9671 111.233C46.89 111.501 46.8302 111.77 46.6482 112.048ZM41.3607 114.542C41.4415 114.682 41.5368 114.803 41.6409 114.912C41.4218 116.645 40.0364 117.725 38.63 118.65C37.9335 119.112 37.1829 119.35 36.349 119.405C35.8213 119.438 35.3074 119.422 34.8281 119.178C34.8463 119.186 34.4498 118.92 34.1864 118.749C34.3505 118.693 34.5136 118.63 34.6682 118.554C34.9744 118.406 35.252 118.224 35.5001 118.002C35.6437 118.099 35.7726 118.24 35.9231 118.312C36.1284 118.408 36.338 118.435 36.5662 118.421C37.1652 118.381 37.7887 118.015 38.2905 117.714C38.8213 117.398 39.4172 117.005 39.7533 116.469C40.1098 115.906 40.0627 115.253 40.159 114.618C40.2973 114.397 40.3748 114.462 40.7056 114.496C40.9211 114.515 41.1347 114.521 41.3485 114.502C41.3494 114.509 41.3513 114.522 41.3607 114.542ZM39.0652 116.459C38.6219 116.914 37.989 117.236 37.4267 117.522C36.8866 117.794 36.5221 118.018 35.9394 117.695C35.9058 117.676 35.879 117.655 35.8484 117.632C35.898 117.567 35.9505 117.498 35.9962 117.43C36.4566 116.746 36.936 116.863 37.6531 116.732C38.6709 116.54 39.326 115.95 39.8364 115.153C39.6335 115.634 39.3639 116.154 39.0652 116.459ZM32.1021 120.604C31.2019 121.031 30.2613 121.186 29.5257 120.468C30.0575 120.389 30.5712 120.175 31.0322 119.801C31.283 119.598 31.447 119.288 31.6891 119.097C32.1025 118.777 32.6526 118.96 33.1099 118.939C33.2466 118.935 33.3892 118.922 33.527 118.9C33.5536 118.945 33.584 118.992 33.6135 119.033C33.1921 119.649 32.8218 120.263 32.1021 120.604ZM26.0142 117.2C26.3263 117.044 26.6221 116.87 26.9371 116.711C27.5796 116.384 28.18 116.279 28.8805 116.177C29.3218 116.114 29.7653 116.016 30.1368 115.767C30.5237 115.505 30.7636 115.095 31.1744 114.857C32.0599 114.346 33.1798 114.401 34.1277 114.046C34.9809 113.728 35.6391 113.111 36.323 112.531C36.785 112.139 37.2409 111.675 37.7706 111.377C38.2201 111.12 38.722 111.049 39.2213 110.958C40.2034 110.78 41.1826 110.48 41.9718 109.841C42.6468 109.296 43.0312 108.482 43.7118 107.954C44.6102 107.259 45.9169 107.299 46.9481 106.875C47.6345 106.593 48.2468 106.067 48.6337 105.424C49.049 104.736 49.075 104.091 49.9629 103.775C50.4116 103.615 50.8866 103.547 51.3569 103.47C52.1799 103.335 52.948 103.2 53.676 102.768C54.3499 102.368 54.7308 101.884 54.8225 101.089C54.875 100.639 54.776 100.237 54.9608 99.8513C55.3939 99.8546 55.9498 100.411 56.217 100.712C56.7601 101.325 56.7327 102.012 56.1369 102.532C55.7193 102.897 55.1335 103.111 54.818 103.596C54.67 103.822 54.6585 104.068 54.5969 104.323C54.448 104.924 54.2105 105.275 53.5842 105.494C53.0033 105.692 52.0578 105.48 51.5697 105.883C51.1929 106.194 51.3998 106.709 51.2272 107.134C51.1258 107.172 51.0528 107.292 51.0626 107.39C50.6 107.981 49.8417 108.468 49.1263 108.637C48.6635 108.744 48.0972 108.543 47.7182 108.889C47.5835 109.01 47.5206 109.18 47.453 109.34C47.2533 109.793 47.1335 110.101 46.7411 110.45C46.0638 111.053 45.2701 111.253 44.3892 111.289C43.9213 111.308 43.6885 111.415 43.4678 111.84C43.0489 112.628 42.6654 113.195 41.7433 113.46C41.1318 113.635 40.2105 113.272 39.6736 113.644C39.215 113.96 39.2143 114.691 38.8127 115.099C38.1279 115.799 37.3711 115.84 36.4727 115.899C35.6898 115.95 35.6922 116.527 35.2502 117.067C34.6955 117.74 33.7975 118.005 32.9568 118.061C32.3886 118.1 31.8573 117.979 31.3972 118.361C30.6747 118.96 30.3065 119.665 29.2295 119.673C28.4103 119.685 27.4546 119.422 26.842 118.853C26.3393 118.385 26.2467 117.776 26.0142 117.2ZM23.5335 115.612C23.7697 115.048 24.2237 114.571 24.5923 114.071C25.6261 114.43 26.9948 114.166 27.9747 113.896C29.4437 113.484 30.8361 112.761 32.2154 112.117C35.423 110.623 38.413 108.763 41.5011 107.044C44.3592 105.453 47.3476 103.809 49.8812 101.722C51.1354 100.688 52.1455 99.6 53.0279 98.2275C53.2636 97.8625 53.4723 97.5013 53.6088 97.1395C53.9409 97.0053 54.5298 97.0184 54.7947 96.9963C55.2059 96.9648 55.6151 96.9438 56.0291 96.9325C56.2206 96.9272 56.5196 96.8525 56.702 96.9068C57.6872 97.2097 57.1386 97.2152 56.9694 97.4372C56.6953 97.7971 56.1146 98.0987 55.7338 98.3047C55.1578 98.616 54.5432 98.9463 54.2574 99.5755C53.9118 100.347 54.3836 101.22 53.6694 101.856C52.4825 102.906 50.6145 102.499 49.2454 103.192C48.5189 103.558 48.3732 104.107 48.0016 104.761C47.5598 105.532 46.8463 105.944 46.0197 106.179C45.2461 106.401 44.3887 106.51 43.6773 106.911C43.1002 107.24 42.7142 107.763 42.3243 108.282C41.7186 109.085 41.0542 109.632 40.096 109.96C39.4466 110.186 38.7543 110.221 38.1021 110.426C36.4726 110.945 35.4907 112.622 33.883 113.176C33.1545 113.426 32.365 113.454 31.629 113.673C30.8997 113.892 30.4524 114.241 29.9049 114.737C29.2352 115.346 28.4305 115.235 27.6201 115.489C26.8261 115.737 26.1772 116.271 25.4069 116.567C24.6413 116.874 22.96 116.984 23.5335 115.612Z" fill="#5E9920"/>
<path d="M47.5324 107.21C48.1158 106.801 48.847 106.723 49.4379 106.345C49.6304 106.219 50.0253 105.915 50.0004 105.654C49.9933 105.576 49.8735 105.503 49.8626 105.422C49.8434 105.28 49.7632 105.195 49.8145 105.04C49.9307 104.681 50.3102 104.771 50.6017 104.793C51.5925 104.858 52.8794 104.345 53.1358 103.269C53.1696 103.138 53.3744 103.155 53.3724 103.292C53.3763 104.058 52.9971 104.555 52.3787 105.01C52.0912 105.22 51.7679 105.343 51.419 105.404C51.2041 105.44 50.8649 105.496 50.6294 105.456C50.8554 105.858 50.5483 106.38 50.2479 106.647C49.5619 107.262 48.5499 107.574 47.6496 107.62C47.4243 107.63 47.3631 107.329 47.5324 107.21Z" fill="#5E9920"/>
<path d="M40.8061 111.354C41.3685 111.323 42.0628 111.531 42.6016 111.301C43.0689 111.1 43.3037 110.856 43.3844 110.36C43.4096 110.216 43.3511 110.063 43.4214 109.923C43.4996 109.765 43.5014 109.778 43.66 109.681C43.6977 109.655 44.5397 109.559 44.4451 109.596C44.989 109.453 45.3433 109.179 45.4835 108.59C45.5103 108.483 45.6902 108.493 45.6854 108.611C45.655 109.199 45.4365 109.716 44.8667 109.971C44.578 110.096 44.4292 110.037 44.1336 110.06C43.784 110.09 43.818 109.783 43.7535 110.424C43.7442 110.508 43.7907 110.597 43.7679 110.683C43.4647 111.97 41.6959 112.45 40.6891 111.683C40.5349 111.583 40.6492 111.362 40.8061 111.354Z" fill="#5E9920"/>
<path d="M33.8447 115.054C34.4626 115.18 34.9901 114.536 35.5927 114.396C36.2425 114.25 37.5097 114.302 37.3786 113.306C37.354 113.124 37.6566 113.076 37.7014 113.256C37.9428 114.305 37.1315 114.806 36.1627 114.878C35.6764 114.913 35.4272 114.899 35.0222 115.256C34.8226 115.43 34.7107 115.593 34.4415 115.684C34.0642 115.814 33.7864 115.766 33.552 115.454C33.4023 115.262 33.6332 115.014 33.8447 115.054Z" fill="#5E9920"/>
</g>
<g opacity="0.2">
<path d="M211.893 119.472C212.526 119.857 213.257 119.779 213.927 119.558C214.062 120.096 214.163 120.645 214.505 121.111C214.879 121.62 215.464 122.011 216.039 122.249C216.279 122.347 216.526 122.427 216.768 122.484C216.313 123.85 216.804 125.088 217.822 126.197C218.35 126.775 219.062 127.396 219.819 127.658C220.528 127.902 221.408 127.804 222.141 127.739C225.693 127.42 229.068 125.841 232.158 124.143C233.798 123.245 235.399 122.28 236.994 121.305C238.551 120.35 239.916 119.218 241.401 118.166C242.868 117.129 244.328 116.094 245.716 114.956C246.9 113.989 248.299 112.876 249.163 111.599C249.931 110.472 249.57 108.999 249.083 107.829C248.863 107.299 248.434 106.687 247.915 106.407C247.752 106.319 247.539 106.218 247.342 106.231C247.197 105.484 246.475 104.82 245.742 104.527C245.976 104.077 246.02 103.559 245.746 103.037C245.455 102.482 244.539 101.675 243.797 101.569C244.173 101.203 244.702 101.049 245.134 100.767C245.614 100.455 246.52 99.9481 246.642 99.3272C246.747 98.8015 246.323 98.4124 245.837 98.2961C245.021 98.1042 243.92 98.3904 243.1 98.4977C242.867 98.5258 242.579 98.5544 242.325 98.6334C242.377 98.1525 242.259 97.6637 241.835 97.1648C241.016 96.1836 239.581 95.7801 238.381 95.5198C236.953 95.2116 235.484 95.1938 234.039 95.3754C230.656 95.805 227.643 97.1394 224.656 98.7106C221.651 100.288 218.874 102.194 216.344 104.459C215.106 105.567 213.971 106.747 213.057 108.138C212.698 108.681 212.414 109.227 212.192 109.79C211.769 110.575 211.46 111.417 211.409 112.309C211.371 112.994 211.227 113.677 211.487 114.335C211.691 114.853 212.024 115.385 212.465 115.751C211.537 116.859 210.227 118.451 211.893 119.472ZM241.382 98.7918C241.239 99.4086 240.689 100.043 240.334 100.564C239.892 101.208 239.38 101.768 238.799 102.293C237.752 103.238 236.632 104.066 235.448 104.834C233.004 106.414 230.465 107.832 227.987 109.361C225.572 110.855 223.109 112.27 220.539 113.476C219.263 114.07 217.98 114.69 216.63 115.089C215.897 115.305 215.107 115.429 214.336 115.416C213.475 115.402 212.946 115.12 212.528 114.359C212.164 113.701 212.279 113.002 212.312 112.283C212.345 111.582 212.574 110.916 212.877 110.288C213.46 109.086 214.299 108.008 215.107 106.948C215.574 106.335 216.081 105.765 216.612 105.226C216.9 104.968 217.202 104.714 217.504 104.46C220.053 102.361 222.759 100.605 225.706 99.1112C228.415 97.739 231.175 96.5934 234.223 96.2536C235.59 96.1032 236.968 96.1367 238.304 96.4471C239.382 96.6997 241.723 97.3035 241.382 98.7918ZM244.448 105.75C244.648 105.606 244.882 105.481 245.083 105.32C245.189 105.237 245.287 105.149 245.377 105.054C245.565 105.204 245.766 105.345 245.965 105.49C246.658 105.993 246.751 106.688 246.419 107.433C246.009 108.361 245.065 108.87 244.277 109.443C243.408 110.076 242.367 110.656 241.305 110.851C240.679 110.967 240.057 110.917 239.433 110.846C239.458 110.829 239.486 110.808 239.508 110.788C239.935 110.442 240.225 110.125 240.414 109.773C240.853 109.817 241.27 109.729 241.788 109.622C242.79 109.411 243.847 109.134 244.654 108.472C245.739 107.58 245.607 106.324 244.448 105.75ZM242.911 108.68C242.303 108.859 241.689 108.99 241.069 109.104C240.922 109.131 240.779 109.143 240.639 109.152C240.674 108.979 240.694 108.794 240.701 108.594C240.937 108.562 241.267 108.638 241.46 108.615C241.73 108.586 242.006 108.517 242.27 108.441C242.776 108.293 243.25 108.044 243.574 107.619C243.874 107.225 243.83 106.87 243.941 106.422C244.002 106.184 244.13 106.016 244.293 105.874C246.001 106.951 244.157 108.323 242.911 108.68ZM217.67 124.158C217.531 123.761 217.537 123.379 217.585 122.991C218.157 123.924 219.207 123.792 220.19 123.47C221.44 123.061 221.885 122.317 222.37 121.308C222.798 121.73 223.5 121.993 223.999 122.076C224.961 122.235 226.038 122.051 226.9 121.619C228.627 120.75 230.517 119.238 230.494 117.212C231.847 118.152 234.384 117.236 235.57 116.536C237.157 115.604 239.228 113.419 238.687 111.397C241.132 112.189 243.917 110.591 245.846 109.162C246.58 108.62 247.24 107.817 247.361 106.88C248.678 107.272 249.137 110.235 248.622 111.205C248.276 111.849 247.648 112.356 247.129 112.862C246.523 113.459 245.931 114.03 245.261 114.56C244.203 115.4 243.093 116.182 241.972 116.931C240.791 117.719 239.728 118.646 238.567 119.455C236.29 121.047 233.79 122.398 231.345 123.71C228.761 125.1 225.878 126.43 222.94 126.793C222.268 126.874 221.593 126.91 220.916 126.885C220.137 126.86 219.632 126.554 219.057 126.037C218.481 125.531 217.927 124.892 217.67 124.158ZM235.926 112.948C236.229 112.598 236.363 112.216 236.587 111.811C236.777 111.466 236.872 111.509 237.241 111.5C237.512 111.494 237.741 111.511 238.016 111.46C238.179 111.428 238.339 111.386 238.5 111.333C238.5 111.333 238.5 111.333 238.504 111.336C238.309 113.021 236.964 114.785 235.568 115.682C234.8 116.173 233.982 116.476 233.103 116.701C232.665 116.816 232.229 116.888 231.777 116.877C231.274 116.863 230.955 116.71 230.583 116.451C231.006 116.326 231.402 116.107 231.746 115.831C232.567 116.214 233.66 115.946 234.457 115.543C235.061 115.235 235.494 114.73 235.779 114.118C235.971 113.708 235.9 113.34 235.926 112.948ZM235.234 114.127C235.029 114.436 234.785 114.74 234.469 114.948C233.946 115.293 233.127 115.479 232.509 115.456C232.392 115.452 232.278 115.426 232.171 115.392C232.364 115.122 232.494 114.84 232.71 114.533C233.062 114.032 233.716 114.174 234.27 114.003C234.731 113.858 235.172 113.62 235.553 113.311C235.476 113.579 235.416 113.848 235.234 114.127ZM229.947 116.62C230.027 116.76 230.123 116.881 230.227 116.991C230.008 118.723 228.622 119.803 227.216 120.728C226.519 121.19 225.769 121.429 224.935 121.483C224.407 121.516 223.893 121.5 223.414 121.256C223.432 121.264 223.036 120.998 222.772 120.827C222.936 120.771 223.1 120.708 223.254 120.632C223.56 120.484 223.838 120.302 224.086 120.08C224.23 120.177 224.359 120.318 224.509 120.39C224.714 120.486 224.924 120.513 225.152 120.499C225.751 120.459 226.375 120.093 226.876 119.792C227.407 119.477 228.003 119.084 228.339 118.547C228.696 117.984 228.649 117.331 228.745 116.696C228.883 116.475 228.961 116.54 229.292 116.574C229.507 116.593 229.721 116.599 229.934 116.58C229.935 116.587 229.937 116.601 229.947 116.62ZM227.651 118.537C227.208 118.992 226.575 119.314 226.013 119.6C225.473 119.872 225.108 120.096 224.525 119.773C224.492 119.754 224.465 119.733 224.434 119.71C224.484 119.645 224.536 119.576 224.582 119.508C225.043 118.824 225.522 118.942 226.239 118.81C227.257 118.618 227.912 118.028 228.422 117.231C228.219 117.712 227.95 118.232 227.651 118.537ZM220.688 122.682C219.788 123.109 218.847 123.264 218.112 122.546C218.643 122.467 219.157 122.253 219.618 121.879C219.869 121.677 220.033 121.366 220.275 121.175C220.688 120.855 221.239 121.038 221.696 121.018C221.833 121.013 221.975 121 222.113 120.978C222.14 121.023 222.17 121.07 222.199 121.111C221.778 121.728 221.408 122.341 220.688 122.682ZM214.6 119.278C214.912 119.122 215.208 118.948 215.523 118.789C216.166 118.462 216.766 118.357 217.466 118.255C217.908 118.192 218.351 118.094 218.723 117.845C219.11 117.583 219.35 117.173 219.76 116.936C220.646 116.424 221.766 116.479 222.714 116.124C223.567 115.806 224.225 115.189 224.909 114.609C225.371 114.217 225.827 113.753 226.357 113.455C226.806 113.199 227.308 113.127 227.807 113.036C228.789 112.858 229.769 112.558 230.558 111.919C231.233 111.374 231.617 110.56 232.298 110.032C233.196 109.337 234.503 109.377 235.534 108.953C236.22 108.671 236.833 108.145 237.22 107.502C237.635 106.815 237.661 106.169 238.549 105.853C238.998 105.693 239.473 105.625 239.943 105.548C240.766 105.413 241.534 105.278 242.262 104.847C242.936 104.447 243.317 103.962 243.408 103.167C243.461 102.717 243.362 102.315 243.547 101.929C243.98 101.933 244.536 102.489 244.803 102.79C245.346 103.403 245.319 104.09 244.723 104.61C244.305 104.976 243.719 105.189 243.404 105.674C243.256 105.9 243.244 106.146 243.183 106.401C243.034 107.002 242.796 107.353 242.17 107.572C241.589 107.77 240.644 107.558 240.156 107.961C239.779 108.273 239.986 108.787 239.813 109.212C239.712 109.25 239.639 109.37 239.649 109.468C239.186 110.059 238.428 110.546 237.712 110.715C237.249 110.822 236.683 110.621 236.304 110.967C236.169 111.088 236.107 111.258 236.039 111.419C235.839 111.871 235.719 112.179 235.327 112.528C234.65 113.131 233.856 113.331 232.975 113.367C232.507 113.386 232.274 113.493 232.054 113.918C231.635 114.706 231.251 115.273 230.329 115.538C229.718 115.713 228.796 115.35 228.259 115.722C227.801 116.038 227.8 116.769 227.399 117.177C226.714 117.877 225.957 117.918 225.059 117.978C224.276 118.028 224.278 118.605 223.836 119.145C223.281 119.818 222.383 120.083 221.543 120.139C220.975 120.178 220.443 120.057 219.983 120.439C219.261 121.038 218.892 121.743 217.815 121.752C216.996 121.763 216.041 121.5 215.428 120.931C214.925 120.463 214.833 119.854 214.6 119.278ZM212.119 117.69C212.356 117.126 212.81 116.649 213.178 116.15C214.212 116.508 215.581 116.244 216.561 115.974C218.03 115.563 219.422 114.839 220.801 114.196C224.009 112.701 226.999 110.841 230.087 109.122C232.945 107.531 235.933 105.887 238.467 103.801C239.721 102.766 240.731 101.678 241.614 100.306C241.85 99.9407 242.058 99.5794 242.195 99.2176C242.527 99.0834 243.116 99.0965 243.381 99.0745C243.792 99.0429 244.201 99.022 244.615 99.0106C244.807 99.0054 245.106 98.9306 245.288 98.9849C246.273 99.2878 245.725 99.2933 245.555 99.5154C245.281 99.8752 244.701 100.177 244.32 100.383C243.744 100.694 243.129 101.024 242.843 101.654C242.498 102.425 242.969 103.299 242.255 103.934C241.068 104.984 239.2 104.577 237.831 105.27C237.105 105.636 236.959 106.185 236.588 106.839C236.146 107.61 235.432 108.022 234.606 108.258C233.832 108.479 232.975 108.588 232.263 108.99C231.686 109.318 231.3 109.841 230.91 110.36C230.305 111.163 229.64 111.71 228.682 112.039C228.033 112.264 227.34 112.299 226.688 112.504C225.059 113.023 224.077 114.701 222.469 115.254C221.74 115.504 220.951 115.532 220.215 115.751C219.486 115.97 219.038 116.319 218.491 116.815C217.821 117.424 217.016 117.313 216.206 117.567C215.412 117.815 214.763 118.349 213.993 118.646C213.227 118.952 211.546 119.062 212.119 117.69Z" fill="#5E9920"/>
<path d="M229.392 113.433C229.954 113.401 230.649 113.61 231.188 113.379C231.655 113.178 231.89 112.934 231.97 112.439C231.996 112.294 231.937 112.141 232.007 112.001C232.086 111.843 232.087 111.856 232.246 111.759C232.284 111.734 233.126 111.637 233.031 111.674C233.575 111.532 233.929 111.257 234.069 110.668C234.096 110.561 234.276 110.572 234.271 110.689C234.241 111.277 234.022 111.794 233.453 112.049C233.164 112.174 233.015 112.115 232.72 112.138C232.37 112.168 232.404 111.862 232.339 112.502C232.33 112.586 232.377 112.676 232.354 112.761C232.051 114.048 230.282 114.528 229.275 113.761C229.121 113.662 229.235 113.44 229.392 113.433Z" fill="#5E9920"/>
<path d="M222.431 117.133C223.049 117.258 223.576 116.614 224.179 116.474C224.828 116.328 226.096 116.38 225.965 115.384C225.94 115.202 226.243 115.155 226.287 115.334C226.529 116.383 225.717 116.884 224.749 116.957C224.262 116.991 224.013 116.977 223.608 117.334C223.409 117.509 223.297 117.671 223.027 117.763C222.65 117.893 222.372 117.844 222.138 117.533C221.988 117.34 222.219 117.092 222.431 117.133Z" fill="#5E9920"/>
</g>
<g opacity="0.2">
<path d="M207.553 -4.61593C205.049 -5.46188 202.652 -4.18166 200.673 -2.51795C200.374 -2.87325 199.951 -3.18907 199.719 -3.43158C198.93 -4.24933 198.084 -4.9994 197.238 -5.75512C196.561 -6.35293 196.054 -6.93946 195.101 -6.99586C194.339 -7.04097 193.583 -6.71389 193.025 -6.20632C192.016 -5.2927 191.559 -3.2342 192.557 -2.17394C193.882 -0.769664 195.439 0.217261 197.041 1.22676C196.166 2.25882 195.343 3.34729 194.638 4.48086C193.86 5.73287 193.662 7.20484 194.356 8.55273C195.117 10.036 196.719 11.3556 197.96 12.4159C199.578 13.7976 201.135 15.2865 202.816 16.5893C204.445 17.8525 206.211 19.0087 207.959 20.1028C208.856 20.6611 209.792 21.1969 210.768 21.6593C212.454 22.5729 214.219 23.3117 216.069 23.7178C219.396 24.4453 223.592 23.825 225.978 21.1687C228.504 18.3601 227.98 14.4518 226.141 11.4741C225.132 9.83857 223.812 8.42863 222.453 7.08639C220.885 5.53548 219.289 4.02969 217.597 2.60849C214.54 0.0198802 211.416 -3.30753 207.553 -4.61593ZM199.934 -1.86377C199.437 -1.40131 198.975 -0.927569 198.552 -0.476395C198.191 -0.0928973 197.83 0.307506 197.48 0.707923C196.618 0.0593601 195.648 -0.44257 194.847 -1.15881C194.328 -1.62126 193.815 -2.12883 193.341 -2.6364C192.873 -3.13833 192.856 -3.80379 193.036 -4.48619C193.273 -5.39418 194.305 -6.16119 195.264 -5.98072C195.952 -5.85101 196.482 -5.14042 196.995 -4.68925C197.999 -3.80946 199.048 -2.89019 199.934 -1.86377ZM209.459 -2.69278C206.758 -1.08548 204.395 1.47494 202.522 3.93383C201.31 5.52422 200.142 7.11461 199.048 8.79523C198.71 9.31408 197.949 10.1544 197.689 10.927C197.294 10.5491 196.917 10.1657 196.533 9.77088C195.8 9.0208 195.044 8.28202 194.937 7.17664C194.762 5.36631 196.262 3.83232 197.323 2.52391C198.513 1.05196 199.736 -0.414363 201.191 -1.64381C202.449 -2.70971 204.321 -4.09707 206.058 -3.973C207.209 -3.89404 208.399 -3.34134 209.459 -2.69278ZM215.003 1.57645C216.464 2.78334 217.941 3.96204 219.34 5.24224C221.985 7.66166 224.963 10.2277 226.395 13.6002C227.162 15.4049 227.134 17.2829 226.327 19.0707C225.515 20.8585 223.869 21.9808 222.047 22.6011C218.635 23.7686 214.958 22.7816 211.839 21.2138C208.72 19.6403 205.72 17.5085 202.951 15.388C201.53 14.2995 200.171 13.1152 198.823 11.9421C198.591 11.7391 198.349 11.5361 198.112 11.3274C198.885 10.3969 199.55 9.34791 200.25 8.36661C201.259 6.94541 202.314 5.59188 203.402 4.23272C204.395 2.99763 205.545 1.83023 206.679 0.724858C207.31 0.104494 207.959 -0.48769 208.636 -1.0573C209.132 -1.48027 209.702 -1.80172 210.209 -2.20778C210.401 -2.07807 210.587 -1.94836 210.768 -1.82428C212.245 -0.780945 213.61 0.420322 215.003 1.57645Z" fill="#5E9920"/>
<path d="M213.91 14.0568C211.97 12.6469 210.053 11.2201 208.073 9.86091C206.827 9.00932 204.91 7.2836 203.252 7.69529C201.988 8.01112 201.543 9.59586 202.045 10.69C202.817 12.3819 204.791 13.6452 206.229 14.711C207.944 15.98 209.681 17.2207 211.525 18.2979C212.766 19.0254 214.063 19.7416 215.411 20.3056C216.702 20.9485 218.101 21.4561 219.482 21.1064C219.889 21.0049 220.261 20.7455 220.469 20.3846C220.526 20.3169 220.582 20.2436 220.633 20.1646C220.684 20.0856 220.667 20.0067 220.622 19.9503C220.633 19.8601 220.639 19.7642 220.627 19.6683C220.565 19.0028 219.849 18.6024 219.398 18.1964C217.678 16.6398 215.783 15.416 213.91 14.0568ZM217.565 17.4576C217.965 17.7734 218.338 18.123 218.727 18.4558C219.003 18.6983 219.584 18.9972 219.764 19.3074C219.781 19.9334 219.652 20.3507 219.381 20.5706C218.056 20.909 216.234 19.9898 215.174 19.516C213.301 18.6814 211.497 17.6493 209.799 16.5045C208.147 15.3934 206.539 14.1865 205.022 12.8951C204.255 12.2409 203.488 11.5246 202.941 10.673C202.642 10.2106 202.507 9.61277 202.783 9.09392C203.195 8.32129 203.894 8.42843 204.594 8.69349C206.46 9.39281 208.192 10.8422 209.816 11.9758C211.57 13.194 213.262 14.4911 215.038 15.6754C215.901 16.245 216.759 16.8203 217.565 17.4576Z" fill="#5E9920"/>
<path d="M218.168 8.58811C216.228 7.17819 214.311 5.75135 212.331 4.39219C211.085 3.5406 209.167 1.81485 207.509 2.22654C206.246 2.54236 205.801 4.12711 206.302 5.22121C207.075 6.91311 209.049 8.1764 210.487 9.2423C212.202 10.5112 213.939 11.7519 215.783 12.8291C217.023 13.5566 218.321 14.2785 219.668 14.8368C220.96 15.4798 222.359 15.9874 223.74 15.6377C224.146 15.5362 224.519 15.2767 224.727 14.9158C224.784 14.8481 224.84 14.7748 224.891 14.6959C224.942 14.6169 224.925 14.5379 224.88 14.4815C224.891 14.3913 224.896 14.2954 224.885 14.1996C224.823 13.5341 224.107 13.1337 223.656 12.7276C221.936 11.1711 220.041 9.94727 218.168 8.58811ZM221.823 11.9888C222.223 12.3046 222.595 12.6543 222.985 12.987C223.261 13.2296 223.842 13.5285 224.022 13.8386C224.039 14.4646 223.909 14.882 223.639 15.1019C222.313 15.4403 220.492 14.521 219.432 14.0473C217.559 13.2126 215.755 12.1806 214.057 11.0357C212.405 9.92469 210.797 8.71782 209.28 7.42634C208.513 6.77214 207.746 6.0559 207.199 5.20431C206.9 4.74185 206.765 4.14402 207.041 3.62517C207.453 2.85254 208.152 2.95971 208.852 3.22478C210.718 3.9241 212.45 5.3735 214.074 6.50707C215.828 7.72524 217.52 9.02236 219.296 10.2067C220.159 10.7763 221.016 11.3515 221.823 11.9888Z" fill="#5E9920"/>
</g>
<g opacity="0.2">
<path d="M68.5327 54.5828C69.6341 57.7209 71.8579 60.4683 74.5847 62.3396C77.4793 64.3266 81.0577 66.1204 84.5919 66.4831C86.0423 66.6322 87.6475 66.3756 89.0054 65.8469C90.1538 65.3997 91.0752 64.3275 91.7361 63.2555C92.9324 62.6796 93.7608 61.157 94.2734 60.0259C94.8557 58.7395 94.8137 57.3161 94.5888 55.9504C94.0685 52.8205 92.4805 50.0085 90.3294 47.7127C88.7357 46.0104 86.8872 44.3439 84.8396 43.1034C83.4735 42.15 81.9948 41.4378 80.4003 41.2449C77.221 40.8648 73.3356 42.52 71.4394 45.1088C71.1074 45.5625 70.8298 46.0801 70.6614 46.6342C68.2692 48.307 67.6165 51.9611 68.5327 54.5828ZM92.1335 61.6222C91.5412 62.3366 90.8529 62.6965 89.9181 62.4202C89.0973 62.1833 88.7891 61.5638 88.1564 61.09C87.4922 60.5916 86.9365 60.8453 86.3782 61.3644C85.3626 62.3174 83.7976 63.1048 82.9481 61.4326C82.5918 60.7268 82.835 59.5322 82.1492 59.0149C81.5969 58.5937 80.8973 59.0642 80.4192 59.3755C79.7308 59.8264 78.9804 60.4306 78.0904 60.167C77.3221 59.9407 76.9996 59.0852 76.8021 58.3861C76.5796 57.5945 76.7327 56.2961 76.1515 55.6305C75.8477 55.2868 75.4395 55.3064 75.0244 55.2243C74.0866 55.0439 73.271 54.6734 73.1702 53.6132C73.0735 52.5684 73.4903 51.3888 73.1339 50.3771C72.9967 49.9925 72.784 49.9094 72.4701 49.6967C71.7912 49.2354 71.3391 48.7416 71.3233 47.8734C71.3203 47.6178 71.3474 47.3665 71.392 47.1188C71.5967 46.9889 71.6147 46.7649 71.531 46.5932C71.8479 45.6557 72.4811 44.8021 73.1776 44.167C75.3063 42.2389 78.9758 41.4361 81.7094 42.3544C83.1157 42.8298 84.4341 43.8665 85.6262 44.7265C86.7769 45.5563 87.854 46.4805 88.9178 47.4165C89.2776 47.7988 89.622 48.1853 89.9517 48.5633C91.9915 50.9058 93.5216 53.9319 93.7149 57.0759C93.8369 58.7795 93.2121 60.3214 92.1335 61.6222ZM69.1863 50.8251C69.4544 49.8139 69.8289 48.7533 70.5006 47.9348C70.5115 48.0972 70.53 48.2576 70.5661 48.4215C70.6903 48.9874 70.9624 49.4886 71.3978 49.8752C71.6047 50.059 71.9272 50.1661 72.1033 50.3583C72.5176 50.8044 72.3692 51.4937 72.3059 52.0236C72.1698 53.2016 72.0078 54.4363 72.9315 55.3441C73.4221 55.8275 74.1401 56.0053 74.7979 56.1291C75.1556 56.1978 75.3356 56.1449 75.5022 56.5009C75.6437 56.8099 75.5806 57.2488 75.6219 57.5849C75.773 58.739 76.2362 60.2676 77.3785 60.8062C78.4074 61.2927 79.4682 60.8733 80.3068 60.2287C80.5607 60.036 80.9215 59.5662 81.2311 59.5031C81.9245 59.361 82.0604 59.9857 82.1231 60.5229C82.1796 60.9914 82.2417 61.4501 82.4677 61.8727C82.9399 62.7621 83.9098 63.3969 84.9352 63.1525C85.4788 63.0219 86.0409 62.7003 86.468 62.3532C86.6643 62.1925 86.8379 61.9016 87.0663 61.7985C87.4952 61.5956 87.7801 61.9609 88.0651 62.2807C88.8126 63.1328 89.8918 63.6678 90.9998 63.4837C90.2175 64.3363 89.2793 65.0409 88.1599 65.3356C86.6321 65.7407 85.1827 65.8394 83.629 65.5073C80.7289 64.8903 78.1427 63.4773 75.6469 61.9405C73.0973 60.3728 71.1458 58.0354 69.8565 55.3493C69.1795 53.9323 68.7779 52.387 69.1863 50.8251Z" fill="#5E9920"/>
<path d="M78.5431 50.8095C79.6081 53.2627 81.6538 55.0619 84.1149 56.0581C86.1338 56.8722 88.24 55.6861 87.4975 53.3854C86.6611 50.7835 84.8353 48.9413 82.595 47.4926C82.4607 47.409 82.3581 47.6104 82.4769 47.6982C83.9744 48.8311 85.2705 50.1674 86.108 51.8718C86.4336 52.5404 86.8617 53.45 86.8434 54.2075C86.8349 54.6191 86.6866 54.9115 86.46 55.1134C86.4594 53.6746 85.464 52.5174 84.118 52.0051C83.2917 51.687 83.0922 51.3316 82.6819 50.6405C82.4767 50.2949 82.2241 49.8961 81.8807 49.6665C80.9998 49.0696 79.9145 49.7809 78.9871 49.2876C78.9088 49.2426 78.8311 49.2306 78.7646 49.2444C78.7278 48.3902 79.1479 47.6811 80.4207 48.0148C80.7048 48.0867 80.8156 47.6557 80.5343 47.5788C79.6953 47.351 79.01 47.3091 78.4931 48.1188C77.9467 48.9572 78.1653 49.9483 78.5431 50.8095ZM78.9296 50.0681C79.4318 50.3044 79.7789 50.074 80.4286 50.076C81.4956 50.0767 81.809 50.5625 82.24 51.3762C82.3747 51.6292 82.4695 51.8268 82.6855 52.0289C83.3542 52.6666 84.3954 52.5874 85.0607 53.2427C85.6036 53.7821 85.8743 54.6144 86.0157 55.3659C85.5904 55.5058 85.071 55.481 84.6218 55.3338C83.1244 54.8583 81.7073 53.8235 80.6629 52.6837C80.0537 52.0216 79.5118 51.2875 79.1052 50.4878C79.0368 50.3575 78.9818 50.2152 78.9296 50.0681Z" fill="#5E9920"/>
</g>
</g>
</svg>
