<svg width="24" height="24" viewBox="0 0 24 24" fill="none" xmlns="http://www.w3.org/2000/svg">
<path d="M15.5 18C15.224 18 15 17.808 15 17.5714V12.8571H14.5C14.224 12.8571 14 12.6651 14 12.4286C14 12.192 14.224 12 14.5 12H15.5C15.776 12 16 12.192 16 12.4286V17.5714C16 17.808 15.776 18 15.5 18Z" fill="black"/>
<path d="M10 18C9.724 18 9.5 17.776 9.5 17.5V12.5C9.5 12.224 9.724 12 10 12C10.276 12 10.5 12.224 10.5 12.5V17.5C10.5 17.776 10.276 18 10 18Z" fill="black"/>
<path d="M12.5 15.5H7.5C7.224 15.5 7 15.276 7 15C7 14.724 7.224 14.5 7.5 14.5H12.5C12.776 14.5 13 14.724 13 15C13 15.276 12.776 15.5 12.5 15.5Z" fill="black"/>
<path d="M20.7083 23H3.29167C2.02758 23 1 21.98 1 20.7273V5.27273C1 4.02 2.02758 3 3.29167 3H20.7083C21.9724 3 23 4.02 23 5.27273V20.7273C23 21.98 21.9724 23 20.7083 23ZM3.29167 3.90909C2.53358 3.90909 1.91667 4.52091 1.91667 5.27273V20.7273C1.91667 21.4791 2.53358 22.0909 3.29167 22.0909H20.7083C21.4664 22.0909 22.0833 21.4791 22.0833 20.7273V5.27273C22.0833 4.52091 21.4664 3.90909 20.7083 3.90909H3.29167Z" fill="black"/>
<path d="M22.5417 8H1.45833C1.20533 8 1 7.776 1 7.5C1 7.224 1.20533 7 1.45833 7H22.5417C22.7947 7 23 7.224 23 7.5C23 7.776 22.7947 8 22.5417 8Z" fill="black"/>
<path d="M6.04036 5.58333C5.78736 5.58333 5.58203 5.378 5.58203 5.125V1.45833C5.58203 1.20533 5.78736 1 6.04036 1C6.29336 1 6.4987 1.20533 6.4987 1.45833V5.125C6.4987 5.378 6.29336 5.58333 6.04036 5.58333Z" fill="black"/>
</svg>
