<svg width="19" height="19" viewBox="0 0 19 19" fill="none" xmlns="http://www.w3.org/2000/svg">
<path d="M9.50067 11.2144C7.81448 11.2144 6.43703 9.84527 6.43703 8.15171C6.43703 6.45815 7.81448 5.09698 9.50067 5.09698C11.1869 5.09698 12.5643 6.46607 12.5643 8.15963C12.5643 9.85318 11.1869 11.2144 9.50067 11.2144ZM9.50067 6.28405C8.47154 6.28405 7.62448 7.12292 7.62448 8.15963C7.62448 9.19634 8.46362 10.0352 9.50067 10.0352C10.5377 10.0352 11.3768 9.19634 11.3768 8.15963C11.3768 7.12292 10.5298 6.28405 9.50067 6.28405Z" fill="black"/>
<path d="M9.50078 18.0117C8.32916 18.0117 7.14961 17.5685 6.23132 16.6901C3.89598 14.4426 1.31524 10.8576 2.28896 6.59207C3.16768 2.72221 6.54797 0.989085 9.50078 0.989085C9.50078 0.989085 9.50078 0.989085 9.5087 0.989085C12.4615 0.989085 15.8418 2.72221 16.7205 6.59998C17.6863 10.8655 15.1056 14.4426 12.7702 16.6901C11.8519 17.5685 10.6724 18.0117 9.50078 18.0117ZM9.50078 2.17616C7.19711 2.17616 4.23639 3.4028 3.45267 6.85322C2.5977 10.5806 4.94095 13.7936 7.06253 15.8275C8.43207 17.1491 10.5774 17.1491 11.9469 15.8275C14.0606 13.7936 16.4039 10.5806 15.5647 6.85322C14.7731 3.4028 11.8044 2.17616 9.50078 2.17616Z" fill="black"/>
</svg>
