<svg width="24" height="24" viewBox="0 0 24 24" fill="none" xmlns="http://www.w3.org/2000/svg">
<path fill-rule="evenodd" clip-rule="evenodd" d="M2.13667 10.5011C2.13667 5.97002 5.80982 2.29688 10.3409 2.29688H14.3825C18.4248 2.29688 21.7018 5.57386 21.7018 9.61623V13.4469C21.7018 17.5062 18.4111 20.7969 14.3518 20.7969H11.0149L7.72724 20.7409C6.44268 20.719 5.16135 20.8764 3.92024 21.2083L3.4546 21.3329C2.37064 21.6228 1.39927 20.591 1.7541 19.5265C2.11488 18.4441 2.28648 17.3077 2.26134 16.1671L2.13684 10.5165L2.83667 10.5011H2.13667ZM3.53668 10.4935L3.661 16.1362C3.68968 17.4376 3.4939 18.7343 3.08226 19.9692C3.08159 19.9712 3.0812 19.9727 3.08099 19.9737C3.08152 19.9747 3.0825 19.9762 3.08419 19.978C3.08588 19.9798 3.08733 19.9808 3.08827 19.9814C3.08929 19.9813 3.0908 19.981 3.09284 19.9804L3.55848 19.8559C4.92529 19.4903 6.33638 19.317 7.75103 19.3411L11.0328 19.3969H14.3518C17.6379 19.3969 20.3018 16.733 20.3018 13.4469V9.61623C20.3018 6.34706 17.6516 3.69687 14.3825 3.69687H10.3409C6.58553 3.69687 3.54074 6.73915 3.53668 10.4935Z" fill="black"/>
</svg>
