<svg width="232" height="94" viewBox="0 0 232 94" fill="none" xmlns="http://www.w3.org/2000/svg">
<mask id="mask0_594_2915" style="mask-type:alpha" maskUnits="userSpaceOnUse" x="-156" y="0" width="388" height="94">
<rect x="-156" width="388" height="94" rx="16" fill="#E6F1DB"/>
</mask>
<g mask="url(#mask0_594_2915)">
<g opacity="0.2">
<path d="M40.9623 4.22727C39.9592 4.09782 38.9458 3.98925 37.9427 3.85981C37.5373 3.8097 37.0799 3.73036 36.633 3.72201C36.6641 3.57169 36.6018 3.41301 36.3939 3.35037C35.2557 3.00797 33.9148 2.92448 32.7194 2.74075C31.3265 2.52779 29.9232 2.39835 28.5304 2.18957C25.7706 1.77201 22.9848 1.44213 20.2095 1.09556C15.1889 0.469217 10.1631 -0.0694375 5.11652 -0.549633C3.89515 -0.66655 2.62183 -0.787662 1.39526 -0.804364C0.766392 -0.812716 0.0907516 -0.662394 0.00759502 -0.0736328C-0.0859566 0.565235 0.781994 1.154 1.27574 1.55069C2.03454 2.16032 2.90249 2.61547 3.74446 3.14577C7.48651 5.50081 11.187 7.89763 15.007 10.1775C16.3895 11.0043 17.7823 11.8185 19.1752 12.6369C19.3208 12.7622 19.4715 12.8833 19.6222 13.0086C20.3706 13.6182 21.197 14.1401 21.9974 14.6997C23.7956 15.9524 25.8642 16.8752 27.5637 18.2114C27.6832 18.3074 27.8599 18.3283 28.021 18.2949C28.2445 18.5663 28.5512 18.8085 28.8058 19.0548C29.3515 19.5851 29.8297 20.224 30.443 20.7042C31.0614 21.1886 31.9294 20.9506 32.2932 20.4036C32.4439 20.5121 32.5895 20.6249 32.7402 20.7376C33.2599 21.1385 34.0811 21.9819 34.8555 21.5894C35.3284 21.3472 35.713 20.9589 36.1236 20.6499C36.4511 20.4036 37.0072 20.1322 37.1787 19.7814C37.2462 19.6436 37.2255 19.5392 37.1059 19.4223C36.8097 19.1342 36.3263 18.9922 35.9573 18.7584C36.2328 18.487 36.477 18.1738 36.6953 17.9065C36.8876 18.1028 37.1787 18.2364 37.4333 18.3909C37.7608 18.5955 38.1194 18.8711 38.556 18.8962C38.821 18.9087 39.0289 18.8335 39.1848 18.6665C39.4863 18.345 39.6838 17.9525 39.9852 17.6226C40.3386 17.2426 41.2014 16.4325 40.9103 15.9231C40.7388 15.6267 40.1567 15.5306 39.8345 15.4095C39.4343 15.2592 38.873 15.1131 38.5248 14.8709C38.7067 14.5744 38.8626 14.2696 39.1537 13.9982C39.2056 13.9481 39.2524 13.9022 39.2992 13.8562C39.2992 13.8562 39.3044 13.8562 39.3044 13.8604C39.5746 13.9105 39.9488 14.2278 40.2087 14.3364C40.4738 14.445 40.8532 14.7122 41.165 14.7289C41.4509 14.7456 41.5912 14.6037 41.7211 14.4283C41.981 14.0817 42.2045 13.7351 42.4955 13.4052C42.8125 13.0378 43.2543 12.52 42.6047 12.2194C42.2097 12.0356 41.7211 11.9563 41.3053 11.7935C40.8272 11.6056 40.3542 11.4135 39.8865 11.2089C40.0684 11.0711 40.3179 10.9041 40.5257 10.7203C40.9935 10.879 41.4664 11.0335 41.9238 11.2089C42.3604 11.3759 42.8178 11.6473 43.3167 11.6598C44.1223 11.6807 44.4289 10.7454 44.7563 10.2777C45.0058 9.91862 45.9985 8.99581 45.4268 8.55319C45.2345 8.40287 44.9175 8.41539 44.668 8.36528C44.2418 8.28595 43.8 8.17739 43.3739 8.06047C43.5246 7.75983 43.7273 7.48842 43.8884 7.17525C43.9768 7.00822 44.0339 6.88711 43.9456 6.71173C43.7585 6.34846 43.0101 6.20649 42.3864 6.11462C42.6151 5.68454 42.9737 5.09579 42.6254 4.69911C42.298 4.29825 41.4613 4.2899 40.9623 4.22727ZM42.6047 7.98531C42.4643 8.06883 42.3968 8.21078 42.5111 8.33187C42.5059 8.34857 42.5007 8.36112 42.4955 8.37782C42.4124 8.59078 42.6047 8.51978 42.3604 8.56988C42.2513 8.59076 41.9186 8.48219 41.7991 8.46131C41.3885 8.39033 40.9831 8.30683 40.5777 8.21079C39.6838 7.99366 38.8106 7.75564 37.9323 7.49675C36.1392 6.96645 34.2578 6.67833 32.4387 6.21483C32.4335 6.21066 32.4284 6.21068 32.418 6.2065L32.4231 6.20232C33.0624 5.75135 33.7433 5.3839 34.4345 5.02898C36.4615 5.45489 38.5456 5.68872 40.5153 6.28166C41.2274 6.49461 42.2253 6.56977 42.8697 6.87459C43.192 7.02491 43.1192 6.85372 42.9997 7.17107C42.9425 7.32974 42.8022 7.47587 42.7242 7.63037C42.6618 7.74311 42.6307 7.86422 42.6047 7.98531ZM41.981 10.5742C41.6328 10.4447 41.2326 10.3403 40.8428 10.3403C40.9259 10.1942 40.9519 10.0481 40.8792 9.9019C40.5985 9.36325 39.242 9.12106 38.6495 8.90393C37.1319 8.35275 35.713 7.70137 34.2838 7.0458C35.9625 7.53435 37.6308 8.04795 39.3252 8.50726C40.2867 8.77033 41.4041 9.11273 42.4176 9.18789C42.9685 9.22965 43.088 8.99997 43.1712 8.64922C43.6285 8.79537 44.1535 8.88307 44.59 8.95406C44.6212 8.95823 44.7667 8.96658 44.8707 8.97911C44.8031 9.00834 44.7355 9.10019 44.72 9.12107C44.4653 9.43006 44.2834 9.78499 44.0807 10.1149C43.9716 10.2902 43.6233 11.092 43.4102 11.1421C43.0776 11.2256 42.2668 10.6827 41.981 10.5742ZM38.9354 11.1796C38.8314 11.284 38.5456 11.7392 38.4364 11.7642C38.2077 11.8185 37.5269 11.188 37.3138 11.0502C36.6589 10.6326 35.9781 10.2318 35.2713 9.86849C34.3981 9.4217 33.499 9.00416 32.6103 8.57824C32.418 8.48638 30.9783 7.84751 30.5261 7.71807C30.9523 7.32556 31.4045 6.94976 31.867 6.59901C33.6289 7.33809 35.2817 8.20244 37.0851 8.89141C37.9479 9.22129 38.8418 9.52194 39.6786 9.88939C40.2191 10.1274 40.084 10.1775 39.6786 10.5282C39.4343 10.7496 39.164 10.9458 38.9354 11.1796ZM36.2692 11.8979C34.9179 11.4344 33.551 10.9792 32.236 10.4531C31.5344 10.1733 30.8328 9.91443 30.1259 9.64302C29.9025 9.55533 29.4243 9.43425 29.0865 9.29228C29.4243 8.84132 29.8245 8.40287 30.2507 7.98113C32.0074 9.23382 34.237 10.0355 36.1288 11.1463C36.5862 11.4177 37.028 11.6974 37.4697 11.9814C37.714 12.1359 38.031 12.3697 38.3533 12.3948C38.9042 12.4323 39.1588 12.0231 39.4291 11.6557C40.1204 11.948 40.8272 12.2361 41.56 12.449C41.7159 12.495 41.8926 12.5158 42.0434 12.5701C42.4591 12.7121 42.272 12.591 42.2097 12.7831C42.1473 12.9752 41.8147 13.2132 41.6691 13.3844C41.6068 13.4554 41.2378 14.0441 41.113 14.1443C41.1702 14.0775 40.5777 13.8938 40.505 13.8687C40.1983 13.7727 39.8345 13.5973 39.4811 13.5973C39.6006 13.376 39.5642 13.1672 39.1952 12.9376C38.4052 12.4323 37.1891 12.2152 36.2692 11.8979ZM33.92 13.3593C32.7922 12.996 31.6903 12.6411 30.6093 12.1985C30.1571 12.0148 29.6946 11.8477 29.2268 11.6974C28.8578 11.5805 28.416 11.5262 28.0418 11.3926C28.1925 10.8456 28.4212 10.307 28.7487 9.785C29.2372 10.0355 29.8817 10.2026 30.3026 10.3487C31.4668 10.7579 32.5947 11.2214 33.7537 11.6348C34.8399 12.0231 35.9313 12.4031 37.028 12.7747C37.4333 12.9083 37.8387 13.0378 38.2389 13.1756C38.7015 13.3343 38.8262 13.3969 38.4988 13.7351C38.2597 13.9773 38.057 14.207 37.8855 14.4826C37.9895 14.3114 37.6256 14.8417 37.7244 14.8959C37.5737 14.8709 37.241 14.6579 37.1423 14.612C36.0872 14.1527 35.0322 13.7184 33.92 13.3593ZM37.4645 17.6017C37.319 17.5474 37.1839 17.5057 37.0435 17.489C37.3398 17.1675 37.5529 16.8877 37.1215 16.5244C36.3159 15.848 35.131 15.3636 34.1435 14.8876C32.8649 14.2738 31.6799 13.5556 30.4897 12.8415C30.6145 12.8958 30.7392 12.9501 30.864 13.0002C32.0905 13.5054 33.4366 13.8145 34.6892 14.2696C35.3492 14.5118 35.9937 14.7832 36.6382 15.0546C36.9396 15.1799 37.4178 15.493 37.7764 15.4889C37.9791 15.4847 38.0726 15.4388 38.1506 15.3552C38.1714 15.3636 38.187 15.3761 38.2026 15.3845C38.6027 15.5849 39.0757 15.7227 39.5071 15.873C40.0268 16.0526 40.4426 16.0818 40.0996 16.5745C39.8241 16.9671 39.5019 17.3011 39.164 17.656C39.0497 17.7771 38.8314 18.2239 38.6859 18.2573C38.5352 18.2949 37.6724 17.6811 37.4645 17.6017ZM32.2412 17.0255C31.4876 16.4576 30.6665 15.944 29.8505 15.4346C29.4243 15.1673 29.0137 14.8876 28.5823 14.6203C28.5668 14.6078 28.1354 14.3656 27.7975 14.1944C27.7508 13.4721 27.7664 12.7497 27.8859 12.044C29.4139 12.8582 30.8224 13.8103 32.366 14.5995C33.3015 15.0797 34.2994 15.4805 35.2193 15.9816C35.5935 16.1862 36.238 16.4952 36.5342 16.7875C36.7109 16.9587 36.7421 16.8084 36.4926 17.0673C36.0924 17.4806 35.6507 18.2406 35.0842 18.5287C34.2994 18.9338 32.7766 17.4305 32.2412 17.0255ZM34.1539 20.8921C33.7381 20.7251 33.3431 20.366 33.0156 20.1071C32.1009 19.3889 31.0667 18.8085 30.1259 18.1195C29.6426 17.7646 29.206 17.3762 28.7435 17.0046C28.5512 16.8501 28.3329 16.7207 28.1198 16.5912C28.0106 15.9941 27.9119 15.3887 27.8495 14.7874C28.6655 15.4513 29.5906 16.0359 30.4638 16.6372C31.4564 17.3261 32.3712 18.0777 33.3898 18.7417C33.9408 19.1008 34.58 19.5476 35.3025 19.2135C35.3492 19.1926 35.396 19.1634 35.4376 19.1383C35.7078 19.3137 36.3731 19.5267 36.3991 19.6979C36.3835 19.6019 35.6507 20.1447 35.5623 20.2115C35.3128 20.3994 35.0894 20.6165 34.8191 20.7919C34.4293 21.0466 34.5385 21.0466 34.1539 20.8921ZM29.8661 19.2344C29.4295 18.8252 28.9358 18.2239 28.3589 17.8606C28.3277 17.6727 28.2913 17.4848 28.2549 17.2969C28.6343 17.6393 29.0085 17.9859 29.4139 18.3116C30.1415 18.9045 30.9471 19.439 31.7319 19.9902C31.3941 20.3493 31.1862 20.5163 30.6509 20.0445C30.365 19.7981 30.1415 19.4933 29.8661 19.2344ZM17.4861 1.47135C17.6056 2.07264 17.6992 2.66559 17.8603 3.2627C18.0474 3.9475 18.2605 4.62811 18.4632 5.30873C18.905 6.80778 19.9028 8.16904 20.8436 9.49688C21.9402 11.0419 23.1979 12.4574 24.5077 13.8855C25.0014 14.4199 25.4536 14.946 26.0201 15.4388C26.3683 15.7394 26.7425 16.0192 27.1011 16.3073C27.1427 16.5286 27.1843 16.7541 27.2258 16.9754C26.545 16.5453 25.8278 16.1486 25.1053 15.7561C22.8393 14.2696 20.5421 12.8165 18.2293 11.3801C17.9487 11.1755 17.6576 10.975 17.3562 10.7788C17.3094 10.7496 17.2574 10.7412 17.2106 10.7496C16.5662 10.3487 15.9217 9.952 15.2773 9.55532C11.8314 7.42994 8.38563 5.24611 5.12172 2.94535C4.35772 2.4067 3.51056 1.95154 2.75175 1.41706C2.34117 1.12895 1.93057 0.803265 1.57196 0.469217C1.23413 0.156046 1.00027 0.0516507 1.61874 0.0725288C3.95233 0.156041 6.27032 0.43163 8.59351 0.619533C11.5664 0.861718 14.5288 1.14565 17.4861 1.47135ZM35.0738 3.80552C33.8784 4.41934 32.7142 5.00809 31.6124 5.78058C30.2871 6.71174 29.0137 7.83499 28.1094 9.05845C26.5606 11.163 26.623 13.4637 26.9972 15.7561C26.9452 15.7102 26.8932 15.6601 26.836 15.61C26.2124 15.0337 25.6563 14.4408 25.1573 13.7978C24.0659 12.3989 22.8653 11.0753 21.8674 9.62632C20.8799 8.19409 19.7157 6.72844 19.1233 5.15006C18.6711 3.95166 18.4424 2.77415 18.2293 1.55905C19.6742 1.72189 21.119 1.89727 22.5587 2.081C24.8507 2.37746 27.1271 2.68647 29.4139 3.00382C30.5729 3.16249 31.7319 3.30863 32.8805 3.49653C33.5717 3.60928 34.3513 3.67608 35.0738 3.80552ZM41.6743 4.9371C42.1369 5.15005 41.9446 5.34215 41.9082 5.71378C41.8978 5.83905 41.903 5.93509 41.9238 6.02695C41.8458 6.01443 41.7731 6.00189 41.7107 5.98936C40.5257 5.7263 39.3771 5.39224 38.1818 5.15006C37.2099 4.95381 36.2276 4.79514 35.2557 4.61141C35.4948 4.49032 35.7286 4.36923 35.9677 4.24814C36.1652 4.34418 36.3887 4.34834 36.6538 4.36922C37.5581 4.44438 38.4468 4.54878 39.346 4.64065C40.006 4.70746 41.0922 4.66986 41.6743 4.9371Z" fill="#5E9920"/>
</g>
<path opacity="0.2" d="M146.631 89.7733C147.741 87.5215 147.968 84.928 147.439 82.5887C147.169 81.3772 146.63 80.1812 145.971 79.0712C145.814 78.8057 145.628 78.5609 145.429 78.3224C145.492 78.2434 145.533 78.1476 145.543 78.0332C145.761 72.4546 141.119 66.3659 135.522 63.268C132.626 61.6645 129.514 60.4954 125.917 60.2711C121.854 60.0139 118.165 60.6985 114.433 62.0211C112.861 62.579 111.364 63.2104 110.006 64.0612C108.494 65.0085 106.726 65.9439 105.446 67.1059C104.517 67.9527 104.039 68.8517 103.921 69.7601C103.842 70.0385 103.778 70.3239 103.74 70.6098C103.603 71.7126 103.825 72.8379 104.276 73.8715C105.257 76.1123 107.122 78.2426 108.82 80.1662C112.297 84.1182 116.381 87.8064 120.68 91.1977C124.518 94.2253 128.83 97.322 134.689 97.2949C140.093 97.2711 144.769 93.5588 146.631 89.7733ZM110.131 64.6995C115.903 60.9369 125.359 59.5367 131.876 62.4709C135.487 64.1011 138.317 66.2176 140.583 68.9806C142.488 71.3034 143.999 74.1961 144.175 77.0652C143.972 76.8905 143.763 76.7189 143.549 76.5424C142.793 75.7546 141.945 75.032 141.009 74.4009C141.332 73.9131 140.848 73.4031 140.545 72.9002C140.231 72.3823 140.673 71.8643 140.548 71.2948C140.434 70.7746 140.08 70.3788 139.532 70.0853C138.91 69.7525 138.101 69.7516 137.623 69.2385C137.182 68.7622 136.964 68.3004 136.312 67.9408C135.767 67.6392 134.976 67.3618 134.349 67.4844C134.361 67.3962 134.373 67.308 134.385 67.2197C134.468 66.658 134.418 66.1752 133.788 65.8325C133.412 65.6262 132.306 65.524 131.647 65.7441C131.642 65.726 131.637 65.7079 131.63 65.6979C131.352 65.1005 130.494 64.9315 129.784 65.108C129.303 65.2272 128.908 65.4349 128.587 65.6951C128.607 65.5481 128.614 65.4074 128.6 65.2842C128.502 64.5777 127.812 64.0387 127.02 63.7826C125.698 63.3611 124.392 63.9672 123.998 64.9418C122.452 62.7102 118.639 63.6477 117.204 65.5649C117.183 65.5956 117.172 65.6281 117.172 65.6625C116.594 65.5142 116.238 65.3116 115.656 65.0895C114.644 64.6944 113.321 64.7808 112.316 65.2049C111.811 65.4185 111.281 65.7398 110.94 66.1126C110.984 66.0775 110.54 66.6725 110.566 66.7075C110.47 66.7202 110.011 66.5891 109.786 66.5483C108.797 66.3682 107.918 66.4838 107.163 66.7855C108.073 66.0169 109.177 65.318 110.131 64.6995ZM120.656 64.4755C121.745 64.2432 123.073 64.4764 123.629 65.3009C124.166 66.1003 123.463 66.8635 123.299 67.6431C122.943 69.2917 122.981 71.5632 124.023 73.0615C123.397 73.2791 122.773 73.5099 122.155 73.7375C122.443 73.3767 122.645 72.9829 122.679 72.692C122.733 72.2197 122.504 71.7217 122.302 71.2931C121.95 70.5402 120.985 69.861 120.813 69.1021C120.578 68.0518 120.672 67.1348 119.468 66.4292C118.992 66.1487 118.426 65.9596 117.855 65.8213C118.863 65.5054 119.554 64.7141 120.656 64.4755ZM123.816 68.2193C123.858 67.3143 124.409 66.4545 124.255 65.6042C124.262 65.6011 124.262 65.6011 124.264 65.5929C124.469 65.2729 124.578 64.9525 124.907 64.6811C125.535 64.1538 126.355 64.0878 127.09 64.4541C127.476 64.6491 127.858 64.9898 127.865 65.3701C127.871 65.5865 127.688 65.8545 127.62 66.066C127.554 66.2563 127.488 66.4465 127.448 66.6374C127.167 66.4872 126.797 66.3941 126.318 66.3757C125.051 66.3388 124.214 67.3317 123.816 68.2193ZM124.352 71.6318C124.329 71.012 124.29 70.3936 124.338 69.7737C124.387 69.0982 124.615 68.0676 125.285 67.561C125.663 67.2725 126.479 67.0852 126.996 67.2912C127.495 67.4853 127.513 68.2852 127.501 68.6273C127.459 69.6831 127.064 70.6789 126.884 71.7137C126.848 71.9096 126.847 72.0816 126.886 72.2266C126.369 72.3433 125.85 72.4813 125.352 72.6361C125.173 72.6896 124.998 72.7481 124.822 72.8066C124.627 72.4224 124.478 72.0293 124.352 71.6318ZM128.023 67.1854C128.032 67.1741 128.047 67.1597 128.052 67.1434C128.112 67.0251 128.179 66.8824 128.243 66.7346C128.508 66.4126 128.863 66.0942 129.278 65.9114C129.794 65.5145 130.368 65.6447 131.004 66.2858C130.957 66.4666 130.875 66.6369 130.763 66.8016C130.407 67.4558 129.869 68.0079 129.596 68.6902C129.176 69.7329 129.053 70.787 129.492 71.7924C128.945 71.8479 128.393 71.9197 127.854 72.0195C127.785 70.7026 128.731 68.4079 128.023 67.1854ZM130.049 70.2578C130.041 69.658 130.201 69.0242 130.446 68.479C130.695 67.9387 131.431 67.1255 131.632 66.3959C132.111 66.3324 132.63 66.2632 133.097 66.3567C133.771 66.4923 133.65 66.9698 133.551 67.4297C133.471 67.3935 133.385 67.3606 133.285 67.3339C131.518 66.9045 130.503 68.739 130.049 70.2578ZM130.266 71.3994C130.486 70.6947 130.81 69.9874 131.192 69.3337C131.34 69.0763 131.51 68.8146 131.709 68.5797C132.058 67.9973 132.655 67.9036 133.51 68.3003C133.59 68.6379 133.574 68.975 133.45 69.3099C133.238 69.9901 132.735 70.6478 132.313 71.2597C132.203 71.4162 132.109 71.5584 132.042 71.7011C131.479 71.6891 130.904 71.6965 130.342 71.732C130.319 71.6201 130.296 71.5082 130.266 71.3994ZM133.57 70.7049C133.825 70.196 134.035 69.709 134.12 69.1735C134.174 68.8388 134.204 68.4397 134.103 68.0984C134.895 67.8335 135.925 68.542 136.32 68.9452C136.64 69.2748 136.714 69.6843 136.998 70.0115C137.379 70.4554 137.866 70.5183 138.435 70.7811C139.398 71.2276 138.984 71.9789 139.129 72.6897C139.213 73.1011 139.733 73.4153 139.979 73.7744C138.296 72.8308 136.339 72.1517 134.075 71.856C133.713 71.8073 133.339 71.778 132.965 71.7487C133.126 71.3819 133.422 70.9967 133.57 70.7049ZM105.756 71.7128C105.16 70.894 105.034 70.1262 105.213 69.401C105.541 68.9313 105.842 68.4479 106.317 68.0436C106.916 67.5371 107.618 67.1998 108.498 67.1318C109.195 67.0779 109.776 67.3557 110.424 67.3532C111.006 67.3558 111.019 67.2463 111.401 66.9497C112.355 66.1936 113.596 65.4895 114.955 66.0984C115.648 66.4098 115.974 66.7231 116.794 66.8422C117.469 66.9434 118.213 66.9626 118.791 67.2961C119.542 67.7299 119.639 68.2857 119.819 68.9383C119.918 69.3008 120.038 69.7015 120.291 70.0231C120.732 70.5682 121.289 70.816 121.504 71.4923C121.75 72.2561 121.406 73.2612 120.507 73.7433C120.169 73.9228 120.168 74.2111 120.349 74.4034C118.648 74.9977 116.914 75.4915 114.983 75.6566C111.05 75.9871 107.663 74.3502 105.756 71.7128ZM134.267 95.9655C128.782 95.8368 124.856 92.7499 121.268 89.9013C117.508 86.918 113.984 83.7365 110.793 80.3574C109.008 78.4697 107.218 76.4262 105.903 74.3011C105.727 74.0237 105.567 73.732 105.426 73.4308C105.463 73.4677 105.493 73.5076 105.53 73.5444C107.693 75.7204 110.872 77.1169 114.469 76.8891C116.171 76.7813 117.958 76.5082 119.552 75.9804C121.565 75.3091 123.462 74.4404 125.474 73.7691C129.539 72.4209 133.838 72.4931 137.776 73.8469C140.153 74.6628 142.103 76.0724 143.677 77.7279C145.933 80.7905 146.816 84.5675 145.67 88.0915C144.386 91.9779 139.639 96.095 134.267 95.9655Z" fill="#5E9920"/>
<path opacity="0.2" d="M127.354 6.89171C126.331 7.84769 125.336 8.82967 124.921 10.0675C124.742 10.6008 124.634 11.149 124.45 11.6828C124.221 12.3462 123.661 12.8524 123.093 13.345C122.556 13.8064 121.994 14.2392 121.45 14.6917C121.164 14.9263 120.735 15.1669 120.49 15.4405C120.009 15.337 119.507 15.3184 119.046 15.4621C118.214 15.7178 117.725 16.4097 117.728 17.1019C117.729 18.1763 118.535 19.0331 119.331 19.8362C119.7 20.2085 120.081 20.5463 120.488 20.8581C121.031 21.3758 121.639 21.8378 122.305 22.2044C123.244 22.7242 124.246 23.0675 125.395 22.776C126.367 22.5291 126.692 21.9066 126.522 21.1416C126.515 21.1115 126.508 21.086 126.501 21.0558C126.947 20.809 127.305 20.4374 127.73 20.1641C128.325 19.7781 128.883 19.3172 129.548 19.0056C130.838 18.4001 132.313 18.4372 133.744 18.2625C136.432 17.9337 138.477 16.2138 140.518 14.9046C141.628 14.1921 142.592 13.3434 143.654 12.5877C144.778 11.7862 145.915 10.9977 147.012 10.1749C148.091 9.36559 149.109 8.50955 150.175 7.69197C151.203 6.9015 152.256 6.187 152.784 5.09789C153.705 3.19052 152.147 1.02615 150.786 -0.491991C149.991 -1.38052 149.127 -2.31269 147.945 -2.88163C147.014 -3.32858 145.927 -3.83259 144.808 -3.76449C143.61 -3.69629 142.52 -3.0567 141.54 -2.55519C140.317 -1.93207 139.154 -1.23617 138.019 -0.518955C135.6 1.00467 133.291 2.62758 130.926 4.19851C129.653 5.02781 128.42 5.8961 127.354 6.89171ZM124.478 22.3467C123.818 22.333 123.293 22.0912 122.758 21.8123C121.854 21.3487 121.02 20.7554 120.282 20.0869C120.2 20.009 120.121 19.9284 120.041 19.8478C119.292 19.0617 118.432 18.1744 118.409 17.1375C118.401 16.7018 118.677 16.2569 119.149 16.0221C119.574 15.8128 120.095 15.8439 120.574 15.9546C120.612 15.9702 120.655 15.9805 120.694 15.9841C120.798 16.0126 120.897 16.0417 120.995 16.0707C122.252 16.4787 123.269 17.3898 124.117 18.2049C124.969 19.0314 125.952 20.0738 126.001 21.1913C126.04 21.9704 125.416 22.3637 124.478 22.3467ZM129.225 18.4798C128.674 18.7574 128.205 19.1344 127.729 19.4858C127.429 19.7075 127.111 19.9166 126.831 20.1507C126.659 20.2967 126.521 20.4681 126.35 20.6141C126.033 19.7889 125.429 19.0063 124.808 18.332C124.015 17.4669 123.119 16.6587 122.018 16.0397C121.778 15.9026 121.499 15.7712 121.205 15.6555C121.407 15.4949 121.675 15.3426 121.847 15.206C122.307 14.8441 122.79 14.5229 123.219 14.133C123.986 13.4397 124.877 12.8086 125.195 11.8833C125.254 11.7166 125.304 11.5484 125.354 11.3802C125.748 11.4869 126.137 11.5869 126.491 11.7967C127.048 12.1234 127.546 12.5147 127.952 12.9618C128.358 13.4136 128.676 13.928 128.994 14.421C129.263 14.8402 129.396 15.3049 129.681 15.7131C130.201 16.4677 131.102 16.9886 132.035 17.3856C132.198 17.4562 132.495 17.5906 132.821 17.7057C131.557 17.825 130.35 17.9177 129.225 18.4798ZM132.672 17.2354C132.118 17.0128 131.579 16.7699 131.103 16.4525C130.141 15.8114 129.79 15.0202 129.268 14.1495C128.785 13.3417 128.214 12.4992 127.402 11.8731C126.846 11.4444 126.357 11.204 125.745 11.0294C125.997 10.9567 126.252 10.8981 126.542 10.9263C127.035 10.9694 127.519 11.0869 127.984 11.2274C129.051 11.5435 130.196 11.9782 130.945 12.6836C131.789 13.4752 132.629 14.2388 133.192 15.1911C133.468 15.6571 133.727 16.1174 133.792 16.6358C133.829 16.9621 133.75 17.2823 133.783 17.5972C133.734 17.6041 133.685 17.6156 133.633 17.6203C133.294 17.5229 132.897 17.3241 132.672 17.2354ZM132.165 4.21197C133.234 3.49849 134.251 2.7398 135.339 2.03879C137.579 0.592949 139.779 -0.929873 142.233 -2.14123C143.251 -2.64384 144.387 -3.31837 145.643 -3.03841C146.945 -2.75071 148.129 -2.06102 148.99 -1.24961C149.91 -0.384146 150.628 0.535206 151.328 1.52016C151.937 2.38291 152.513 3.53563 152.214 4.53283C151.845 5.78309 150.617 6.6035 149.54 7.48148C148.608 8.23955 147.657 8.98983 146.692 9.72243C144.736 11.2017 142.702 12.6431 140.673 14.058C139.566 14.8319 138.35 15.5232 137.185 16.243C136.232 16.8346 135.297 17.2798 134.194 17.5196C134.527 16.7613 134.093 15.7547 133.736 15.092C133.154 14.0038 132.183 13.0458 131.195 12.1747C130.379 11.4564 129.084 11.0068 127.974 10.671C127.468 10.5175 126.817 10.3607 126.276 10.3978C126.042 10.4143 125.818 10.4843 125.601 10.5538C125.763 10.0268 125.964 9.50813 126.327 9.02929C127.073 8.04139 128.103 7.1156 129.133 6.31784C130.09 5.57171 131.137 4.89573 132.165 4.21197Z" fill="#5E9920"/>
<g opacity="0.2">
<path d="M23.3073 94.3192C23.9396 94.6285 24.6707 94.5656 25.3413 94.388C25.4758 94.8203 25.5775 95.2617 25.9186 95.6357C26.293 96.0447 26.8781 96.3591 27.4528 96.5505C27.6927 96.6293 27.9404 96.6934 28.1816 96.7389C27.7276 97.8365 28.2177 98.8316 29.2363 99.7224C29.7642 100.186 30.4765 100.686 31.233 100.896C31.9424 101.092 32.8219 101.013 33.5548 100.961C37.1068 100.705 40.4816 99.4365 43.5724 98.0719C45.2125 97.3504 46.8127 96.5752 48.4081 95.7923C49.965 95.0246 51.3296 94.1151 52.815 93.2696C54.2819 92.4372 55.7421 91.6055 57.1299 90.6907C58.3143 89.9138 59.7126 89.0199 60.5769 87.9936C61.3448 87.0881 60.9844 85.9051 60.4966 84.965C60.2773 84.5391 59.8479 84.0478 59.3293 83.8227C59.1663 83.7521 58.9534 83.6704 58.756 83.6808C58.6106 83.0814 57.8889 82.5474 57.1558 82.3125C57.3902 81.9505 57.4336 81.5347 57.1604 81.1147C56.8691 80.6691 55.9531 80.0209 55.2109 79.936C55.5871 79.6414 56.1157 79.5177 56.548 79.2915C57.0278 79.0408 57.9344 78.6334 58.0565 78.1346C58.1606 77.7122 57.7371 77.3996 57.251 77.3061C56.4353 77.1519 55.334 77.3819 54.5142 77.4681C54.281 77.4907 53.993 77.5137 53.7393 77.5771C53.7911 77.1908 53.6735 76.798 53.2489 76.3972C52.4296 75.6089 50.9947 75.2847 49.7955 75.0756C48.3667 74.828 46.8981 74.8137 45.453 74.9595C42.0705 75.3048 39.0575 76.3768 36.0697 77.6392C33.0654 78.9061 30.2878 80.4381 27.7576 82.2577C26.5202 83.1479 25.3852 84.0961 24.4709 85.2133C24.1116 85.6495 23.8284 86.0886 23.6057 86.5404C23.183 87.1711 22.8744 87.8474 22.8234 88.5647C22.7855 89.115 22.6408 89.6631 22.9014 90.1921C23.1054 90.6086 23.4383 91.0359 23.8792 91.3301C22.9507 92.2199 21.6412 93.4987 23.3073 94.3192ZM52.7958 77.7044C52.6526 78.2 52.103 78.7093 51.7478 79.1286C51.306 79.6455 50.7945 80.0955 50.2131 80.5173C49.1665 81.2765 48.0457 81.9417 46.8618 82.5585C44.4177 83.8281 41.8795 84.9671 39.4011 86.1963C36.9866 87.3964 34.5235 88.5329 31.9532 89.5016C30.6773 89.9795 29.3945 90.4774 28.044 90.7979C27.3109 90.9713 26.5207 91.0709 25.7499 91.0608C24.8895 91.0494 24.3604 90.8227 23.9417 90.2116C23.578 89.6828 23.693 89.1213 23.7264 88.5439C23.7586 87.9803 23.9879 87.4451 24.291 86.9404C24.8737 85.9751 25.7135 85.1087 26.5213 84.2568C26.9879 83.7648 27.4946 83.307 28.0261 82.8741C28.3139 82.6663 28.6161 82.4624 28.9184 82.2586C31.4674 80.5721 34.1728 79.161 37.1196 77.961C39.8287 76.8586 42.5891 75.9381 45.6369 75.6651C47.0038 75.5443 48.3818 75.5712 49.7183 75.8206C50.7962 76.0235 53.1372 76.5087 52.7958 77.7044ZM55.8617 83.2944C56.062 83.1788 56.2958 83.079 56.4973 82.9495C56.6028 82.8829 56.7007 82.8116 56.7909 82.7356C56.9794 82.8558 57.1804 82.9691 57.3786 83.0855C58.0716 83.4903 58.1655 84.0484 57.8336 84.6472C57.4233 85.3925 56.4791 85.8012 55.6913 86.2619C54.8222 86.7701 53.7813 87.2363 52.7192 87.393C52.0927 87.4858 51.4713 87.4457 50.8472 87.3893C50.8723 87.3756 50.9004 87.3587 50.9217 87.3426C51.3488 87.0645 51.639 86.8096 51.8283 86.5269C52.2669 86.5621 52.6843 86.4919 53.202 86.4053C54.2036 86.2359 55.2615 86.0134 56.0682 85.4817C57.1529 84.7653 57.021 83.7561 55.8617 83.2944ZM54.3246 85.6489C53.7169 85.7922 53.1028 85.8975 52.4831 85.9896C52.3356 86.0111 52.1931 86.0211 52.0534 86.028C52.0884 85.889 52.1081 85.7406 52.1154 85.5799C52.3514 85.5542 52.681 85.615 52.8737 85.5968C53.1444 85.5729 53.4202 85.5182 53.6844 85.4564C54.1899 85.338 54.6644 85.1375 54.9881 84.7962C55.2885 84.4794 55.244 84.1946 55.3552 83.8349C55.4157 83.6435 55.544 83.5082 55.7067 83.394C57.4147 84.2596 55.5708 85.3619 54.3246 85.6489ZM29.0842 98.0837C28.9448 97.7651 28.9515 97.4581 28.9987 97.1468C29.5711 97.8957 30.6212 97.7899 31.6044 97.5314C32.8539 97.2027 33.2993 96.6053 33.7843 95.794C34.2123 96.1337 34.9139 96.3445 35.4128 96.4117C36.375 96.5389 37.4525 96.3916 38.3143 96.0442C40.0408 95.3464 41.9309 94.1314 41.9078 92.5036C43.2606 93.2588 45.7979 92.5226 46.9841 91.9606C48.5716 91.2117 50.642 89.4558 50.1009 87.8317C52.5464 88.4683 55.3313 87.1838 57.2603 86.0364C57.994 85.6008 58.6545 84.9553 58.7752 84.2029C60.0918 84.5179 60.5506 86.8984 60.0361 87.6771C59.6905 88.1946 59.062 88.6022 58.5433 89.0089C57.9372 89.4885 57.3448 89.9473 56.6748 90.3732C55.6174 91.048 54.5076 91.6761 53.3864 92.2779C52.2053 92.911 51.1424 93.6554 49.9813 94.3056C47.7037 95.5847 45.2045 96.6698 42.7586 97.7244C40.1754 98.8408 37.2923 99.9098 34.354 100.201C33.6816 100.266 33.0067 100.295 32.3303 100.275C31.5508 100.255 31.0459 100.009 30.4714 99.5938C29.8948 99.1875 29.3414 98.6737 29.0842 98.0837ZM47.3404 89.0777C47.6434 88.7966 47.7771 88.4896 48.0006 88.1647C48.1909 87.8874 48.2858 87.9212 48.6555 87.9142C48.926 87.9097 49.1549 87.9234 49.4296 87.8826C49.5935 87.8565 49.7526 87.8227 49.9137 87.7803C49.9137 87.7803 49.9137 87.7803 49.9176 87.7827C49.7229 89.1363 48.3785 90.554 46.9819 91.274C46.214 91.6691 45.3965 91.9123 44.517 92.0933C44.0792 92.185 43.6427 92.2435 43.1913 92.2345C42.6881 92.223 42.3687 92.1004 41.9972 91.8925C42.4198 91.7914 42.816 91.616 43.1598 91.3938C43.9808 91.7019 45.0742 91.4866 45.8713 91.1628C46.4752 90.9152 46.9083 90.5095 47.193 90.0179C47.3847 89.6881 47.3144 89.3923 47.3404 89.0777ZM46.6482 90.0246C46.4427 90.2732 46.1989 90.5176 45.8835 90.6842C45.3602 90.9618 44.5407 91.1114 43.923 91.093C43.8056 91.0892 43.6922 91.0684 43.5847 91.0415C43.7782 90.8246 43.9084 90.598 44.1244 90.3511C44.4756 89.9488 45.13 90.0626 45.6837 89.9252C46.1449 89.8089 46.5865 89.6175 46.9671 89.3693C46.89 89.5846 46.8302 89.8007 46.6482 90.0246ZM41.3607 92.0278C41.4415 92.1404 41.5368 92.2377 41.6409 92.3257C41.4218 93.7178 40.0364 94.5855 38.63 95.3285C37.9335 95.6993 37.1829 95.8912 36.349 95.9348C35.8213 95.9618 35.3074 95.9486 34.8281 95.7524C34.8463 95.7587 34.4498 95.5452 34.1864 95.4083C34.3505 95.3629 34.5136 95.312 34.6682 95.2511C34.9744 95.1324 35.252 94.9863 35.5001 94.8077C35.6437 94.8859 35.7726 94.9988 35.9231 95.0569C36.1284 95.134 36.338 95.1553 36.5662 95.1443C37.1652 95.1124 37.7887 94.8185 38.2905 94.5764C38.8213 94.3229 39.4172 94.0071 39.7533 93.5762C40.1098 93.1236 40.0628 92.5991 40.159 92.0893C40.2973 91.9115 40.3748 91.9638 40.7056 91.9913C40.9211 92.0066 41.1347 92.011 41.3485 91.996C41.3494 92.0014 41.3513 92.0123 41.3607 92.0278ZM39.0652 93.5681C38.6219 93.9335 37.989 94.1926 37.4267 94.4219C36.8866 94.6406 36.5221 94.8208 35.9394 94.5614C35.9058 94.5457 35.879 94.5293 35.8484 94.5105C35.898 94.4583 35.9505 94.4029 35.9962 94.3483C36.4566 93.799 36.936 93.8931 37.6531 93.7877C38.6709 93.633 39.326 93.1591 39.8364 92.5188C39.6335 92.905 39.3639 93.3233 39.0652 93.5681ZM32.1021 96.8981C31.2019 97.2413 30.2613 97.3656 29.5257 96.7889C30.0575 96.7256 30.5712 96.554 31.0322 96.2529C31.283 96.0904 31.447 95.8409 31.6891 95.6877C32.1025 95.4304 32.6526 95.5776 33.1099 95.561C33.2466 95.5572 33.3892 95.5473 33.527 95.5295C33.5536 95.5653 33.584 95.6033 33.6135 95.636C33.1921 96.1314 32.8218 96.6241 32.1021 96.8981ZM26.0142 94.1632C26.3263 94.0382 26.6221 93.8985 26.9371 93.7705C27.5796 93.5077 28.18 93.4232 28.8805 93.3416C29.3218 93.2909 29.7653 93.2124 30.1368 93.0121C30.5237 92.8018 30.7636 92.4723 31.1744 92.2814C32.0599 91.8708 33.1798 91.9147 34.1277 91.6297C34.9809 91.3743 35.6391 90.878 36.323 90.412C36.785 90.097 37.2409 89.7247 37.7706 89.4851C38.2201 89.2791 38.722 89.2218 39.2213 89.1483C40.2034 89.0058 41.1826 88.7643 41.9718 88.251C42.6468 87.8135 43.0312 87.1594 43.7118 86.7351C44.6102 86.1769 45.917 86.2088 46.9481 85.8678C47.6345 85.6416 48.2468 85.2192 48.6337 84.7027C49.049 84.15 49.075 83.6313 49.9629 83.3777C50.4116 83.2489 50.8866 83.1946 51.3569 83.1325C52.1799 83.0238 52.948 82.9156 53.676 82.5689C54.3499 82.2475 54.7308 81.8585 54.8225 81.2196C54.875 80.858 54.776 80.535 54.9608 80.2252C55.3939 80.2279 55.9498 80.6751 56.217 80.9164C56.7601 81.4092 56.7327 81.9611 56.1369 82.379C55.7193 82.6726 55.1335 82.8438 54.818 83.2339C54.67 83.4155 54.6585 83.6126 54.5969 83.818C54.448 84.3003 54.2105 84.5827 53.5842 84.7583C53.0033 84.9179 52.0578 84.7475 51.5697 85.0708C51.1929 85.3214 51.3998 85.7348 51.2272 86.0763C51.1258 86.1066 51.0528 86.2028 51.0626 86.2818C50.6 86.7568 49.8417 87.1481 49.1263 87.2838C48.6635 87.3699 48.0972 87.2079 47.7182 87.4863C47.5835 87.5837 47.5206 87.7202 47.453 87.8489C47.2533 88.2127 47.1335 88.4602 46.7411 88.74C46.0638 89.2246 45.2701 89.3853 44.3892 89.4148C43.9213 89.4297 43.6885 89.5157 43.4678 89.8569C43.0489 90.49 42.6654 90.9454 41.7433 91.1586C41.1318 91.2995 40.2105 91.0078 39.6736 91.3061C39.215 91.5601 39.2142 92.1478 38.8127 92.4755C38.1279 93.0382 37.3711 93.0707 36.4727 93.1186C35.6898 93.1594 35.6922 93.6227 35.2502 94.0569C34.6955 94.5971 33.7975 94.8105 32.9568 94.8549C32.3886 94.8862 31.8573 94.7894 31.3972 95.0959C30.6747 95.5772 30.3065 96.1441 29.2295 96.1507C28.4103 96.1596 27.4546 95.9489 26.842 95.4913C26.3393 95.1155 26.2467 94.6262 26.0142 94.1632ZM23.5335 92.8877C23.7697 92.4344 24.2237 92.0513 24.5923 91.6499C25.6261 91.9377 26.9948 91.7256 27.9747 91.5088C29.4437 91.1783 30.8361 90.5968 32.2154 90.0801C35.423 88.8793 38.413 87.385 41.5011 86.0041C44.3592 84.7255 47.3476 83.4051 49.8812 81.7286C51.1354 80.8972 52.1455 80.0233 53.0279 78.9206C53.2636 78.6274 53.4723 78.3372 53.6088 78.0465C53.9409 77.9387 54.5298 77.9492 54.7947 77.9315C55.2059 77.9062 55.6151 77.8893 56.0291 77.8802C56.2206 77.876 56.5196 77.8159 56.702 77.8595C57.6872 78.1029 57.1386 78.1073 56.9694 78.2857C56.6953 78.5748 56.1146 78.8172 55.7338 78.9826C55.1578 79.2328 54.5432 79.4981 54.2574 80.0037C53.9118 80.6233 54.3836 81.3252 53.6694 81.8358C52.4825 82.6792 50.6145 82.3524 49.2454 82.9093C48.5189 83.2034 48.3732 83.6441 48.0016 84.1699C47.5598 84.789 46.8463 85.1202 46.0197 85.3093C45.2461 85.4871 44.3887 85.5747 43.6773 85.8975C43.1002 86.1615 42.7142 86.5814 42.3243 86.9989C41.7186 87.644 41.0542 88.083 40.096 88.3471C39.4466 88.5279 38.7543 88.5562 38.1021 88.7208C36.4726 89.1378 35.4907 90.4858 33.883 90.9307C33.1545 91.1312 32.365 91.1535 31.629 91.33C30.8997 91.5057 30.4524 91.786 29.9049 92.1848C29.2352 92.6741 28.4305 92.5849 27.6201 92.7888C26.8261 92.9881 26.1772 93.4172 25.4069 93.6553C24.6413 93.9012 22.96 93.99 23.5335 92.8877Z" fill="#5E9920"/>
<path d="M47.5324 86.1468C48.1158 85.8186 48.847 85.7557 49.4379 85.4516C49.6304 85.3507 50.0253 85.1064 50.0004 84.8967C49.9933 84.834 49.8735 84.7753 49.8626 84.7103C49.8434 84.5965 49.7632 84.5279 49.8145 84.4038C49.9307 84.1153 50.3102 84.1872 50.6017 84.2052C51.5925 84.2576 52.8794 83.8447 53.1358 82.981C53.1696 82.8753 53.3744 82.8889 53.3724 82.9995C53.3763 83.6142 52.9971 84.014 52.3787 84.3791C52.0912 84.5483 51.7679 84.6468 51.419 84.6957C51.2041 84.7246 50.8649 84.7697 50.6294 84.7374C50.8554 85.0604 50.5483 85.48 50.2479 85.6947C49.5619 86.1885 48.5499 86.4391 47.6496 86.4761C47.4243 86.484 47.3631 86.2424 47.5324 86.1468Z" fill="#5E9920"/>
<path d="M40.8061 89.4688C41.3685 89.4436 42.0628 89.6109 42.6016 89.4255C43.0689 89.2644 43.3037 89.0679 43.3844 88.6702C43.4096 88.5543 43.3511 88.431 43.4214 88.3185C43.4996 88.1914 43.5014 88.2023 43.66 88.1244C43.6977 88.1037 44.5397 88.0261 44.4451 88.0557C44.989 87.9414 45.3433 87.7209 45.4835 87.2477C45.5103 87.162 45.6902 87.1701 45.6854 87.2644C45.655 87.7367 45.4365 88.1521 44.8667 88.3575C44.578 88.4578 44.4292 88.4105 44.1336 88.4288C43.784 88.453 43.818 88.2065 43.7535 88.7211C43.7442 88.7883 43.7907 88.8605 43.7679 88.9292C43.4647 89.9635 41.6959 90.3487 40.6891 89.7325C40.5349 89.6527 40.6492 89.4748 40.8061 89.4688Z" fill="#5E9920"/>
<path d="M33.8447 92.4393C34.4626 92.5404 34.9901 92.0225 35.5927 91.9101C36.2425 91.7927 37.5097 91.8344 37.3786 91.0348C37.354 90.8885 37.6566 90.8501 37.7014 90.9942C37.9428 91.837 37.1315 92.2396 36.1627 92.2979C35.6764 92.3259 35.4272 92.3143 35.0222 92.6011C34.8226 92.7413 34.7107 92.8721 34.4415 92.9455C34.0642 93.0499 33.7864 93.0111 33.552 92.7607C33.4023 92.6059 33.6332 92.407 33.8447 92.4393Z" fill="#5E9920"/>
</g>
<g opacity="0.2">
<path d="M211.893 95.9754C212.526 96.2847 213.257 96.2219 213.927 96.0442C214.062 96.4765 214.163 96.9179 214.505 97.2919C214.879 97.7009 215.464 98.0153 216.039 98.2067C216.279 98.2855 216.526 98.3497 216.768 98.3952C216.313 99.4928 216.804 100.488 217.822 101.379C218.35 101.843 219.062 102.342 219.819 102.552C220.528 102.748 221.408 102.669 222.141 102.617C225.693 102.361 229.068 101.093 232.158 99.7282C233.798 99.0066 235.399 98.2315 236.994 97.4486C238.551 96.6809 239.916 95.7713 241.401 94.9259C242.868 94.0935 244.328 93.2618 245.716 92.3469C246.9 91.57 248.299 90.6761 249.163 89.6498C249.931 88.7443 249.57 87.5614 249.083 86.6212C248.863 86.1953 248.434 85.704 247.915 85.479C247.752 85.4084 247.539 85.3267 247.342 85.3371C247.197 84.7377 246.475 84.2036 245.742 83.9687C245.976 83.6067 246.02 83.1909 245.746 82.7709C245.455 82.3253 244.539 81.6772 243.797 81.5923C244.173 81.2976 244.702 81.174 245.134 80.9477C245.614 80.697 246.52 80.2896 246.642 79.7908C246.747 79.3685 246.323 79.0558 245.837 78.9624C245.021 78.8082 243.92 79.0381 243.1 79.1244C242.867 79.1469 242.579 79.1699 242.325 79.2334C242.377 78.847 242.259 78.4543 241.835 78.0535C241.016 77.2652 239.581 76.941 238.381 76.7319C236.953 76.4843 235.484 76.4699 234.039 76.6158C230.656 76.961 227.643 78.033 224.656 79.2954C221.651 80.5624 218.874 82.0943 216.344 83.9139C215.106 84.8042 213.971 85.7523 213.057 86.8695C212.698 87.3058 212.414 87.7448 212.192 88.1966C211.769 88.8274 211.46 89.5036 211.409 90.2209C211.371 90.7713 211.227 91.3194 211.487 91.8483C211.691 92.2648 212.024 92.6922 212.465 92.9864C211.537 93.8762 210.227 95.1549 211.893 95.9754ZM241.382 79.3606C241.239 79.8562 240.689 80.3655 240.334 80.7848C239.892 81.3018 239.38 81.7518 238.799 82.1736C237.752 82.9327 236.632 83.5979 235.448 84.2147C233.004 85.4843 230.465 86.6234 227.987 87.8525C225.572 89.0527 223.109 90.1891 220.539 91.1579C219.263 91.6357 217.98 92.1337 216.63 92.4541C215.897 92.6275 215.107 92.7271 214.336 92.717C213.475 92.7056 212.946 92.4789 212.528 91.8678C212.164 91.339 212.279 90.7775 212.312 90.2001C212.345 89.6366 212.574 89.1013 212.877 88.5967C213.46 87.6313 214.299 86.765 215.107 85.9131C215.574 85.421 216.081 84.9632 216.612 84.5303C216.9 84.3225 217.202 84.1187 217.504 83.9148C220.053 82.2283 222.759 80.8173 225.706 79.6173C228.415 78.5148 231.175 77.5944 234.223 77.3214C235.59 77.2005 236.968 77.2275 238.304 77.4768C239.382 77.6798 241.723 78.1649 241.382 79.3606ZM244.448 84.9506C244.648 84.8351 244.882 84.7352 245.083 84.6058C245.189 84.5391 245.287 84.4678 245.377 84.3918C245.565 84.512 245.766 84.6254 245.965 84.7418C246.658 85.1465 246.751 85.7047 246.42 86.3035C246.009 87.0487 245.065 87.4575 244.277 87.9182C243.408 88.4263 242.367 88.8925 241.305 89.0492C240.679 89.1421 240.057 89.102 239.433 89.0456C239.458 89.0318 239.486 89.015 239.508 88.9989C239.935 88.7208 240.225 88.4658 240.414 88.1832C240.853 88.2183 241.27 88.1481 241.788 88.0616C242.79 87.8921 243.847 87.6697 244.654 87.1379C245.739 86.4215 245.607 85.4124 244.448 84.9506ZM242.911 87.3052C242.303 87.4484 241.689 87.5537 241.069 87.6458C240.922 87.6674 240.779 87.6773 240.639 87.6842C240.674 87.5452 240.694 87.3969 240.701 87.2361C240.937 87.2105 241.267 87.2712 241.46 87.2531C241.73 87.2292 242.006 87.1744 242.27 87.1126C242.776 86.9943 243.25 86.7938 243.574 86.4524C243.874 86.1357 243.83 85.8508 243.941 85.4912C244.002 85.2998 244.13 85.1645 244.293 85.0502C246.001 85.9158 244.157 87.0181 242.911 87.3052ZM217.67 99.74C217.531 99.4213 217.537 99.1144 217.585 98.803C218.157 99.5519 219.207 99.4462 220.19 99.1877C221.44 98.8589 221.885 98.2616 222.37 97.4503C222.798 97.79 223.5 98.0007 223.999 98.0679C224.961 98.1952 226.038 98.0478 226.9 97.7005C228.627 97.0026 230.517 95.7877 230.494 94.1598C231.847 94.915 234.384 94.1788 235.57 93.6169C237.157 92.8679 239.228 91.1121 238.687 89.488C241.132 90.1246 243.917 88.84 245.846 87.6926C246.58 87.2571 247.24 86.6116 247.361 85.8591C248.678 86.1741 249.137 88.5547 248.622 89.3333C248.276 89.8509 247.648 90.2584 247.129 90.6651C246.523 91.1447 245.931 91.6036 245.261 92.0294C244.203 92.7043 243.093 93.3324 241.972 93.9341C240.791 94.5672 239.728 95.3116 238.567 95.9619C236.29 97.2409 233.79 98.3261 231.345 99.3807C228.761 100.497 225.878 101.566 222.94 101.857C222.268 101.922 221.593 101.951 220.916 101.931C220.137 101.911 219.632 101.665 219.057 101.25C218.481 100.844 217.927 100.33 217.67 99.74ZM235.926 90.734C236.229 90.4528 236.363 90.1459 236.587 89.8209C236.777 89.5437 236.872 89.5775 237.241 89.5705C237.512 89.5659 237.741 89.5797 238.016 89.5388C238.179 89.5128 238.339 89.4789 238.5 89.4366C238.5 89.4366 238.5 89.4366 238.504 89.4389C238.309 90.7925 236.964 92.2103 235.568 92.9302C234.8 93.3253 233.982 93.5686 233.103 93.7496C232.665 93.8413 232.229 93.8997 231.777 93.8908C231.274 93.8792 230.955 93.7567 230.583 93.5487C231.006 93.4477 231.402 93.2722 231.746 93.0501C232.567 93.3582 233.66 93.1429 234.457 92.8191C235.061 92.5714 235.494 92.1658 235.779 91.6741C235.971 91.3444 235.9 91.0485 235.926 90.734ZM235.234 91.6809C235.029 91.9294 234.785 92.1738 234.469 92.3405C233.946 92.618 233.127 92.7677 232.509 92.7492C232.392 92.7454 232.278 92.7247 232.171 92.6977C232.364 92.4808 232.494 92.2543 232.71 92.0074C233.062 91.6051 233.716 91.7189 234.27 91.5815C234.731 91.4652 235.172 91.2738 235.553 91.0256C235.476 91.2408 235.416 91.457 235.234 91.6809ZM229.947 93.684C230.027 93.7967 230.123 93.8939 230.227 93.9819C230.008 95.374 228.622 96.2417 227.216 96.9848C226.519 97.3556 225.769 97.5474 224.935 97.5911C224.407 97.618 223.893 97.6049 223.414 97.4087C223.432 97.415 223.036 97.2014 222.772 97.0645C222.936 97.0191 223.1 96.9683 223.254 96.9074C223.56 96.7886 223.838 96.6426 224.086 96.4639C224.23 96.5421 224.359 96.655 224.509 96.7132C224.714 96.7902 224.924 96.8116 225.152 96.8006C225.751 96.7687 226.375 96.4747 226.876 96.2326C227.407 95.9791 228.003 95.6634 228.339 95.2324C228.696 94.7799 228.649 94.2553 228.745 93.7456C228.883 93.5678 228.961 93.6201 229.292 93.6476C229.507 93.6628 229.721 93.6672 229.934 93.6523C229.935 93.6577 229.937 93.6685 229.947 93.684ZM227.651 95.2244C227.208 95.5898 226.575 95.8488 226.013 96.0782C225.473 96.2968 225.108 96.4771 224.525 96.2176C224.492 96.2019 224.465 96.1855 224.434 96.1668C224.484 96.1145 224.536 96.0591 224.582 96.0045C225.043 95.4552 225.522 95.5494 226.239 95.4439C227.257 95.2893 227.912 94.8154 228.422 94.1751C228.219 94.5613 227.95 94.9795 227.651 95.2244ZM220.688 98.5543C219.788 98.8976 218.847 99.0218 218.112 98.4451C218.643 98.3818 219.157 98.2102 219.618 97.9091C219.869 97.7467 220.033 97.4971 220.275 97.344C220.688 97.0867 221.239 97.2338 221.696 97.2173C221.833 97.2135 221.975 97.2035 222.113 97.1858C222.14 97.2215 222.17 97.2596 222.199 97.2922C221.778 97.7877 221.408 98.2803 220.688 98.5543ZM214.6 95.8194C214.912 95.6945 215.208 95.5548 215.523 95.4268C216.166 95.1639 216.766 95.0794 217.466 94.9978C217.908 94.9472 218.351 94.8686 218.723 94.6683C219.11 94.458 219.35 94.1285 219.76 93.9377C220.646 93.527 221.766 93.571 222.714 93.286C223.567 93.0306 224.225 92.5342 224.909 92.0682C225.371 91.7532 225.827 91.381 226.357 91.1414C226.806 90.9353 227.308 90.8781 227.807 90.8045C228.789 90.662 229.769 90.4205 230.558 89.9072C231.233 89.4698 231.617 88.8156 232.298 88.3914C233.196 87.8331 234.503 87.865 235.534 87.5241C236.22 87.2978 236.833 86.8755 237.22 86.3589C237.635 85.8063 237.661 85.2876 238.549 85.0339C238.998 84.9052 239.473 84.8508 239.943 84.7887C240.766 84.6801 241.534 84.5718 242.262 84.2252C242.936 83.9037 243.317 83.5148 243.408 82.8758C243.461 82.5143 243.362 82.1912 243.547 81.8815C243.98 81.8841 244.536 82.3313 244.803 82.5727C245.346 83.0655 245.319 83.6174 244.723 84.0352C244.305 84.3288 243.719 84.5 243.404 84.8902C243.256 85.0718 243.244 85.2689 243.183 85.4742C243.034 85.9566 242.796 86.2389 242.17 86.4145C241.589 86.5742 240.644 86.4037 240.156 86.7271C239.779 86.9777 239.986 87.3911 239.813 87.7326C239.712 87.7629 239.639 87.8591 239.649 87.938C239.186 88.4131 238.428 88.8044 237.712 88.94C237.249 89.0261 236.683 88.8642 236.304 89.1426C236.169 89.24 236.107 89.3764 236.039 89.5052C235.839 89.8689 235.719 90.1164 235.327 90.3963C234.65 90.8809 233.856 91.0416 232.975 91.071C232.507 91.0859 232.274 91.1719 232.054 91.5131C231.635 92.1462 231.251 92.6017 230.329 92.8149C229.718 92.9558 228.796 92.6641 228.259 92.9624C227.801 93.2163 227.8 93.804 227.399 94.1318C226.714 94.6944 225.957 94.7269 225.059 94.7748C224.276 94.8157 224.278 95.2789 223.836 95.7131C223.281 96.2534 222.383 96.4667 221.543 96.5111C220.975 96.5425 220.443 96.4457 219.983 96.7522C219.261 97.2334 218.892 97.8003 217.815 97.8069C216.996 97.8159 216.041 97.6051 215.428 97.1475C214.925 96.7717 214.833 96.2825 214.6 95.8194ZM212.119 94.5439C212.356 94.0907 212.81 93.7076 213.178 93.3062C214.212 93.5939 215.581 93.3819 216.561 93.1651C218.03 92.8346 219.422 92.253 220.801 91.7363C224.009 90.5356 226.999 89.0412 230.087 87.6604C232.945 86.3817 235.934 85.0613 238.467 83.3848C239.721 82.5534 240.731 81.6796 241.614 80.5768C241.85 80.2837 242.058 79.9934 242.195 79.7027C242.527 79.5949 243.116 79.6055 243.381 79.5877C243.792 79.5624 244.201 79.5456 244.615 79.5365C244.807 79.5322 245.106 79.4722 245.288 79.5158C246.273 79.7592 245.725 79.7636 245.555 79.942C245.281 80.231 244.701 80.4734 244.32 80.6389C243.744 80.889 243.129 81.1544 242.843 81.6599C242.498 82.2795 242.969 82.9814 242.255 83.4921C241.068 84.3355 239.2 84.0086 237.831 84.5656C237.105 84.8597 236.959 85.3003 236.588 85.8262C236.146 86.4452 235.432 86.7765 234.606 86.9656C233.832 87.1434 232.975 87.2309 232.263 87.5537C231.686 87.8178 231.3 88.2376 230.91 88.6551C230.305 89.3002 229.64 89.7393 228.682 90.0033C228.033 90.1842 227.34 90.2125 226.688 90.3771C225.059 90.794 224.077 92.1421 222.469 92.587C221.74 92.7875 220.951 92.8098 220.215 92.9862C219.486 93.162 219.038 93.4423 218.491 93.8411C217.821 94.3303 217.016 94.2412 216.206 94.445C215.412 94.6443 214.763 95.0734 213.993 95.3116C213.227 95.5575 211.546 95.6462 212.119 94.5439Z" fill="#5E9920"/>
<path d="M229.392 91.125C229.954 91.0998 230.649 91.2672 231.188 91.0818C231.655 90.9207 231.89 90.7241 231.97 90.3264C231.996 90.2106 231.937 90.0873 232.007 89.9748C232.086 89.8477 232.087 89.8585 232.246 89.7806C232.284 89.76 233.126 89.6823 233.031 89.7119C233.575 89.5977 233.929 89.3771 234.069 88.904C234.096 88.8183 234.276 88.8263 234.271 88.9207C234.241 89.3929 234.022 89.8084 233.453 90.0137C233.164 90.114 233.015 90.0667 232.72 90.0851C232.37 90.1092 232.404 89.8628 232.339 90.3774C232.33 90.4446 232.377 90.5168 232.354 90.5855C232.051 91.6198 230.282 92.005 229.275 91.3888C229.121 91.3089 229.235 91.131 229.392 91.125Z" fill="#5E9920"/>
<path d="M222.431 94.0955C223.049 94.1967 223.576 93.6787 224.179 93.5664C224.828 93.4489 226.096 93.4906 225.965 92.691C225.94 92.5448 226.243 92.5064 226.287 92.6505C226.529 93.4933 225.717 93.8958 224.749 93.9541C224.262 93.9821 224.013 93.9706 223.608 94.2573C223.409 94.3976 223.297 94.5284 223.027 94.6018C222.65 94.7062 222.372 94.6674 222.138 94.4169C221.988 94.2622 222.219 94.0633 222.431 94.0955Z" fill="#5E9920"/>
</g>
<g opacity="0.2">
<path d="M207.553 -3.72522C205.049 -4.40487 202.652 -3.37632 200.673 -2.03966C200.374 -2.32512 199.951 -2.57885 199.719 -2.77369C198.93 -3.43069 198.084 -4.03331 197.238 -4.64047C196.561 -5.12075 196.054 -5.59199 195.101 -5.6373C194.339 -5.67354 193.583 -5.41076 193.025 -5.00297C192.016 -4.26894 191.559 -2.61511 192.557 -1.76328C193.882 -0.635055 195.439 0.157859 197.041 0.968912C196.166 1.79809 195.343 2.67258 194.638 3.58332C193.86 4.5892 193.662 5.77182 194.356 6.85473C195.117 8.04639 196.719 9.10663 197.96 9.95847C199.578 11.0686 201.135 12.2648 202.816 13.3114C204.445 14.3264 206.211 15.2552 207.959 16.1342C208.856 16.5828 209.792 17.0133 210.768 17.3848C212.454 18.1188 214.219 18.7124 216.069 19.0386C219.396 19.6231 223.592 19.1247 225.978 16.9906C228.504 14.7342 227.98 11.5942 226.141 9.20179C225.132 7.8878 223.812 6.75503 222.453 5.67665C220.885 4.43062 219.289 3.22083 217.597 2.07902C214.54 -0.000720963 211.416 -2.67402 207.553 -3.72522ZM199.934 -1.51408C199.437 -1.14253 198.975 -0.761919 198.552 -0.399437C198.191 -0.0913282 197.83 0.230363 197.48 0.552065C196.618 0.0309981 195.648 -0.372262 194.847 -0.947701C194.328 -1.31924 193.815 -1.72703 193.341 -2.13483C192.873 -2.53809 192.856 -3.07273 193.036 -3.62099C193.273 -4.35048 194.305 -4.96671 195.264 -4.82172C195.952 -4.7175 196.482 -4.14661 196.995 -3.78412C197.999 -3.07728 199.048 -2.33872 199.934 -1.51408ZM209.459 -2.18012C206.758 -0.888785 204.395 1.1683 202.522 3.14382C201.31 4.42157 200.142 5.69932 199.048 7.04956C198.71 7.46641 197.949 8.14152 197.689 8.76227C197.294 8.45869 196.917 8.15059 196.533 7.83342C195.8 7.23079 195.044 6.63724 194.937 5.74916C194.762 4.2947 196.262 3.06226 197.323 2.01107C198.513 0.828472 199.736 -0.3496 201.191 -1.33736C202.449 -2.19372 204.321 -3.30836 206.058 -3.20868C207.209 -3.14524 208.399 -2.70119 209.459 -2.18012ZM215.003 1.24986C216.464 2.2195 217.941 3.16648 219.34 4.19502C221.985 6.13883 224.963 8.20042 226.395 10.91C227.162 12.3599 227.134 13.8687 226.327 15.3051C225.515 16.7414 223.869 17.6431 222.047 18.1415C218.635 19.0794 214.958 18.2865 211.839 17.0268C208.72 15.7627 205.72 14.05 202.951 12.3463C201.53 11.4718 200.171 10.5203 198.823 9.57785C198.591 9.41473 198.349 9.25163 198.112 9.08398C198.885 8.33636 199.55 7.4936 200.25 6.7052C201.259 5.56338 202.314 4.47593 203.402 3.38395C204.395 2.39166 205.545 1.45375 206.679 0.565672C207.31 0.06726 207.959 -0.408513 208.636 -0.866146C209.132 -1.20597 209.702 -1.46423 210.209 -1.79046C210.401 -1.68625 210.587 -1.58204 210.768 -1.48236C212.245 -0.644119 213.61 0.321002 215.003 1.24986Z" fill="#5E9920"/>
<path d="M213.91 11.2784C211.97 10.1456 210.053 8.99926 208.073 7.90728C206.827 7.2231 204.91 5.83662 203.252 6.16739C201.988 6.42112 201.543 7.69434 202.045 8.57336C202.817 9.93266 204.791 10.9476 206.229 11.804C207.944 12.8235 209.681 13.8203 211.525 14.6857C212.766 15.2702 214.063 15.8456 215.411 16.2987C216.702 16.8153 218.101 17.2231 219.482 16.9421C219.889 16.8606 220.261 16.6522 220.469 16.3622C220.526 16.3078 220.582 16.2489 220.633 16.1855C220.684 16.122 220.667 16.0586 220.622 16.0133C220.633 15.9408 220.639 15.8638 220.627 15.7867C220.565 15.2521 219.849 14.9304 219.398 14.6041C217.678 13.3536 215.783 12.3703 213.91 11.2784ZM217.565 14.0106C217.965 14.2643 218.338 14.5452 218.727 14.8126C219.003 15.0074 219.584 15.2475 219.764 15.4967C219.781 15.9997 219.652 16.335 219.381 16.5117C218.056 16.7835 216.234 16.045 215.174 15.6644C213.301 14.9938 211.497 14.1646 209.799 13.2448C208.147 12.3522 206.539 11.3826 205.022 10.345C204.255 9.81937 203.488 9.24393 202.941 8.55975C202.642 8.18821 202.507 7.70792 202.783 7.29107C203.195 6.67032 203.894 6.7564 204.594 6.96936C206.46 7.5312 208.192 8.69568 209.816 9.60641C211.57 10.5851 213.262 11.6272 215.038 12.5788C215.901 13.0364 216.759 13.4986 217.565 14.0106Z" fill="#5E9920"/>
<path d="M218.168 6.87995C216.228 5.7472 214.311 4.60085 212.331 3.50887C211.085 2.82469 209.167 1.43818 207.509 1.76895C206.246 2.02268 205.801 3.2959 206.302 4.17492C207.075 5.53422 209.049 6.54918 210.487 7.40554C212.202 8.42502 213.939 9.42184 215.783 10.2873C217.023 10.8718 218.321 11.4517 219.668 11.9003C220.96 12.4168 222.359 12.8247 223.74 12.5437C224.146 12.4622 224.519 12.2537 224.727 11.9637C224.784 11.9094 224.84 11.8505 224.891 11.787C224.942 11.7236 224.925 11.6602 224.88 11.6148C224.891 11.5423 224.896 11.4653 224.885 11.3883C224.823 10.8536 224.107 10.5319 223.656 10.2057C221.936 8.95514 220.041 7.97193 218.168 6.87995ZM221.823 9.61214C222.223 9.86588 222.595 10.1468 222.985 10.4141C223.261 10.609 223.842 10.8491 224.022 11.0983C224.039 11.6013 223.909 11.9366 223.639 12.1133C222.313 12.3851 220.492 11.6466 219.432 11.266C217.559 10.5954 215.755 9.7662 214.057 8.8464C212.405 7.95379 210.797 6.98417 209.28 5.94656C208.513 5.42096 207.746 4.84552 207.199 4.16134C206.9 3.7898 206.765 3.30949 207.041 2.89263C207.453 2.27188 208.152 2.35799 208.852 2.57095C210.718 3.13279 212.45 4.29727 214.074 5.208C215.828 6.1867 217.52 7.22884 219.296 8.18035C220.159 8.63799 221.016 9.10014 221.823 9.61214Z" fill="#5E9920"/>
</g>
<g opacity="0.2">
<path d="M68.5327 43.8541C69.6341 46.3753 71.8579 48.5827 74.5847 50.086C77.4793 51.6825 81.0577 53.1237 84.5919 53.415C86.0423 53.5349 87.6475 53.3287 89.0054 52.9039C90.1538 52.5446 91.0752 51.6832 91.7361 50.822C92.9324 50.3592 93.7608 49.136 94.2734 48.2272C94.8557 47.1937 94.8137 46.0501 94.5888 44.9529C94.0685 42.4383 92.4805 40.179 90.3294 38.3346C88.7357 36.9669 86.8872 35.628 84.8396 34.6314C83.4735 33.8653 81.9948 33.2932 80.4003 33.1382C77.221 32.8328 73.3356 34.1626 71.4394 36.2425C71.1074 36.6071 70.8298 37.0229 70.6614 37.4681C68.2692 38.812 67.6165 41.7478 68.5327 43.8541ZM92.1335 49.5097C91.5412 50.0837 90.8529 50.3728 89.9181 50.1508C89.0973 49.9605 88.7891 49.4628 88.1564 49.0821C87.4922 48.6817 86.9366 48.8855 86.3782 49.3026C85.3626 50.0682 83.7976 50.7008 82.9481 49.3574C82.5918 48.7904 82.835 47.8306 82.1492 47.4149C81.5969 47.0765 80.8973 47.4546 80.4192 47.7047C79.7308 48.067 78.9804 48.5523 78.0904 48.3406C77.3221 48.1588 76.9996 47.4714 76.8021 46.9098C76.5796 46.2738 76.7327 45.2306 76.1515 44.6959C75.8477 44.4198 75.4395 44.4354 75.0244 44.3695C74.0866 44.2246 73.271 43.9269 73.1702 43.0751C73.0735 42.2357 73.4903 41.288 73.1339 40.4752C72.9967 40.1662 72.784 40.0994 72.4701 39.9285C71.7912 39.5579 71.3391 39.1611 71.3233 38.4636C71.3203 38.2583 71.3474 38.0564 71.392 37.8574C71.5967 37.7531 71.6147 37.5731 71.531 37.4352C71.8479 36.6819 72.4811 35.9961 73.1776 35.4859C75.3063 33.9368 78.9758 33.2918 81.7094 34.0296C83.1157 34.4115 84.4341 35.2444 85.6262 35.9354C86.7769 36.6021 87.854 37.3446 88.9178 38.0966C89.2776 38.4037 89.622 38.7142 89.9517 39.0179C91.9915 40.8999 93.5216 43.3312 93.7149 45.8571C93.8369 47.2259 93.2121 48.4646 92.1335 49.5097ZM69.1863 40.8351C69.4544 40.0227 69.8289 39.1706 70.5006 38.513C70.5115 38.6435 70.53 38.7723 70.5661 38.904C70.6903 39.3587 70.9624 39.7613 71.3978 40.0719C71.6047 40.2196 71.9272 40.3056 72.1033 40.46C72.5176 40.8184 72.3692 41.3723 72.3059 41.798C72.1698 42.7445 72.0078 43.7364 72.9315 44.4658C73.4221 44.8541 74.1401 44.997 74.7979 45.0965C75.1556 45.1516 75.3356 45.1091 75.5022 45.3951C75.6437 45.6434 75.5806 45.996 75.6219 46.2661C75.773 47.1933 76.2362 48.4214 77.3785 48.8541C78.4074 49.245 79.4682 48.908 80.3068 48.3902C80.5607 48.2353 80.9215 47.8579 81.2311 47.8072C81.9245 47.693 82.0604 48.1949 82.1231 48.6265C82.1796 49.0029 82.2417 49.3714 82.4677 49.711C82.9399 50.4255 83.9098 50.9355 84.9352 50.7392C85.4788 50.6343 86.0409 50.3759 86.468 50.097C86.6643 49.9679 86.8379 49.7342 87.0663 49.6513C87.4952 49.4883 87.7801 49.7818 88.0651 50.0388C88.8126 50.7234 89.8918 51.1531 90.9998 51.0053C90.2175 51.6903 89.2793 52.2564 88.1599 52.4931C86.6321 52.8186 85.1827 52.8979 83.629 52.631C80.7289 52.1354 78.1427 51.0001 75.6469 49.7654C73.0973 48.5059 71.1458 46.628 69.8565 44.4699C69.1795 43.3315 68.7779 42.09 69.1863 40.8351Z" fill="#5E9920"/>
<path d="M78.5431 40.8238C79.6081 42.7948 81.6538 44.2403 84.1149 45.0407C86.1338 45.6947 88.24 44.7418 87.4975 42.8934C86.6611 40.8029 84.8353 39.3229 82.595 38.159C82.4607 38.0918 82.3581 38.2536 82.4769 38.3241C83.9744 39.2344 85.2705 40.308 86.108 41.6773C86.4336 42.2145 86.8617 42.9453 86.8434 43.5538C86.8349 43.8846 86.6866 44.1194 86.46 44.2817C86.4594 43.1257 85.464 42.196 84.118 41.7844C83.2917 41.5289 83.0922 41.2433 82.6819 40.6881C82.4767 40.4104 82.2241 40.09 81.8807 39.9055C80.9998 39.426 79.9145 39.9974 78.9871 39.6011C78.9088 39.565 78.8311 39.5553 78.7646 39.5664C78.7278 38.8801 79.1479 38.3104 80.4207 38.5785C80.7048 38.6363 80.8156 38.29 80.5343 38.2282C79.6953 38.0452 79.01 38.0115 78.4931 38.6621C77.9467 39.3356 78.1653 40.1319 78.5431 40.8238ZM78.9296 40.2282C79.4318 40.418 79.7789 40.2329 80.4286 40.2345C81.4956 40.2351 81.809 40.6254 82.24 41.2791C82.3747 41.4824 82.4695 41.6412 82.6855 41.8035C83.3542 42.3159 84.3954 42.2523 85.0607 42.7787C85.6036 43.2121 85.8743 43.8808 86.0157 44.4846C85.5904 44.597 85.071 44.577 84.6218 44.4587C83.1244 44.0767 81.7073 43.2453 80.6629 42.3296C80.0537 41.7977 79.5118 41.2079 79.1052 40.5654C79.0368 40.4607 78.9818 40.3464 78.9296 40.2282Z" fill="#5E9920"/>
</g>
</g>
</svg>
