<svg width="20" height="20" viewBox="0 0 20 20" fill="none" xmlns="http://www.w3.org/2000/svg">
<path fill-rule="evenodd" clip-rule="evenodd" d="M10.0013 17.5C9.54106 17.5 9.16797 17.1492 9.16797 16.7164L9.16797 3.28358C9.16797 2.85082 9.54107 2.5 10.0013 2.5C10.4615 2.5 10.8346 2.85082 10.8346 3.28358L10.8346 16.7164C10.8346 17.1492 10.4615 17.5 10.0013 17.5Z" fill="black"/>
<path fill-rule="evenodd" clip-rule="evenodd" d="M17.5 10.0026C17.5 10.4628 17.1492 10.8359 16.7164 10.8359L3.28358 10.8359C2.85082 10.8359 2.5 10.4628 2.5 10.0026C2.5 9.54237 2.85082 9.16927 3.28358 9.16927L16.7164 9.16927C17.1492 9.16927 17.5 9.54237 17.5 10.0026Z" fill="black"/>
</svg>
