<svg width="32" height="32" viewBox="0 0 32 32" fill="none" xmlns="http://www.w3.org/2000/svg">
<path d="M9.8721 7.18951H19.7456C20.005 7.18951 20.2153 6.9792 20.2153 6.71976C20.2153 6.46031 20.005 6.25 19.7456 6.25H9.8721C9.61265 6.25 9.40234 6.46031 9.40234 6.71976C9.40234 6.9792 9.61265 7.18951 9.8721 7.18951Z" fill="white"/>
<path d="M1.04007 11.7832H10.9135C11.1729 11.7832 11.3832 11.5729 11.3832 11.3134C11.3832 11.054 11.1729 10.8438 10.9135 10.8438H1.04007C0.780623 10.8438 0.570312 11.054 0.570312 11.3134C0.570312 11.5729 0.780623 11.7832 1.04007 11.7832Z" fill="white"/>
<path d="M3.69141 16.6103C3.69141 16.8698 3.90172 17.0801 4.16116 17.0801H14.0346C14.294 17.0801 14.5043 16.8698 14.5043 16.6103C14.5043 16.3509 14.294 16.1406 14.0346 16.1406H4.16116C3.90172 16.1406 3.69141 16.3509 3.69141 16.6103Z" fill="white"/>
<path d="M9.34106 22.0703H0.469756C0.210311 22.0703 0 22.2806 0 22.54C0 22.7994 0.210311 23.0098 0.469756 23.0098H9.34106C9.60051 23.0098 9.81082 22.7994 9.81082 22.54C9.81082 22.2806 9.60051 22.0703 9.34106 22.0703Z" fill="white"/>
<path d="M25.3045 10.1316C26.7214 10.1316 27.8701 8.9828 27.8701 7.56579C27.8701 6.14878 26.7213 5 25.3045 5C23.8872 5 22.7383 6.14884 22.7383 7.56579C22.7382 8.9828 23.8871 10.1316 25.3045 10.1316Z" fill="white"/>
<path d="M29.5259 9.39C28.0526 11.4537 26.0797 11.6927 23.9568 10.4324C23.8123 10.3467 23.1711 9.99345 23.0292 9.90908C19.614 7.88167 16.2029 8.67674 13.9152 11.8803C12.9431 13.2429 15.1915 14.5344 16.1527 13.1877C17.3347 11.5325 18.8376 11.0536 20.4813 11.5779C19.6397 13.0388 18.9038 14.4908 17.8655 16.5538C16.827 18.6167 14.534 20.2642 12.3307 18.9757C10.7409 18.0465 9.30721 20.3304 10.8922 21.2567C13.9002 23.0147 17.4271 21.9352 19.2276 19.65C19.2901 19.6834 19.3561 19.7135 19.4285 19.7388C20.8994 20.2513 22.8275 21.6156 23.415 22.0991C24.0023 22.5827 25.0114 25.0459 25.6106 26.2836C26.3376 27.7854 28.6853 26.6916 27.9557 25.1834C27.2764 23.7792 26.1362 20.9766 25.2469 20.2675C24.5335 19.6989 23.1485 18.6405 21.9738 18.0401C22.7686 16.5007 23.596 14.9779 24.4671 13.4815C27.2438 14.3322 29.8831 13.3301 31.7627 10.6971C32.7356 9.3347 30.4878 8.04318 29.5259 9.39Z" fill="white"/>
</svg>
