<svg width="132" height="132" viewBox="0 0 132 132" fill="none" xmlns="http://www.w3.org/2000/svg">
<g clip-path="url(#clip0_540_14395)">
<path d="M127.981 74.6385C114.113 53.4049 115.587 31.6396 108.903 21.4059C102.219 11.1722 82.2977 -6.47178 35.2287 24.2732C-11.8403 55.0182 0.131318 88.4399 7.48665 99.6929C41.9093 152.39 152.544 112.244 127.981 74.6385Z" fill="#EBEBEB"/>
<path d="M66 107.25C88.7817 107.25 107.25 88.7817 107.25 66C107.25 43.2183 88.7817 24.75 66 24.75C43.2183 24.75 24.75 43.2183 24.75 66C24.75 88.7817 43.2183 107.25 66 107.25Z" fill="#5E9920"/>
<path d="M33 66C33 44.6123 49.28 27.027 70.125 24.959C68.7683 24.8233 67.3933 24.75 66 24.75C43.219 24.75 24.75 43.219 24.75 66C24.75 88.781 43.219 107.25 66 107.25C67.3933 107.25 68.7683 107.177 70.125 107.041C49.28 104.973 33 87.3877 33 66Z" fill="#E6F1DB"/>
<path d="M102.668 115.5C99.6356 115.5 97.168 113.032 97.168 110C97.168 106.968 99.6356 104.5 102.668 104.5C105.7 104.5 108.168 106.968 108.168 110C108.168 113.032 105.7 115.5 102.668 115.5ZM102.668 108.167C101.656 108.167 100.835 108.988 100.835 110C100.835 111.012 101.656 111.833 102.668 111.833C103.68 111.833 104.501 111.012 104.501 110C104.501 108.988 103.68 108.167 102.668 108.167Z" fill="#5E9920"/>
<path d="M66 110C41.7377 110 22 90.2623 22 66C22 41.7377 41.7377 22 66 22C90.2623 22 110 41.7377 110 66C110 90.2623 90.2623 110 66 110ZM66 27.5C44.77 27.5 27.5 44.77 27.5 66C27.5 87.23 44.77 104.5 66 104.5C87.23 104.5 104.5 87.23 104.5 66C104.5 44.77 87.23 27.5 66 27.5Z" fill="black"/>
<path d="M61.8756 80.6631C61.1716 80.6631 60.4676 80.3955 59.9323 79.8565L48.0156 67.9398L51.906 64.0495L61.8793 74.0228L83.7693 52.1328L87.6596 56.0231L63.8263 79.8565C63.2836 80.3955 62.5796 80.6631 61.8756 80.6631Z" fill="black"/>
</g>
<defs>
<clipPath id="clip0_540_14395">
<rect width="132" height="132" fill="white"/>
</clipPath>
</defs>
</svg>
