<svg width="24" height="24" viewBox="0 0 24 24" fill="none" xmlns="http://www.w3.org/2000/svg">
<g clip-path="url(#clip0_0_136)">
<path d="M12.0005 23C11.8535 23 11.7135 22.935 11.6175 22.822L0.117453 9.163C-0.0155474 9.005 -0.0375474 8.781 0.0614526 8.601L4.09345 1.26C4.18145 1.1 4.34945 1 4.53145 1H19.4695C19.6525 1 19.8205 1.1 19.9075 1.26L23.9385 8.601C24.0385 8.782 24.0155 9.005 23.8825 9.163L12.3825 22.822C12.2875 22.935 12.1475 23 12.0005 23ZM1.10445 8.781L12.0005 21.724L22.8965 8.781L19.1735 2H4.82745L1.10445 8.781Z" fill="black"/>
<path d="M23.25 9.5H0.75C0.474 9.5 0.25 9.276 0.25 9C0.25 8.724 0.474 8.5 0.75 8.5H23.25C23.526 8.5 23.75 8.724 23.75 9C23.75 9.276 23.526 9.5 23.25 9.5Z" fill="black"/>
<path d="M17.0621 9.219C16.9051 9.219 16.7501 9.145 16.6531 9.006L12.0021 2.373L7.41006 8.971C7.25406 9.198 6.94106 9.253 6.71506 9.096C6.48706 8.938 6.43206 8.627 6.59006 8.4L11.5901 1.214C11.6831 1.08 11.8361 1 11.9991 1H12.0001C12.1631 1 12.3151 1.079 12.4091 1.213L17.4711 8.432C17.6301 8.659 17.5751 8.97 17.3491 9.128C17.2631 9.189 17.1621 9.219 17.0621 9.219Z" fill="black"/>
<path d="M12 23.0015C11.788 23.0015 11.6 22.8685 11.529 22.6695L4.06002 1.66946C3.96802 1.40846 4.10402 1.12246 4.36302 1.03046C4.62502 0.934465 4.91002 1.07346 5.00202 1.33346L12 21.0095L18.998 1.33346C19.09 1.07446 19.375 0.936465 19.637 1.03046C19.897 1.12246 20.033 1.40846 19.94 1.66946L12.471 22.6695C12.4 22.8685 12.212 23.0015 12 23.0015Z" fill="black"/>
</g>
<defs>
<clipPath id="clip0_0_136">
<rect width="24" height="24" fill="white"/>
</clipPath>
</defs>
</svg>
