<svg width="20" height="20" viewBox="0 0 20 20" fill="none" xmlns="http://www.w3.org/2000/svg">
<path d="M14.5602 7.99851L14.467 7.90228L14.4497 7.88732C13.0983 6.71519 12.4412 4.95671 12.6468 3.0627L12.8886 0.835938L10.815 2.00499C8.61124 3.24733 7.16039 5.54893 6.91621 8.12244L4.58946 7.41259L4.4078 7.84605C3.67582 9.59194 3.31411 11.2679 3.33271 12.8275C3.35306 14.5286 4.00567 16.1237 5.17031 17.319C6.33268 18.5121 7.87055 19.1693 9.50039 19.1693H10.4976C13.8796 19.1693 16.6464 16.3219 16.6652 12.8217C16.6758 10.8494 15.9871 9.27149 14.5602 7.99851ZM9.74952 18.0925C8.4909 18.0925 7.45409 17.0278 7.43843 15.719C7.432 15.1828 7.53455 14.6062 7.74365 14.0002L9.20602 14.4462L9.21217 13.735C9.22114 12.7024 9.71993 11.7489 10.5312 11.1814C10.5288 12.2317 10.9472 13.1917 11.7127 13.8649L11.7428 13.8959L11.7716 13.9235C12.3203 14.4104 12.5631 14.965 12.5591 15.7217C12.552 17.0291 11.5154 18.0925 10.2482 18.0925H9.74952ZM13.2238 17.2793C13.4547 16.8128 13.5866 16.2857 13.5895 15.7279C13.5953 14.6608 13.2238 13.8064 12.4539 13.1164L12.406 13.0669L12.3887 13.0521C11.7723 12.5172 11.4846 11.7449 11.5787 10.8772L11.7551 9.25191L10.2845 10.0811C9.19879 10.6932 8.45502 11.7864 8.24337 13.031L7.14901 12.6971L6.96735 13.1304C6.5865 14.0388 6.39828 14.9142 6.40819 15.7326C6.41461 16.2752 6.53991 16.7979 6.77043 17.2681C5.34514 16.3303 4.38558 14.6843 4.36309 12.814C4.34783 11.5364 4.62146 10.159 5.17674 8.7134L7.90429 9.5455L7.91045 8.83425C7.93186 6.37446 9.23225 4.1207 11.3043 2.95262L11.6425 2.76184L11.623 2.94143C11.3784 5.19464 12.1622 7.29216 13.7741 8.70053L13.8493 8.7783L13.8781 8.80586C15.0855 9.87714 15.6437 11.1514 15.6349 12.8157C15.6247 14.6927 14.6619 16.3436 13.2238 17.2793Z" fill="#808080"/>
</svg>
