<svg width="24" height="24" viewBox="0 0 24 24" fill="none" xmlns="http://www.w3.org/2000/svg">
<path d="M9.62741 7.33815C9.13859 8.07738 8.00168 9.13887 8.00168 10C8.00168 10.9972 9.06432 13.0054 10.4444 14.3684C11.8244 15.7315 12.992 16.5 14.0017 16.5C14.6891 16.5 15.0345 14.8421 16.8706 14.8421C18.2476 14.8421 20.0017 16.3421 20.5017 18C20.7884 18.9506 19.6656 19.8088 18.4066 20.4062C17.4194 20.8747 16.3127 21.0432 15.2251 20.9385C13.2386 20.7474 10.4064 19.9623 7.00169 16.7368C3.10017 12.5 2.90319 9.72438 3.00168 7.01385C3.10018 4.30332 5.50169 3 6.31327 3C7.0662 3 9.42612 5.03844 9.76331 6.64692C9.81353 6.88649 9.76242 7.13397 9.62741 7.33815Z" stroke="white" stroke-width="1.4" stroke-linecap="round" stroke-linejoin="round"/>
</svg>
