<svg width="132" height="132" viewBox="0 0 132 132" fill="none" xmlns="http://www.w3.org/2000/svg">
<path d="M30.7173 116.724C56.0796 116.724 73.4963 129.862 85.7173 129.862C97.9383 129.862 123.605 122.836 123.605 66.6153C123.605 10.3943 89.076 2.14062 75.634 2.14062C12.6883 2.14062 -14.1994 116.724 30.7173 116.724Z" fill="#EBEBEB"/>
<path d="M79.6055 11.5078L84.7909 6.32236L87.3836 8.91509L82.1982 14.1005L79.6055 11.5078Z" fill="#5E9920"/>
<path d="M64.6914 8.25781L67.2841 5.66509L72.4696 10.8505L69.8769 13.4433L64.6914 8.25781Z" fill="#5E9920"/>
<path d="M79.6016 23.1719L82.1943 20.5791L87.3797 25.7646L84.787 28.3573L79.6016 23.1719Z" fill="#5E9920"/>
<path d="M51.957 120.273C48.9247 120.273 46.457 117.806 46.457 114.773C46.457 111.741 48.9247 109.273 51.957 109.273C54.9894 109.273 57.457 111.741 57.457 114.773C57.457 117.806 54.993 120.273 51.957 120.273ZM51.957 112.94C50.945 112.94 50.1237 113.761 50.1237 114.773C50.1237 115.785 50.945 116.607 51.957 116.607C52.969 116.607 53.7904 115.785 53.7904 114.773C53.7904 113.761 52.969 112.94 51.957 112.94Z" fill="#5E9920"/>
<path d="M37.5833 107.247H28.4167C26.3927 107.247 24.75 105.605 24.75 103.581V54.0807C24.75 52.0567 26.3927 50.4141 28.4167 50.4141H37.5833C39.6073 50.4141 41.25 52.0567 41.25 54.0807V103.581C41.25 105.597 39.6 107.247 37.5833 107.247Z" fill="#E6F1DB"/>
<path d="M92.5872 54.0833H71.6139C71.6139 54.0833 75.2806 48.5833 75.2806 39.4167C75.2806 28.4167 69.7806 24.75 66.1139 24.75C62.4472 24.75 60.6139 26.5833 60.6139 35.75C60.6139 48.5833 42.2806 57.75 42.2806 57.75L41.2539 58.2633V97.35L42.2806 98.0833C42.2806 98.0833 55.1139 107.25 82.6139 107.25H88.4806C95.6306 107.25 101.717 102.117 102.927 95.0767L107.034 71.2433C108.574 62.26 101.681 54.0833 92.5872 54.0833Z" fill="#F3F3F1"/>
<path d="M33 103.581V54.0807C33 52.0567 34.6427 50.4141 36.6667 50.4141H28.4167C26.3927 50.4141 24.75 52.0567 24.75 54.0807V103.581C24.75 105.605 26.3927 107.247 28.4167 107.247H36.6667C34.6427 107.247 33 105.605 33 103.581Z" fill="#5E9920"/>
<path d="M50.5306 98.0833L49.5039 97.35V58.2633L50.5306 57.75C50.5306 57.75 68.8639 48.5833 68.8639 35.75C68.8639 30.7303 69.4359 27.9547 70.5359 26.4293C69.0582 25.256 67.4632 24.75 66.1139 24.75C62.4472 24.75 60.6139 26.5833 60.6139 35.75C60.6139 48.5833 42.2806 57.75 42.2806 57.75L41.2539 58.2633V97.35L42.2806 98.0833C42.2806 98.0833 55.1139 107.25 82.6139 107.25H88.4806C88.6346 107.25 88.7776 107.213 88.9279 107.21C62.7882 106.788 50.5306 98.0833 50.5306 98.0833Z" fill="#E6F1DB"/>
<path d="M37.5833 109.997H28.4167C24.8783 109.997 22 107.119 22 103.581V54.0807C22 50.5424 24.8783 47.6641 28.4167 47.6641H37.5833C41.1217 47.6641 44 50.5424 44 54.0807V103.581C44 107.119 41.1217 109.997 37.5833 109.997ZM28.4167 53.1641C27.9107 53.1641 27.5 53.5747 27.5 54.0807V103.581C27.5 104.087 27.9107 104.497 28.4167 104.497H37.5833C38.082 104.497 38.5 104.079 38.5 103.581V54.0807C38.5 53.5747 38.0893 53.1641 37.5833 53.1641H28.4167Z" fill="black"/>
<path d="M88.4816 110H82.6149C54.5576 110 41.2366 100.716 40.6829 100.32L39.6562 99.5867L42.8536 95.1097L43.8803 95.843C43.9939 95.9237 56.4936 104.496 82.6149 104.496H88.4816C94.2969 104.496 99.2323 100.338 100.219 94.6073L104.325 70.774C104.923 67.2943 103.962 63.7523 101.693 61.061C99.4266 58.3733 96.1082 56.8333 92.5882 56.8333H71.6149C70.6029 56.8333 69.6679 56.276 69.1913 55.3813C68.7109 54.4867 68.7659 53.4013 69.3269 52.558C69.3489 52.5213 72.5316 47.542 72.5316 39.4167C72.5316 30.6753 68.6963 27.5 66.1149 27.5C64.7619 27.5 63.3649 27.5 63.3649 35.75C63.3649 50.116 44.3239 59.8033 43.5099 60.2103L42.4833 60.7237L40.0229 55.803L41.0496 55.2897C41.2146 55.209 57.8612 46.7207 57.8612 35.75C57.8612 29.0987 58.4993 22 66.1113 22C70.2326 22 78.0279 25.641 78.0279 39.4167C78.0279 44.484 76.9866 48.5467 75.9526 51.3333H92.5846C97.7289 51.3333 102.584 53.5883 105.895 57.519C109.213 61.4533 110.614 66.627 109.741 71.7127L105.634 95.546C104.197 103.921 96.9846 110 88.4816 110Z" fill="black"/>
</svg>
