<svg width="24" height="24" viewBox="0 0 24 24" fill="none" xmlns="http://www.w3.org/2000/svg">
<g clip-path="url(#clip0_460_2272)">
<path d="M20.0009 9.28037L17.0636 10.0389L13.3948 5.2981C13.2342 5.09046 13.0306 4.92289 12.7992 4.80774C12.5677 4.69259 12.3143 4.63281 12.0576 4.63281C11.8009 4.63281 11.5475 4.69259 11.316 4.80774C11.0846 4.92289 10.881 5.09046 10.7204 5.2981L7.05164 10.0389L4.0572 9.28037C3.77022 9.20915 3.47043 9.21541 3.18646 9.29858C2.90248 9.38174 2.64382 9.53902 2.43516 9.75539C2.22651 9.97176 2.07484 10.24 1.99465 10.5345C1.91445 10.829 1.90841 11.1398 1.97709 11.4374L4.00005 18.8094C4.06919 19.0657 4.21953 19.2905 4.42686 19.4475C4.6342 19.6044 4.88645 19.6844 5.14297 19.6746H18.858C19.1145 19.6844 19.3667 19.6044 19.5741 19.4475C19.7814 19.2905 19.9318 19.0657 20.0009 18.8094L22.0353 11.4374C22.101 11.1446 22.0944 10.8393 22.0163 10.5497C21.9381 10.2602 21.7909 9.99571 21.5881 9.78075C21.3854 9.56579 21.1337 9.40727 20.8563 9.31982C20.5789 9.23236 20.2847 9.21879 20.0009 9.28037Z" fill="#EFA83C"/>
<path d="M1.4287 8.00206C2.21775 8.00206 2.8574 7.33877 2.8574 6.52056C2.8574 5.70235 2.21775 5.03906 1.4287 5.03906C0.639651 5.03906 0 5.70235 0 6.52056C0 7.33877 0.639651 8.00206 1.4287 8.00206Z" fill="#EFA83C"/>
<path d="M22.5732 8.00206C23.3623 8.00206 24.0019 7.33877 24.0019 6.52056C24.0019 5.70235 23.3623 5.03906 22.5732 5.03906C21.7842 5.03906 21.1445 5.70235 21.1445 6.52056C21.1445 7.33877 21.7842 8.00206 22.5732 8.00206Z" fill="#EFA83C"/>
<path d="M12.0029 2.963C12.792 2.963 13.4316 2.29971 13.4316 1.4815C13.4316 0.66329 12.792 0 12.0029 0C11.2139 0 10.5742 0.66329 10.5742 1.4815C10.5742 2.29971 11.2139 2.963 12.0029 2.963Z" fill="#EFA83C"/>
<path d="M18.8596 24.0032H5.14305C4.83989 24.0032 4.54915 23.8783 4.33479 23.6561C4.12043 23.4338 4 23.1323 4 22.818C4 22.5037 4.12043 22.2022 4.33479 21.9799C4.54915 21.7577 4.83989 21.6328 5.14305 21.6328H18.8596C19.1628 21.6328 19.4535 21.7577 19.6679 21.9799C19.8823 22.2022 20.0027 22.5037 20.0027 22.818C20.0027 23.1323 19.8823 23.4338 19.6679 23.6561C19.4535 23.8783 19.1628 24.0032 18.8596 24.0032Z" fill="#EFA83C"/>
</g>
<defs>
<clipPath id="clip0_460_2272">
<rect width="24" height="24" fill="white"/>
</clipPath>
</defs>
</svg>
