<svg width="133" height="132" viewBox="0 0 133 132" fill="none" xmlns="http://www.w3.org/2000/svg">
<path d="M31.2173 116.724C56.5796 116.724 73.9963 129.862 86.2173 129.862C98.4383 129.862 124.105 122.836 124.105 66.6153C124.105 10.3943 89.576 2.14062 76.134 2.14062C13.1883 2.14062 -13.6994 116.724 31.2173 116.724Z" fill="#EBEBEB"/>
<path d="M80.1055 11.5078L85.2909 6.32236L87.8836 8.91509L82.6982 14.1005L80.1055 11.5078Z" fill="#5E9920"/>
<path d="M65.1914 8.25781L67.7841 5.66509L72.9696 10.8505L70.3769 13.4433L65.1914 8.25781Z" fill="#5E9920"/>
<path d="M80.1016 23.1719L82.6943 20.5791L87.8797 25.7646L85.287 28.3573L80.1016 23.1719Z" fill="#5E9920"/>
<path d="M52.457 120.273C49.4247 120.273 46.957 117.806 46.957 114.773C46.957 111.741 49.4247 109.273 52.457 109.273C55.4894 109.273 57.957 111.741 57.957 114.773C57.957 117.806 55.493 120.273 52.457 120.273ZM52.457 112.94C51.445 112.94 50.6237 113.761 50.6237 114.773C50.6237 115.785 51.445 116.607 52.457 116.607C53.469 116.607 54.2904 115.785 54.2904 114.773C54.2904 113.761 53.469 112.94 52.457 112.94Z" fill="#5E9920"/>
<path d="M38.0833 107.247H28.9167C26.8927 107.247 25.25 105.605 25.25 103.581V54.0807C25.25 52.0567 26.8927 50.4141 28.9167 50.4141H38.0833C40.1073 50.4141 41.75 52.0567 41.75 54.0807V103.581C41.75 105.597 40.1 107.247 38.0833 107.247Z" fill="#E6F1DB"/>
<path d="M93.0872 54.0833H72.1139C72.1139 54.0833 75.7806 48.5833 75.7806 39.4167C75.7806 28.4167 70.2806 24.75 66.6139 24.75C62.9472 24.75 61.1139 26.5833 61.1139 35.75C61.1139 48.5833 42.7806 57.75 42.7806 57.75L41.7539 58.2633V97.35L42.7806 98.0833C42.7806 98.0833 55.6139 107.25 83.1139 107.25H88.9806C96.1306 107.25 102.217 102.117 103.427 95.0767L107.534 71.2433C109.074 62.26 102.181 54.0833 93.0872 54.0833Z" fill="#F3F3F1"/>
<path d="M33.5 103.581V54.0807C33.5 52.0567 35.1427 50.4141 37.1667 50.4141H28.9167C26.8927 50.4141 25.25 52.0567 25.25 54.0807V103.581C25.25 105.605 26.8927 107.247 28.9167 107.247H37.1667C35.1427 107.247 33.5 105.605 33.5 103.581Z" fill="#5E9920"/>
<path d="M51.0306 98.0833L50.0039 97.35V58.2633L51.0306 57.75C51.0306 57.75 69.3639 48.5833 69.3639 35.75C69.3639 30.7303 69.9359 27.9547 71.0359 26.4293C69.5582 25.256 67.9632 24.75 66.6139 24.75C62.9472 24.75 61.1139 26.5833 61.1139 35.75C61.1139 48.5833 42.7806 57.75 42.7806 57.75L41.7539 58.2633V97.35L42.7806 98.0833C42.7806 98.0833 55.6139 107.25 83.1139 107.25H88.9806C89.1346 107.25 89.2776 107.213 89.4279 107.21C63.2882 106.788 51.0306 98.0833 51.0306 98.0833Z" fill="#E6F1DB"/>
<path d="M38.0833 109.997H28.9167C25.3783 109.997 22.5 107.119 22.5 103.581V54.0807C22.5 50.5424 25.3783 47.6641 28.9167 47.6641H38.0833C41.6217 47.6641 44.5 50.5424 44.5 54.0807V103.581C44.5 107.119 41.6217 109.997 38.0833 109.997ZM28.9167 53.1641C28.4107 53.1641 28 53.5747 28 54.0807V103.581C28 104.087 28.4107 104.497 28.9167 104.497H38.0833C38.582 104.497 39 104.079 39 103.581V54.0807C39 53.5747 38.5893 53.1641 38.0833 53.1641H28.9167Z" fill="black"/>
<path d="M88.9816 110H83.1149C55.0576 110 41.7366 100.716 41.1829 100.32L40.1562 99.5867L43.3536 95.1097L44.3803 95.843C44.4939 95.9237 56.9936 104.496 83.1149 104.496H88.9816C94.7969 104.496 99.7323 100.338 100.719 94.6073L104.825 70.774C105.423 67.2943 104.462 63.7523 102.193 61.061C99.9266 58.3733 96.6082 56.8333 93.0882 56.8333H72.1149C71.1029 56.8333 70.1679 56.276 69.6913 55.3813C69.2109 54.4867 69.2659 53.4013 69.8269 52.558C69.8489 52.5213 73.0316 47.542 73.0316 39.4167C73.0316 30.6753 69.1963 27.5 66.6149 27.5C65.2619 27.5 63.8649 27.5 63.8649 35.75C63.8649 50.116 44.8239 59.8033 44.0099 60.2103L42.9833 60.7237L40.5229 55.803L41.5496 55.2897C41.7146 55.209 58.3612 46.7207 58.3612 35.75C58.3612 29.0987 58.9993 22 66.6113 22C70.7326 22 78.5279 25.641 78.5279 39.4167C78.5279 44.484 77.4866 48.5467 76.4526 51.3333H93.0846C98.2289 51.3333 103.084 53.5883 106.395 57.519C109.713 61.4533 111.114 66.627 110.241 71.7127L106.134 95.546C104.697 103.921 97.4846 110 88.9816 110Z" fill="black"/>
</svg>
